<?xml version="1.0" encoding="utf-8"?>
<svg xmlns="http://www.w3.org/2000/svg" xmlns:xlink="http://www.w3.org/1999/xlink" width="600" height="400" viewBox="0 0 2400 1600">
<defs>
  <clipPath id="clip330">
    <rect x="0" y="0" width="2400" height="1600"/>
  </clipPath>
</defs>
<path clip-path="url(#clip330)" d="
M0 1600 L2400 1600 L2400 0 L0 0  Z
  " fill="#ffffff" fill-rule="evenodd" fill-opacity="1"/>
<defs>
  <clipPath id="clip331">
    <rect x="480" y="0" width="1681" height="1600"/>
  </clipPath>
</defs>
<path clip-path="url(#clip330)" d="
M211.602 1423.18 L2352.76 1423.18 L2352.76 47.2441 L211.602 47.2441  Z
  " fill="#ffffff" fill-rule="evenodd" fill-opacity="1"/>
<defs>
  <clipPath id="clip332">
    <rect x="211" y="47" width="2142" height="1377"/>
  </clipPath>
</defs>
<polyline clip-path="url(#clip332)" style="stroke:#000000; stroke-width:6; stroke-opacity:0.1; fill:none" points="
  261.312,1423.18 261.312,47.2441 
  "/>
<polyline clip-path="url(#clip332)" style="stroke:#000000; stroke-width:6; stroke-opacity:0.1; fill:none" points="
  601.601,1423.18 601.601,47.2441 
  "/>
<polyline clip-path="url(#clip332)" style="stroke:#000000; stroke-width:6; stroke-opacity:0.1; fill:none" points="
  941.89,1423.18 941.89,47.2441 
  "/>
<polyline clip-path="url(#clip332)" style="stroke:#000000; stroke-width:6; stroke-opacity:0.1; fill:none" points="
  1282.18,1423.18 1282.18,47.2441 
  "/>
<polyline clip-path="url(#clip332)" style="stroke:#000000; stroke-width:6; stroke-opacity:0.1; fill:none" points="
  1622.47,1423.18 1622.47,47.2441 
  "/>
<polyline clip-path="url(#clip332)" style="stroke:#000000; stroke-width:6; stroke-opacity:0.1; fill:none" points="
  1962.76,1423.18 1962.76,47.2441 
  "/>
<polyline clip-path="url(#clip332)" style="stroke:#000000; stroke-width:6; stroke-opacity:0.1; fill:none" points="
  2303.05,1423.18 2303.05,47.2441 
  "/>
<polyline clip-path="url(#clip332)" style="stroke:#000000; stroke-width:6; stroke-opacity:0.1; fill:none" points="
  211.602,1384.24 2352.76,1384.24 
  "/>
<polyline clip-path="url(#clip332)" style="stroke:#000000; stroke-width:6; stroke-opacity:0.1; fill:none" points="
  211.602,1105.16 2352.76,1105.16 
  "/>
<polyline clip-path="url(#clip332)" style="stroke:#000000; stroke-width:6; stroke-opacity:0.1; fill:none" points="
  211.602,826.08 2352.76,826.08 
  "/>
<polyline clip-path="url(#clip332)" style="stroke:#000000; stroke-width:6; stroke-opacity:0.1; fill:none" points="
  211.602,547.001 2352.76,547.001 
  "/>
<polyline clip-path="url(#clip332)" style="stroke:#000000; stroke-width:6; stroke-opacity:0.1; fill:none" points="
  211.602,267.922 2352.76,267.922 
  "/>
<polyline clip-path="url(#clip330)" style="stroke:#000000; stroke-width:4; stroke-opacity:1; fill:none" points="
  211.602,1423.18 2352.76,1423.18 
  "/>
<polyline clip-path="url(#clip330)" style="stroke:#000000; stroke-width:4; stroke-opacity:1; fill:none" points="
  211.602,1423.18 211.602,47.2441 
  "/>
<polyline clip-path="url(#clip330)" style="stroke:#000000; stroke-width:4; stroke-opacity:1; fill:none" points="
  261.312,1423.18 261.312,1406.67 
  "/>
<polyline clip-path="url(#clip330)" style="stroke:#000000; stroke-width:4; stroke-opacity:1; fill:none" points="
  601.601,1423.18 601.601,1406.67 
  "/>
<polyline clip-path="url(#clip330)" style="stroke:#000000; stroke-width:4; stroke-opacity:1; fill:none" points="
  941.89,1423.18 941.89,1406.67 
  "/>
<polyline clip-path="url(#clip330)" style="stroke:#000000; stroke-width:4; stroke-opacity:1; fill:none" points="
  1282.18,1423.18 1282.18,1406.67 
  "/>
<polyline clip-path="url(#clip330)" style="stroke:#000000; stroke-width:4; stroke-opacity:1; fill:none" points="
  1622.47,1423.18 1622.47,1406.67 
  "/>
<polyline clip-path="url(#clip330)" style="stroke:#000000; stroke-width:4; stroke-opacity:1; fill:none" points="
  1962.76,1423.18 1962.76,1406.67 
  "/>
<polyline clip-path="url(#clip330)" style="stroke:#000000; stroke-width:4; stroke-opacity:1; fill:none" points="
  2303.05,1423.18 2303.05,1406.67 
  "/>
<polyline clip-path="url(#clip330)" style="stroke:#000000; stroke-width:4; stroke-opacity:1; fill:none" points="
  211.602,1384.24 237.296,1384.24 
  "/>
<polyline clip-path="url(#clip330)" style="stroke:#000000; stroke-width:4; stroke-opacity:1; fill:none" points="
  211.602,1105.16 237.296,1105.16 
  "/>
<polyline clip-path="url(#clip330)" style="stroke:#000000; stroke-width:4; stroke-opacity:1; fill:none" points="
  211.602,826.08 237.296,826.08 
  "/>
<polyline clip-path="url(#clip330)" style="stroke:#000000; stroke-width:4; stroke-opacity:1; fill:none" points="
  211.602,547.001 237.296,547.001 
  "/>
<polyline clip-path="url(#clip330)" style="stroke:#000000; stroke-width:4; stroke-opacity:1; fill:none" points="
  211.602,267.922 237.296,267.922 
  "/>
<path clip-path="url(#clip330)" d="M 0 0 M223.581 1461.77 L236.057 1461.77 L236.057 1465.56 L223.581 1465.56 L223.581 1461.77 Z" fill="#000000" fill-rule="evenodd" fill-opacity="1" /><path clip-path="url(#clip330)" d="M 0 0 M251.127 1445.17 Q247.516 1445.17 245.687 1448.74 Q243.881 1452.28 243.881 1459.41 Q243.881 1466.51 245.687 1470.08 Q247.516 1473.62 251.127 1473.62 Q254.761 1473.62 256.567 1470.08 Q258.395 1466.51 258.395 1459.41 Q258.395 1452.28 256.567 1448.74 Q254.761 1445.17 251.127 1445.17 M251.127 1441.47 Q256.937 1441.47 259.992 1446.07 Q263.071 1450.66 263.071 1459.41 Q263.071 1468.13 259.992 1472.74 Q256.937 1477.32 251.127 1477.32 Q245.317 1477.32 242.238 1472.74 Q239.182 1468.13 239.182 1459.41 Q239.182 1450.66 242.238 1446.07 Q245.317 1441.47 251.127 1441.47 Z" fill="#000000" fill-rule="evenodd" fill-opacity="1" /><path clip-path="url(#clip330)" d="M 0 0 M268.141 1470.77 L273.025 1470.77 L273.025 1476.65 L268.141 1476.65 L268.141 1470.77 Z" fill="#000000" fill-rule="evenodd" fill-opacity="1" /><path clip-path="url(#clip330)" d="M 0 0 M278.14 1442.09 L296.497 1442.09 L296.497 1446.03 L282.423 1446.03 L282.423 1454.5 Q283.441 1454.15 284.46 1453.99 Q285.478 1453.8 286.497 1453.8 Q292.284 1453.8 295.664 1456.98 Q299.043 1460.15 299.043 1465.56 Q299.043 1471.14 295.571 1474.24 Q292.099 1477.32 285.779 1477.32 Q283.603 1477.32 281.335 1476.95 Q279.09 1476.58 276.682 1475.84 L276.682 1471.14 Q278.765 1472.28 280.988 1472.83 Q283.21 1473.39 285.687 1473.39 Q289.691 1473.39 292.029 1471.28 Q294.367 1469.18 294.367 1465.56 Q294.367 1461.95 292.029 1459.85 Q289.691 1457.74 285.687 1457.74 Q283.812 1457.74 281.937 1458.16 Q280.085 1458.57 278.14 1459.45 L278.14 1442.09 Z" fill="#000000" fill-rule="evenodd" fill-opacity="1" /><path clip-path="url(#clip330)" d="M 0 0 M583.117 1445.17 Q579.506 1445.17 577.677 1448.74 Q575.872 1452.28 575.872 1459.41 Q575.872 1466.51 577.677 1470.08 Q579.506 1473.62 583.117 1473.62 Q586.751 1473.62 588.557 1470.08 Q590.386 1466.51 590.386 1459.41 Q590.386 1452.28 588.557 1448.74 Q586.751 1445.17 583.117 1445.17 M583.117 1441.47 Q588.927 1441.47 591.983 1446.07 Q595.062 1450.66 595.062 1459.41 Q595.062 1468.13 591.983 1472.74 Q588.927 1477.32 583.117 1477.32 Q577.307 1477.32 574.228 1472.74 Q571.173 1468.13 571.173 1459.41 Q571.173 1450.66 574.228 1446.07 Q577.307 1441.47 583.117 1441.47 Z" fill="#000000" fill-rule="evenodd" fill-opacity="1" /><path clip-path="url(#clip330)" d="M 0 0 M600.131 1470.77 L605.015 1470.77 L605.015 1476.65 L600.131 1476.65 L600.131 1470.77 Z" fill="#000000" fill-rule="evenodd" fill-opacity="1" /><path clip-path="url(#clip330)" d="M 0 0 M620.085 1445.17 Q616.474 1445.17 614.645 1448.74 Q612.839 1452.28 612.839 1459.41 Q612.839 1466.51 614.645 1470.08 Q616.474 1473.62 620.085 1473.62 Q623.719 1473.62 625.524 1470.08 Q627.353 1466.51 627.353 1459.41 Q627.353 1452.28 625.524 1448.74 Q623.719 1445.17 620.085 1445.17 M620.085 1441.47 Q625.895 1441.47 628.95 1446.07 Q632.029 1450.66 632.029 1459.41 Q632.029 1468.13 628.95 1472.74 Q625.895 1477.32 620.085 1477.32 Q614.275 1477.32 611.196 1472.74 Q608.14 1468.13 608.14 1459.41 Q608.14 1450.66 611.196 1446.07 Q614.275 1441.47 620.085 1441.47 Z" fill="#000000" fill-rule="evenodd" fill-opacity="1" /><path clip-path="url(#clip330)" d="M 0 0 M923.904 1445.17 Q920.293 1445.17 918.464 1448.74 Q916.659 1452.28 916.659 1459.41 Q916.659 1466.51 918.464 1470.08 Q920.293 1473.62 923.904 1473.62 Q927.538 1473.62 929.344 1470.08 Q931.173 1466.51 931.173 1459.41 Q931.173 1452.28 929.344 1448.74 Q927.538 1445.17 923.904 1445.17 M923.904 1441.47 Q929.714 1441.47 932.77 1446.07 Q935.848 1450.66 935.848 1459.41 Q935.848 1468.13 932.77 1472.74 Q929.714 1477.32 923.904 1477.32 Q918.094 1477.32 915.015 1472.74 Q911.96 1468.13 911.96 1459.41 Q911.96 1450.66 915.015 1446.07 Q918.094 1441.47 923.904 1441.47 Z" fill="#000000" fill-rule="evenodd" fill-opacity="1" /><path clip-path="url(#clip330)" d="M 0 0 M940.918 1470.77 L945.802 1470.77 L945.802 1476.65 L940.918 1476.65 L940.918 1470.77 Z" fill="#000000" fill-rule="evenodd" fill-opacity="1" /><path clip-path="url(#clip330)" d="M 0 0 M950.918 1442.09 L969.274 1442.09 L969.274 1446.03 L955.2 1446.03 L955.2 1454.5 Q956.219 1454.15 957.237 1453.99 Q958.256 1453.8 959.274 1453.8 Q965.061 1453.8 968.441 1456.98 Q971.82 1460.15 971.82 1465.56 Q971.82 1471.14 968.348 1474.24 Q964.876 1477.32 958.557 1477.32 Q956.381 1477.32 954.112 1476.95 Q951.867 1476.58 949.459 1475.84 L949.459 1471.14 Q951.543 1472.28 953.765 1472.83 Q955.987 1473.39 958.464 1473.39 Q962.469 1473.39 964.807 1471.28 Q967.145 1469.18 967.145 1465.56 Q967.145 1461.95 964.807 1459.85 Q962.469 1457.74 958.464 1457.74 Q956.589 1457.74 954.714 1458.16 Q952.862 1458.57 950.918 1459.45 L950.918 1442.09 Z" fill="#000000" fill-rule="evenodd" fill-opacity="1" /><path clip-path="url(#clip330)" d="M 0 0 M1254.08 1472.72 L1261.72 1472.72 L1261.72 1446.35 L1253.41 1448.02 L1253.41 1443.76 L1261.67 1442.09 L1266.35 1442.09 L1266.35 1472.72 L1273.98 1472.72 L1273.98 1476.65 L1254.08 1476.65 L1254.08 1472.72 Z" fill="#000000" fill-rule="evenodd" fill-opacity="1" /><path clip-path="url(#clip330)" d="M 0 0 M1279.05 1470.77 L1283.94 1470.77 L1283.94 1476.65 L1279.05 1476.65 L1279.05 1470.77 Z" fill="#000000" fill-rule="evenodd" fill-opacity="1" /><path clip-path="url(#clip330)" d="M 0 0 M1299.01 1445.17 Q1295.4 1445.17 1293.57 1448.74 Q1291.76 1452.28 1291.76 1459.41 Q1291.76 1466.51 1293.57 1470.08 Q1295.4 1473.62 1299.01 1473.62 Q1302.64 1473.62 1304.45 1470.08 Q1306.28 1466.51 1306.28 1459.41 Q1306.28 1452.28 1304.45 1448.74 Q1302.64 1445.17 1299.01 1445.17 M1299.01 1441.47 Q1304.82 1441.47 1307.87 1446.07 Q1310.95 1450.66 1310.95 1459.41 Q1310.95 1468.13 1307.87 1472.74 Q1304.82 1477.32 1299.01 1477.32 Q1293.2 1477.32 1290.12 1472.74 Q1287.06 1468.13 1287.06 1459.41 Q1287.06 1450.66 1290.12 1446.07 Q1293.2 1441.47 1299.01 1441.47 Z" fill="#000000" fill-rule="evenodd" fill-opacity="1" /><path clip-path="url(#clip330)" d="M 0 0 M1594.86 1472.72 L1602.5 1472.72 L1602.5 1446.35 L1594.19 1448.02 L1594.19 1443.76 L1602.46 1442.09 L1607.13 1442.09 L1607.13 1472.72 L1614.77 1472.72 L1614.77 1476.65 L1594.86 1476.65 L1594.86 1472.72 Z" fill="#000000" fill-rule="evenodd" fill-opacity="1" /><path clip-path="url(#clip330)" d="M 0 0 M1619.84 1470.77 L1624.73 1470.77 L1624.73 1476.65 L1619.84 1476.65 L1619.84 1470.77 Z" fill="#000000" fill-rule="evenodd" fill-opacity="1" /><path clip-path="url(#clip330)" d="M 0 0 M1629.84 1442.09 L1648.2 1442.09 L1648.2 1446.03 L1634.12 1446.03 L1634.12 1454.5 Q1635.14 1454.15 1636.16 1453.99 Q1637.18 1453.8 1638.2 1453.8 Q1643.98 1453.8 1647.36 1456.98 Q1650.74 1460.15 1650.74 1465.56 Q1650.74 1471.14 1647.27 1474.24 Q1643.8 1477.32 1637.48 1477.32 Q1635.3 1477.32 1633.04 1476.95 Q1630.79 1476.58 1628.38 1475.84 L1628.38 1471.14 Q1630.47 1472.28 1632.69 1472.83 Q1634.91 1473.39 1637.39 1473.39 Q1641.39 1473.39 1643.73 1471.28 Q1646.07 1469.18 1646.07 1465.56 Q1646.07 1461.95 1643.73 1459.85 Q1641.39 1457.74 1637.39 1457.74 Q1635.51 1457.74 1633.64 1458.16 Q1631.79 1458.57 1629.84 1459.45 L1629.84 1442.09 Z" fill="#000000" fill-rule="evenodd" fill-opacity="1" /><path clip-path="url(#clip330)" d="M 0 0 M1938.93 1472.72 L1955.25 1472.72 L1955.25 1476.65 L1933.3 1476.65 L1933.3 1472.72 Q1935.96 1469.96 1940.55 1465.33 Q1945.15 1460.68 1946.33 1459.34 Q1948.58 1456.81 1949.46 1455.08 Q1950.36 1453.32 1950.36 1451.63 Q1950.36 1448.87 1948.42 1447.14 Q1946.5 1445.4 1943.39 1445.4 Q1941.19 1445.4 1938.74 1446.17 Q1936.31 1446.93 1933.53 1448.48 L1933.53 1443.76 Q1936.36 1442.62 1938.81 1442.05 Q1941.26 1441.47 1943.3 1441.47 Q1948.67 1441.47 1951.87 1444.15 Q1955.06 1446.84 1955.06 1451.33 Q1955.06 1453.46 1954.25 1455.38 Q1953.46 1457.28 1951.36 1459.87 Q1950.78 1460.54 1947.68 1463.76 Q1944.57 1466.95 1938.93 1472.72 Z" fill="#000000" fill-rule="evenodd" fill-opacity="1" /><path clip-path="url(#clip330)" d="M 0 0 M1960.32 1470.77 L1965.2 1470.77 L1965.2 1476.65 L1960.32 1476.65 L1960.32 1470.77 Z" fill="#000000" fill-rule="evenodd" fill-opacity="1" /><path clip-path="url(#clip330)" d="M 0 0 M1980.27 1445.17 Q1976.66 1445.17 1974.83 1448.74 Q1973.02 1452.28 1973.02 1459.41 Q1973.02 1466.51 1974.83 1470.08 Q1976.66 1473.62 1980.27 1473.62 Q1983.9 1473.62 1985.71 1470.08 Q1987.54 1466.51 1987.54 1459.41 Q1987.54 1452.28 1985.71 1448.74 Q1983.9 1445.17 1980.27 1445.17 M1980.27 1441.47 Q1986.08 1441.47 1989.13 1446.07 Q1992.21 1450.66 1992.21 1459.41 Q1992.21 1468.13 1989.13 1472.74 Q1986.08 1477.32 1980.27 1477.32 Q1974.46 1477.32 1971.38 1472.74 Q1968.32 1468.13 1968.32 1459.41 Q1968.32 1450.66 1971.38 1446.07 Q1974.46 1441.47 1980.27 1441.47 Z" fill="#000000" fill-rule="evenodd" fill-opacity="1" /><path clip-path="url(#clip330)" d="M 0 0 M2279.71 1472.72 L2296.03 1472.72 L2296.03 1476.65 L2274.09 1476.65 L2274.09 1472.72 Q2276.75 1469.96 2281.33 1465.33 Q2285.94 1460.68 2287.12 1459.34 Q2289.37 1456.81 2290.25 1455.08 Q2291.15 1453.32 2291.15 1451.63 Q2291.15 1448.87 2289.2 1447.14 Q2287.28 1445.4 2284.18 1445.4 Q2281.98 1445.4 2279.53 1446.17 Q2277.1 1446.93 2274.32 1448.48 L2274.32 1443.76 Q2277.14 1442.62 2279.6 1442.05 Q2282.05 1441.47 2284.09 1441.47 Q2289.46 1441.47 2292.65 1444.15 Q2295.85 1446.84 2295.85 1451.33 Q2295.85 1453.46 2295.04 1455.38 Q2294.25 1457.28 2292.14 1459.87 Q2291.57 1460.54 2288.46 1463.76 Q2285.36 1466.95 2279.71 1472.72 Z" fill="#000000" fill-rule="evenodd" fill-opacity="1" /><path clip-path="url(#clip330)" d="M 0 0 M2301.1 1470.77 L2305.99 1470.77 L2305.99 1476.65 L2301.1 1476.65 L2301.1 1470.77 Z" fill="#000000" fill-rule="evenodd" fill-opacity="1" /><path clip-path="url(#clip330)" d="M 0 0 M2311.1 1442.09 L2329.46 1442.09 L2329.46 1446.03 L2315.38 1446.03 L2315.38 1454.5 Q2316.4 1454.15 2317.42 1453.99 Q2318.44 1453.8 2319.46 1453.8 Q2325.25 1453.8 2328.63 1456.98 Q2332 1460.15 2332 1465.56 Q2332 1471.14 2328.53 1474.24 Q2325.06 1477.32 2318.74 1477.32 Q2316.56 1477.32 2314.3 1476.95 Q2312.05 1476.58 2309.64 1475.84 L2309.64 1471.14 Q2311.73 1472.28 2313.95 1472.83 Q2316.17 1473.39 2318.65 1473.39 Q2322.65 1473.39 2324.99 1471.28 Q2327.33 1469.18 2327.33 1465.56 Q2327.33 1461.95 2324.99 1459.85 Q2322.65 1457.74 2318.65 1457.74 Q2316.77 1457.74 2314.9 1458.16 Q2313.05 1458.57 2311.1 1459.45 L2311.1 1442.09 Z" fill="#000000" fill-rule="evenodd" fill-opacity="1" /><path clip-path="url(#clip330)" d="M 0 0 M138.691 1370.04 Q135.08 1370.04 133.251 1373.6 Q131.445 1377.14 131.445 1384.27 Q131.445 1391.38 133.251 1394.94 Q135.08 1398.49 138.691 1398.49 Q142.325 1398.49 144.13 1394.94 Q145.959 1391.38 145.959 1384.27 Q145.959 1377.14 144.13 1373.6 Q142.325 1370.04 138.691 1370.04 M138.691 1366.33 Q144.501 1366.33 147.556 1370.94 Q150.635 1375.52 150.635 1384.27 Q150.635 1393 147.556 1397.61 Q144.501 1402.19 138.691 1402.19 Q132.88 1402.19 129.802 1397.61 Q126.746 1393 126.746 1384.27 Q126.746 1375.52 129.802 1370.94 Q132.88 1366.33 138.691 1366.33 Z" fill="#000000" fill-rule="evenodd" fill-opacity="1" /><path clip-path="url(#clip330)" d="M 0 0 M155.704 1395.64 L160.589 1395.64 L160.589 1401.52 L155.704 1401.52 L155.704 1395.64 Z" fill="#000000" fill-rule="evenodd" fill-opacity="1" /><path clip-path="url(#clip330)" d="M 0 0 M175.658 1370.04 Q172.047 1370.04 170.218 1373.6 Q168.413 1377.14 168.413 1384.27 Q168.413 1391.38 170.218 1394.94 Q172.047 1398.49 175.658 1398.49 Q179.292 1398.49 181.098 1394.94 Q182.927 1391.38 182.927 1384.27 Q182.927 1377.14 181.098 1373.6 Q179.292 1370.04 175.658 1370.04 M175.658 1366.33 Q181.468 1366.33 184.524 1370.94 Q187.602 1375.52 187.602 1384.27 Q187.602 1393 184.524 1397.61 Q181.468 1402.19 175.658 1402.19 Q169.848 1402.19 166.769 1397.61 Q163.714 1393 163.714 1384.27 Q163.714 1375.52 166.769 1370.94 Q169.848 1366.33 175.658 1366.33 Z" fill="#000000" fill-rule="evenodd" fill-opacity="1" /><path clip-path="url(#clip330)" d="M 0 0 M139.917 1090.96 Q136.306 1090.96 134.478 1094.52 Q132.672 1098.06 132.672 1105.19 Q132.672 1112.3 134.478 1115.87 Q136.306 1119.41 139.917 1119.41 Q143.552 1119.41 145.357 1115.87 Q147.186 1112.3 147.186 1105.19 Q147.186 1098.06 145.357 1094.52 Q143.552 1090.96 139.917 1090.96 M139.917 1087.25 Q145.728 1087.25 148.783 1091.86 Q151.862 1096.44 151.862 1105.19 Q151.862 1113.92 148.783 1118.53 Q145.728 1123.11 139.917 1123.11 Q134.107 1123.11 131.029 1118.53 Q127.973 1113.92 127.973 1105.19 Q127.973 1096.44 131.029 1091.86 Q134.107 1087.25 139.917 1087.25 Z" fill="#000000" fill-rule="evenodd" fill-opacity="1" /><path clip-path="url(#clip330)" d="M 0 0 M156.931 1116.56 L161.816 1116.56 L161.816 1122.44 L156.931 1122.44 L156.931 1116.56 Z" fill="#000000" fill-rule="evenodd" fill-opacity="1" /><path clip-path="url(#clip330)" d="M 0 0 M167.695 1118.5 L175.334 1118.5 L175.334 1092.14 L167.024 1093.81 L167.024 1089.55 L175.288 1087.88 L179.964 1087.88 L179.964 1118.5 L187.602 1118.5 L187.602 1122.44 L167.695 1122.44 L167.695 1118.5 Z" fill="#000000" fill-rule="evenodd" fill-opacity="1" /><path clip-path="url(#clip330)" d="M 0 0 M140.288 811.879 Q136.677 811.879 134.848 815.444 Q133.043 818.985 133.043 826.115 Q133.043 833.221 134.848 836.786 Q136.677 840.328 140.288 840.328 Q143.922 840.328 145.728 836.786 Q147.556 833.221 147.556 826.115 Q147.556 818.985 145.728 815.444 Q143.922 811.879 140.288 811.879 M140.288 808.175 Q146.098 808.175 149.154 812.782 Q152.232 817.365 152.232 826.115 Q152.232 834.842 149.154 839.448 Q146.098 844.031 140.288 844.031 Q134.478 844.031 131.399 839.448 Q128.343 834.842 128.343 826.115 Q128.343 817.365 131.399 812.782 Q134.478 808.175 140.288 808.175 Z" fill="#000000" fill-rule="evenodd" fill-opacity="1" /><path clip-path="url(#clip330)" d="M 0 0 M157.302 837.481 L162.186 837.481 L162.186 843.36 L157.302 843.36 L157.302 837.481 Z" fill="#000000" fill-rule="evenodd" fill-opacity="1" /><path clip-path="url(#clip330)" d="M 0 0 M171.283 839.425 L187.602 839.425 L187.602 843.36 L165.658 843.36 L165.658 839.425 Q168.32 836.67 172.903 832.041 Q177.51 827.388 178.69 826.045 Q180.936 823.522 181.815 821.786 Q182.718 820.027 182.718 818.337 Q182.718 815.582 180.774 813.846 Q178.852 812.11 175.751 812.11 Q173.552 812.11 171.098 812.874 Q168.667 813.638 165.89 815.189 L165.89 810.467 Q168.714 809.333 171.167 808.754 Q173.621 808.175 175.658 808.175 Q181.028 808.175 184.223 810.86 Q187.417 813.545 187.417 818.036 Q187.417 820.166 186.607 822.087 Q185.82 823.985 183.714 826.578 Q183.135 827.249 180.033 830.467 Q176.931 833.661 171.283 839.425 Z" fill="#000000" fill-rule="evenodd" fill-opacity="1" /><path clip-path="url(#clip330)" d="M 0 0 M139.339 532.8 Q135.728 532.8 133.899 536.365 Q132.093 539.906 132.093 547.036 Q132.093 554.142 133.899 557.707 Q135.728 561.249 139.339 561.249 Q142.973 561.249 144.779 557.707 Q146.607 554.142 146.607 547.036 Q146.607 539.906 144.779 536.365 Q142.973 532.8 139.339 532.8 M139.339 529.096 Q145.149 529.096 148.204 533.703 Q151.283 538.286 151.283 547.036 Q151.283 555.763 148.204 560.369 Q145.149 564.952 139.339 564.952 Q133.529 564.952 130.45 560.369 Q127.394 555.763 127.394 547.036 Q127.394 538.286 130.45 533.703 Q133.529 529.096 139.339 529.096 Z" fill="#000000" fill-rule="evenodd" fill-opacity="1" /><path clip-path="url(#clip330)" d="M 0 0 M156.353 558.401 L161.237 558.401 L161.237 564.281 L156.353 564.281 L156.353 558.401 Z" fill="#000000" fill-rule="evenodd" fill-opacity="1" /><path clip-path="url(#clip330)" d="M 0 0 M180.473 545.647 Q183.829 546.364 185.704 548.633 Q187.602 550.901 187.602 554.235 Q187.602 559.351 184.084 562.151 Q180.565 564.952 174.084 564.952 Q171.908 564.952 169.593 564.513 Q167.302 564.096 164.848 563.239 L164.848 558.726 Q166.792 559.86 169.107 560.438 Q171.422 561.017 173.945 561.017 Q178.343 561.017 180.635 559.281 Q182.95 557.545 182.95 554.235 Q182.95 551.179 180.797 549.466 Q178.667 547.73 174.848 547.73 L170.82 547.73 L170.82 543.888 L175.033 543.888 Q178.482 543.888 180.311 542.522 Q182.139 541.133 182.139 538.54 Q182.139 535.878 180.241 534.466 Q178.366 533.031 174.848 533.031 Q172.927 533.031 170.728 533.448 Q168.528 533.865 165.89 534.744 L165.89 530.578 Q168.552 529.837 170.866 529.466 Q173.204 529.096 175.265 529.096 Q180.589 529.096 183.69 531.527 Q186.792 533.934 186.792 538.054 Q186.792 540.925 185.149 542.915 Q183.505 544.883 180.473 545.647 Z" fill="#000000" fill-rule="evenodd" fill-opacity="1" /><path clip-path="url(#clip330)" d="M 0 0 M138.205 253.721 Q134.593 253.721 132.765 257.285 Q130.959 260.827 130.959 267.957 Q130.959 275.063 132.765 278.628 Q134.593 282.17 138.205 282.17 Q141.839 282.17 143.644 278.628 Q145.473 275.063 145.473 267.957 Q145.473 260.827 143.644 257.285 Q141.839 253.721 138.205 253.721 M138.205 250.017 Q144.015 250.017 147.07 254.623 Q150.149 259.207 150.149 267.957 Q150.149 276.683 147.07 281.29 Q144.015 285.873 138.205 285.873 Q132.394 285.873 129.316 281.29 Q126.26 276.683 126.26 267.957 Q126.26 259.207 129.316 254.623 Q132.394 250.017 138.205 250.017 Z" fill="#000000" fill-rule="evenodd" fill-opacity="1" /><path clip-path="url(#clip330)" d="M 0 0 M155.218 279.322 L160.103 279.322 L160.103 285.202 L155.218 285.202 L155.218 279.322 Z" fill="#000000" fill-rule="evenodd" fill-opacity="1" /><path clip-path="url(#clip330)" d="M 0 0 M178.019 254.716 L166.214 273.165 L178.019 273.165 L178.019 254.716 M176.792 250.642 L182.672 250.642 L182.672 273.165 L187.602 273.165 L187.602 277.054 L182.672 277.054 L182.672 285.202 L178.019 285.202 L178.019 277.054 L162.417 277.054 L162.417 272.54 L176.792 250.642 Z" fill="#000000" fill-rule="evenodd" fill-opacity="1" /><path clip-path="url(#clip330)" d="M 0 0 M1017.03 1508.52 L1025.69 1508.52 L1046.76 1548.28 L1046.76 1508.52 L1053 1508.52 L1053 1556.04 L1044.34 1556.04 L1023.27 1516.29 L1023.27 1556.04 L1017.03 1556.04 L1017.03 1508.52 Z" fill="#000000" fill-rule="evenodd" fill-opacity="1" /><path clip-path="url(#clip330)" d="M 0 0 M1058.54 1541.98 L1058.54 1520.4 L1064.39 1520.4 L1064.39 1541.75 Q1064.39 1546.81 1066.37 1549.36 Q1068.34 1551.87 1072.29 1551.87 Q1077.03 1551.87 1079.77 1548.85 Q1082.53 1545.83 1082.53 1540.61 L1082.53 1520.4 L1088.39 1520.4 L1088.39 1556.04 L1082.53 1556.04 L1082.53 1550.57 Q1080.4 1553.82 1077.57 1555.41 Q1074.77 1556.97 1071.04 1556.97 Q1064.9 1556.97 1061.72 1553.15 Q1058.54 1549.33 1058.54 1541.98 M1073.27 1519.54 L1073.27 1519.54 Z" fill="#000000" fill-rule="evenodd" fill-opacity="1" /><path clip-path="url(#clip330)" d="M 0 0 M1122.29 1527.24 Q1124.48 1523.29 1127.54 1521.41 Q1130.6 1519.54 1134.73 1519.54 Q1140.3 1519.54 1143.33 1523.45 Q1146.35 1527.33 1146.35 1534.53 L1146.35 1556.04 L1140.46 1556.04 L1140.46 1534.72 Q1140.46 1529.59 1138.65 1527.11 Q1136.83 1524.63 1133.11 1524.63 Q1128.56 1524.63 1125.92 1527.65 Q1123.28 1530.68 1123.28 1535.9 L1123.28 1556.04 L1117.39 1556.04 L1117.39 1534.72 Q1117.39 1529.56 1115.57 1527.11 Q1113.76 1524.63 1109.97 1524.63 Q1105.48 1524.63 1102.84 1527.68 Q1100.2 1530.71 1100.2 1535.9 L1100.2 1556.04 L1094.31 1556.04 L1094.31 1520.4 L1100.2 1520.4 L1100.2 1525.93 Q1102.2 1522.66 1105.01 1521.1 Q1107.81 1519.54 1111.66 1519.54 Q1115.54 1519.54 1118.25 1521.51 Q1120.98 1523.48 1122.29 1527.24 Z" fill="#000000" fill-rule="evenodd" fill-opacity="1" /><path clip-path="url(#clip330)" d="M 0 0 M1178.08 1538.25 Q1178.08 1531.79 1175.41 1528.13 Q1172.77 1524.44 1168.12 1524.44 Q1163.47 1524.44 1160.8 1528.13 Q1158.16 1531.79 1158.16 1538.25 Q1158.16 1544.71 1160.8 1548.4 Q1163.47 1552.07 1168.12 1552.07 Q1172.77 1552.07 1175.41 1548.4 Q1178.08 1544.71 1178.08 1538.25 M1158.16 1525.81 Q1160.01 1522.62 1162.81 1521.1 Q1165.64 1519.54 1169.55 1519.54 Q1176.05 1519.54 1180.09 1524.69 Q1184.16 1529.85 1184.16 1538.25 Q1184.16 1546.65 1180.09 1551.81 Q1176.05 1556.97 1169.55 1556.97 Q1165.64 1556.97 1162.81 1555.44 Q1160.01 1553.88 1158.16 1550.7 L1158.16 1556.04 L1152.27 1556.04 L1152.27 1506.52 L1158.16 1506.52 L1158.16 1525.81 Z" fill="#000000" fill-rule="evenodd" fill-opacity="1" /><path clip-path="url(#clip330)" d="M 0 0 M1220.8 1536.76 L1220.8 1539.62 L1193.87 1539.62 Q1194.25 1545.67 1197.5 1548.85 Q1200.78 1552 1206.6 1552 Q1209.98 1552 1213.13 1551.17 Q1216.31 1550.35 1219.43 1548.69 L1219.43 1554.23 Q1216.28 1555.57 1212.97 1556.27 Q1209.66 1556.97 1206.25 1556.97 Q1197.72 1556.97 1192.73 1552 Q1187.76 1547.04 1187.76 1538.57 Q1187.76 1529.82 1192.47 1524.69 Q1197.21 1519.54 1205.23 1519.54 Q1212.43 1519.54 1216.6 1524.18 Q1220.8 1528.8 1220.8 1536.76 M1214.94 1535.04 Q1214.88 1530.23 1212.24 1527.37 Q1209.63 1524.5 1205.3 1524.5 Q1200.4 1524.5 1197.44 1527.27 Q1194.51 1530.04 1194.06 1535.07 L1214.94 1535.04 Z" fill="#000000" fill-rule="evenodd" fill-opacity="1" /><path clip-path="url(#clip330)" d="M 0 0 M1247.6 1525.87 Q1246.61 1525.3 1245.43 1525.04 Q1244.29 1524.76 1242.89 1524.76 Q1237.92 1524.76 1235.25 1528 Q1232.61 1531.22 1232.61 1537.27 L1232.61 1556.04 L1226.72 1556.04 L1226.72 1520.4 L1232.61 1520.4 L1232.61 1525.93 Q1234.45 1522.69 1237.41 1521.13 Q1240.37 1519.54 1244.61 1519.54 Q1245.21 1519.54 1245.94 1519.63 Q1246.67 1519.7 1247.57 1519.85 L1247.6 1525.87 Z" fill="#000000" fill-rule="evenodd" fill-opacity="1" /><path clip-path="url(#clip330)" d="M 0 0 M1288.27 1524.5 Q1283.56 1524.5 1280.83 1528.19 Q1278.09 1531.85 1278.09 1538.25 Q1278.09 1544.65 1280.79 1548.34 Q1283.53 1552 1288.27 1552 Q1292.95 1552 1295.69 1548.31 Q1298.43 1544.62 1298.43 1538.25 Q1298.43 1531.92 1295.69 1528.23 Q1292.95 1524.5 1288.27 1524.5 M1288.27 1519.54 Q1295.91 1519.54 1300.27 1524.5 Q1304.63 1529.47 1304.63 1538.25 Q1304.63 1547 1300.27 1552 Q1295.91 1556.97 1288.27 1556.97 Q1280.6 1556.97 1276.24 1552 Q1271.91 1547 1271.91 1538.25 Q1271.91 1529.47 1276.24 1524.5 Q1280.6 1519.54 1288.27 1519.54 Z" fill="#000000" fill-rule="evenodd" fill-opacity="1" /><path clip-path="url(#clip330)" d="M 0 0 M1328.82 1506.52 L1328.82 1511.39 L1323.22 1511.39 Q1320.07 1511.39 1318.83 1512.66 Q1317.62 1513.93 1317.62 1517.24 L1317.62 1520.4 L1327.26 1520.4 L1327.26 1524.95 L1317.62 1524.95 L1317.62 1556.04 L1311.73 1556.04 L1311.73 1524.95 L1306.13 1524.95 L1306.13 1520.4 L1311.73 1520.4 L1311.73 1517.91 Q1311.73 1511.96 1314.5 1509.26 Q1317.27 1506.52 1323.29 1506.52 L1328.82 1506.52 Z" fill="#000000" fill-rule="evenodd" fill-opacity="1" /><path clip-path="url(#clip330)" d="M 0 0 M1384.43 1510.08 L1384.43 1516.35 Q1380.77 1514.6 1377.52 1513.74 Q1374.28 1512.88 1371.25 1512.88 Q1366 1512.88 1363.14 1514.92 Q1360.3 1516.96 1360.3 1520.71 Q1360.3 1523.87 1362.18 1525.49 Q1364.09 1527.08 1369.37 1528.07 L1373.26 1528.86 Q1380.45 1530.23 1383.86 1533.7 Q1387.29 1537.14 1387.29 1542.93 Q1387.29 1549.84 1382.65 1553.4 Q1378.03 1556.97 1369.09 1556.97 Q1365.71 1556.97 1361.89 1556.2 Q1358.11 1555.44 1354.03 1553.94 L1354.03 1547.32 Q1357.95 1549.52 1361.7 1550.63 Q1365.46 1551.75 1369.09 1551.75 Q1374.59 1551.75 1377.59 1549.58 Q1380.58 1547.42 1380.58 1543.41 Q1380.58 1539.91 1378.41 1537.93 Q1376.28 1535.96 1371.38 1534.97 L1367.46 1534.21 Q1360.27 1532.78 1357.06 1529.72 Q1353.84 1526.67 1353.84 1521.22 Q1353.84 1514.92 1358.27 1511.29 Q1362.72 1507.66 1370.52 1507.66 Q1373.86 1507.66 1377.33 1508.27 Q1380.8 1508.87 1384.43 1510.08 Z" fill="#000000" fill-rule="evenodd" fill-opacity="1" /><path clip-path="url(#clip330)" d="M 0 0 M1393.44 1520.4 L1399.29 1520.4 L1399.29 1556.04 L1393.44 1556.04 L1393.44 1520.4 M1393.44 1506.52 L1399.29 1506.52 L1399.29 1513.93 L1393.44 1513.93 L1393.44 1506.52 Z" fill="#000000" fill-rule="evenodd" fill-opacity="1" /><path clip-path="url(#clip330)" d="M 0 0 M1428.89 1537.81 Q1428.89 1531.44 1426.25 1527.94 Q1423.64 1524.44 1418.9 1524.44 Q1414.19 1524.44 1411.55 1527.94 Q1408.94 1531.44 1408.94 1537.81 Q1408.94 1544.14 1411.55 1547.64 Q1414.19 1551.14 1418.9 1551.14 Q1423.64 1551.14 1426.25 1547.64 Q1428.89 1544.14 1428.89 1537.81 M1434.75 1551.62 Q1434.75 1560.72 1430.71 1565.15 Q1426.66 1569.6 1418.33 1569.6 Q1415.24 1569.6 1412.5 1569.13 Q1409.76 1568.68 1407.19 1567.72 L1407.19 1562.03 Q1409.76 1563.43 1412.28 1564.1 Q1414.79 1564.76 1417.4 1564.76 Q1423.16 1564.76 1426.03 1561.74 Q1428.89 1558.75 1428.89 1552.67 L1428.89 1549.77 Q1427.08 1552.92 1424.25 1554.48 Q1421.41 1556.04 1417.47 1556.04 Q1410.91 1556.04 1406.9 1551.05 Q1402.89 1546.05 1402.89 1537.81 Q1402.89 1529.53 1406.9 1524.53 Q1410.91 1519.54 1417.47 1519.54 Q1421.41 1519.54 1424.25 1521.1 Q1427.08 1522.66 1428.89 1525.81 L1428.89 1520.4 L1434.75 1520.4 L1434.75 1551.62 Z" fill="#000000" fill-rule="evenodd" fill-opacity="1" /><path clip-path="url(#clip330)" d="M 0 0 M1470.52 1534.53 L1470.52 1556.04 L1464.67 1556.04 L1464.67 1534.72 Q1464.67 1529.66 1462.69 1527.14 Q1460.72 1524.63 1456.77 1524.63 Q1452.03 1524.63 1449.29 1527.65 Q1446.56 1530.68 1446.56 1535.9 L1446.56 1556.04 L1440.67 1556.04 L1440.67 1520.4 L1446.56 1520.4 L1446.56 1525.93 Q1448.66 1522.72 1451.49 1521.13 Q1454.36 1519.54 1458.08 1519.54 Q1464.22 1519.54 1467.37 1523.36 Q1470.52 1527.14 1470.52 1534.53 Z" fill="#000000" fill-rule="evenodd" fill-opacity="1" /><path clip-path="url(#clip330)" d="M 0 0 M1492.87 1538.12 Q1485.77 1538.12 1483.03 1539.75 Q1480.3 1541.37 1480.3 1545.29 Q1480.3 1548.4 1482.33 1550.25 Q1484.4 1552.07 1487.93 1552.07 Q1492.8 1552.07 1495.73 1548.63 Q1498.69 1545.16 1498.69 1539.43 L1498.69 1538.12 L1492.87 1538.12 M1504.55 1535.71 L1504.55 1556.04 L1498.69 1556.04 L1498.69 1550.63 Q1496.69 1553.88 1493.7 1555.44 Q1490.7 1556.97 1486.38 1556.97 Q1480.9 1556.97 1477.65 1553.91 Q1474.44 1550.82 1474.44 1545.67 Q1474.44 1539.65 1478.45 1536.6 Q1482.49 1533.54 1490.48 1533.54 L1498.69 1533.54 L1498.69 1532.97 Q1498.69 1528.93 1496.02 1526.73 Q1493.38 1524.5 1488.57 1524.5 Q1485.52 1524.5 1482.62 1525.23 Q1479.72 1525.97 1477.05 1527.43 L1477.05 1522.02 Q1480.26 1520.78 1483.29 1520.17 Q1486.31 1519.54 1489.18 1519.54 Q1496.91 1519.54 1500.73 1523.55 Q1504.55 1527.56 1504.55 1535.71 Z" fill="#000000" fill-rule="evenodd" fill-opacity="1" /><path clip-path="url(#clip330)" d="M 0 0 M1510.69 1506.52 L1516.55 1506.52 L1516.55 1556.04 L1510.69 1556.04 L1510.69 1506.52 Z" fill="#000000" fill-rule="evenodd" fill-opacity="1" /><path clip-path="url(#clip330)" d="M 0 0 M1545.42 1521.45 L1545.42 1526.98 Q1542.93 1525.71 1540.26 1525.07 Q1537.59 1524.44 1534.72 1524.44 Q1530.36 1524.44 1528.17 1525.77 Q1526 1527.11 1526 1529.79 Q1526 1531.82 1527.56 1533 Q1529.12 1534.15 1533.83 1535.2 L1535.84 1535.64 Q1542.08 1536.98 1544.68 1539.43 Q1547.33 1541.85 1547.33 1546.21 Q1547.33 1551.17 1543.38 1554.07 Q1539.47 1556.97 1532.59 1556.97 Q1529.73 1556.97 1526.61 1556.39 Q1523.52 1555.85 1520.08 1554.74 L1520.08 1548.69 Q1523.33 1550.38 1526.48 1551.24 Q1529.63 1552.07 1532.72 1552.07 Q1536.86 1552.07 1539.08 1550.66 Q1541.31 1549.23 1541.31 1546.65 Q1541.31 1544.27 1539.69 1542.99 Q1538.1 1541.72 1532.65 1540.54 L1530.62 1540.07 Q1525.17 1538.92 1522.76 1536.56 Q1520.34 1534.18 1520.34 1530.04 Q1520.34 1525.01 1523.9 1522.27 Q1527.47 1519.54 1534.02 1519.54 Q1537.27 1519.54 1540.13 1520.01 Q1543 1520.49 1545.42 1521.45 Z" fill="#000000" fill-rule="evenodd" fill-opacity="1" /><path clip-path="url(#clip330)" d="M 0 0 M40.4842 1084.69 L40.4842 1057.38 L45.895 1057.38 L45.895 1078.26 L59.8996 1078.26 L59.8996 1059.42 L65.3104 1059.42 L65.3104 1078.26 L88.0042 1078.26 L88.0042 1084.69 L40.4842 1084.69 Z" fill="#000000" fill-rule="evenodd" fill-opacity="1" /><path clip-path="url(#clip330)" d="M 0 0 M57.8307 1035.32 Q57.2578 1036.31 57.0032 1037.49 Q56.7167 1038.63 56.7167 1040.03 Q56.7167 1045 59.9632 1047.67 Q63.1779 1050.31 69.2253 1050.31 L88.0042 1050.31 L88.0042 1056.2 L52.3562 1056.2 L52.3562 1050.31 L57.8944 1050.31 Q54.6479 1048.47 53.0883 1045.51 Q51.4968 1042.55 51.4968 1038.32 Q51.4968 1037.71 51.5923 1036.98 Q51.656 1036.25 51.8151 1035.36 L57.8307 1035.32 Z" fill="#000000" fill-rule="evenodd" fill-opacity="1" /><path clip-path="url(#clip330)" d="M 0 0 M68.7161 1000.12 L71.5806 1000.12 L71.5806 1027.05 Q77.6281 1026.67 80.8109 1023.42 Q83.9619 1020.14 83.9619 1014.32 Q83.9619 1010.94 83.1344 1007.79 Q82.3069 1004.61 80.6518 1001.49 L86.1899 1001.49 Q87.5267 1004.64 88.227 1007.95 Q88.9272 1011.26 88.9272 1014.67 Q88.9272 1023.2 83.9619 1028.19 Q78.9967 1033.16 70.5303 1033.16 Q61.7774 1033.16 56.6531 1028.45 Q51.4968 1023.71 51.4968 1015.69 Q51.4968 1008.49 56.1438 1004.32 Q60.7589 1000.12 68.7161 1000.12 M66.9973 1005.98 Q62.1912 1006.04 59.3266 1008.68 Q56.4621 1011.29 56.4621 1015.62 Q56.4621 1020.52 59.2312 1023.48 Q62.0002 1026.41 67.0292 1026.86 L66.9973 1005.98 Z" fill="#000000" fill-rule="evenodd" fill-opacity="1" /><path clip-path="url(#clip330)" d="M 0 0 M70.212 990.477 Q76.6732 990.477 80.3653 987.835 Q84.0256 985.161 84.0256 980.514 Q84.0256 975.868 80.3653 973.194 Q76.6732 970.52 70.212 970.52 Q63.7508 970.52 60.0905 973.194 Q56.3984 975.868 56.3984 980.514 Q56.3984 985.161 60.0905 987.835 Q63.7508 990.477 70.212 990.477 M82.657 970.52 Q85.8398 972.366 87.3994 975.199 Q88.9272 978 88.9272 981.947 Q88.9272 988.408 83.771 992.482 Q78.6147 996.524 70.212 996.524 Q61.8093 996.524 56.6531 992.482 Q51.4968 988.408 51.4968 981.947 Q51.4968 978 53.0564 975.199 Q54.5842 972.366 57.7671 970.52 L52.3562 970.52 L52.3562 964.664 L101.563 964.664 L101.563 970.52 L82.657 970.52 Z" fill="#000000" fill-rule="evenodd" fill-opacity="1" /><path clip-path="url(#clip330)" d="M 0 0 M73.9359 959.126 L52.3562 959.126 L52.3562 953.269 L73.7131 953.269 Q78.7739 953.269 81.3202 951.296 Q83.8346 949.323 83.8346 945.376 Q83.8346 940.633 80.8109 937.896 Q77.7872 935.127 72.5673 935.127 L52.3562 935.127 L52.3562 929.271 L88.0042 929.271 L88.0042 935.127 L82.5296 935.127 Q85.7762 937.259 87.3676 940.092 Q88.9272 942.893 88.9272 946.617 Q88.9272 952.76 85.1078 955.943 Q81.2883 959.126 73.9359 959.126 M51.4968 944.389 L51.4968 944.389 Z" fill="#000000" fill-rule="evenodd" fill-opacity="1" /><path clip-path="url(#clip330)" d="M 0 0 M68.7161 892.636 L71.5806 892.636 L71.5806 919.563 Q77.6281 919.181 80.8109 915.934 Q83.9619 912.656 83.9619 906.831 Q83.9619 903.458 83.1344 900.307 Q82.3069 897.124 80.6518 894.005 L86.1899 894.005 Q87.5267 897.156 88.227 900.466 Q88.9272 903.776 88.9272 907.182 Q88.9272 915.712 83.9619 920.709 Q78.9967 925.674 70.5303 925.674 Q61.7774 925.674 56.6531 920.963 Q51.4968 916.221 51.4968 908.2 Q51.4968 901.007 56.1438 896.837 Q60.7589 892.636 68.7161 892.636 M66.9973 898.492 Q62.1912 898.556 59.3266 901.198 Q56.4621 903.808 56.4621 908.136 Q56.4621 913.038 59.2312 915.998 Q62.0002 918.926 67.0292 919.372 L66.9973 898.492 Z" fill="#000000" fill-rule="evenodd" fill-opacity="1" /><path clip-path="url(#clip330)" d="M 0 0 M66.4881 856.861 L88.0042 856.861 L88.0042 862.717 L66.679 862.717 Q61.6183 862.717 59.1038 864.69 Q56.5894 866.664 56.5894 870.611 Q56.5894 875.353 59.6131 878.09 Q62.6368 880.828 67.8567 880.828 L88.0042 880.828 L88.0042 886.716 L52.3562 886.716 L52.3562 880.828 L57.8944 880.828 Q54.6797 878.727 53.0883 875.894 Q51.4968 873.03 51.4968 869.306 Q51.4968 863.163 55.3163 860.012 Q59.1038 856.861 66.4881 856.861 Z" fill="#000000" fill-rule="evenodd" fill-opacity="1" /><path clip-path="url(#clip330)" d="M 0 0 M53.7248 825.064 L59.1993 825.064 Q57.8307 827.547 57.1623 830.061 Q56.4621 832.544 56.4621 835.09 Q56.4621 840.787 60.0905 843.938 Q63.6872 847.089 70.212 847.089 Q76.7369 847.089 80.3653 843.938 Q83.9619 840.787 83.9619 835.09 Q83.9619 832.544 83.2935 830.061 Q82.5933 827.547 81.2247 825.064 L86.6355 825.064 Q87.7814 827.515 88.3543 830.156 Q88.9272 832.766 88.9272 835.726 Q88.9272 843.779 83.8664 848.522 Q78.8057 853.264 70.212 853.264 Q61.491 853.264 56.4939 848.49 Q51.4968 843.684 51.4968 835.345 Q51.4968 832.639 52.0697 830.061 Q52.6108 827.483 53.7248 825.064 Z" fill="#000000" fill-rule="evenodd" fill-opacity="1" /><path clip-path="url(#clip330)" d="M 0 0 M91.3143 804.089 Q97.68 806.572 99.6216 808.927 Q101.563 811.282 101.563 815.229 L101.563 819.908 L96.6615 819.908 L96.6615 816.47 Q96.6615 814.051 95.5157 812.714 Q94.3699 811.378 90.1048 809.754 L87.4312 808.704 L52.3562 823.122 L52.3562 816.916 L80.238 805.776 L52.3562 794.636 L52.3562 788.429 L91.3143 804.089 Z" fill="#000000" fill-rule="evenodd" fill-opacity="1" /><path clip-path="url(#clip330)" d="M 0 0 M88.0042 749.057 L40.4842 767.2 L40.4842 760.484 L80.4926 745.429 L40.4842 730.342 L40.4842 723.658 L88.0042 741.769 L88.0042 749.057 Z" fill="#000000" fill-rule="evenodd" fill-opacity="1" /><path clip-path="url(#clip330)" d="M 0 0 M70.0847 706.375 Q70.0847 713.473 71.7079 716.21 Q73.3312 718.948 77.2461 718.948 Q80.3653 718.948 82.2114 716.911 Q84.0256 714.842 84.0256 711.309 Q84.0256 706.439 80.5881 703.511 Q77.1188 700.551 71.3897 700.551 L70.0847 700.551 L70.0847 706.375 M67.6657 694.694 L88.0042 694.694 L88.0042 700.551 L82.5933 700.551 Q85.8398 702.556 87.3994 705.548 Q88.9272 708.54 88.9272 712.868 Q88.9272 718.343 85.8716 721.589 Q82.7843 724.804 77.6281 724.804 Q71.6125 724.804 68.5569 720.794 Q65.5014 716.751 65.5014 708.762 L65.5014 700.551 L64.9285 700.551 Q60.8862 700.551 58.6901 703.224 Q56.4621 705.866 56.4621 710.672 Q56.4621 713.728 57.1941 716.624 Q57.9262 719.521 59.3903 722.194 L53.9795 722.194 Q52.7381 718.979 52.1334 715.956 Q51.4968 712.932 51.4968 710.067 Q51.4968 702.333 55.5072 698.514 Q59.5176 694.694 67.6657 694.694 Z" fill="#000000" fill-rule="evenodd" fill-opacity="1" /><path clip-path="url(#clip330)" d="M 0 0 M38.479 688.551 L38.479 682.695 L88.0042 682.695 L88.0042 688.551 L38.479 688.551 Z" fill="#000000" fill-rule="evenodd" fill-opacity="1" /><path clip-path="url(#clip330)" d="M 0 0 M73.9359 677.157 L52.3562 677.157 L52.3562 671.3 L73.7131 671.3 Q78.7739 671.3 81.3202 669.327 Q83.8346 667.354 83.8346 663.407 Q83.8346 658.664 80.8109 655.927 Q77.7872 653.158 72.5673 653.158 L52.3562 653.158 L52.3562 647.302 L88.0042 647.302 L88.0042 653.158 L82.5296 653.158 Q85.7762 655.291 87.3676 658.123 Q88.9272 660.924 88.9272 664.648 Q88.9272 670.791 85.1078 673.974 Q81.2883 677.157 73.9359 677.157 M51.4968 662.42 L51.4968 662.42 Z" fill="#000000" fill-rule="evenodd" fill-opacity="1" /><path clip-path="url(#clip330)" d="M 0 0 M68.7161 610.667 L71.5806 610.667 L71.5806 637.594 Q77.6281 637.212 80.8109 633.965 Q83.9619 630.687 83.9619 624.862 Q83.9619 621.489 83.1344 618.338 Q82.3069 615.155 80.6518 612.036 L86.1899 612.036 Q87.5267 615.187 88.227 618.497 Q88.9272 621.807 88.9272 625.213 Q88.9272 633.743 83.9619 638.74 Q78.9967 643.705 70.5303 643.705 Q61.7774 643.705 56.6531 638.994 Q51.4968 634.252 51.4968 626.231 Q51.4968 619.038 56.1438 614.868 Q60.7589 610.667 68.7161 610.667 M66.9973 616.523 Q62.1912 616.587 59.3266 619.229 Q56.4621 621.839 56.4621 626.167 Q56.4621 631.069 59.2312 634.029 Q62.0002 636.957 67.0292 637.403 L66.9973 616.523 Z" fill="#000000" fill-rule="evenodd" fill-opacity="1" /><path clip-path="url(#clip330)" d="M 0 0 M44.8447 564.261 Q44.8447 571.263 50.0645 575.401 Q55.2844 579.507 64.2919 579.507 Q73.2675 579.507 78.4874 575.401 Q83.7073 571.263 83.7073 564.261 Q83.7073 557.259 78.4874 553.185 Q73.2675 549.079 64.2919 549.079 Q55.2844 549.079 50.0645 553.185 Q44.8447 557.259 44.8447 564.261 M39.6248 564.261 Q39.6248 554.267 46.3406 548.283 Q53.0246 542.299 64.2919 542.299 Q75.5274 542.299 82.2432 548.283 Q88.9272 554.267 88.9272 564.261 Q88.9272 574.287 82.2432 580.302 Q75.5592 586.286 64.2919 586.286 Q53.0246 586.286 46.3406 580.302 Q39.6248 574.287 39.6248 564.261 Z" fill="#000000" fill-rule="evenodd" fill-opacity="1" /><path clip-path="url(#clip330)" d="M 0 0 M53.7248 510.503 L59.1993 510.503 Q57.8307 512.985 57.1623 515.5 Q56.4621 517.982 56.4621 520.529 Q56.4621 526.226 60.0905 529.377 Q63.6872 532.528 70.212 532.528 Q76.7369 532.528 80.3653 529.377 Q83.9619 526.226 83.9619 520.529 Q83.9619 517.982 83.2935 515.5 Q82.5933 512.985 81.2247 510.503 L86.6355 510.503 Q87.7814 512.953 88.3543 515.595 Q88.9272 518.205 88.9272 521.165 Q88.9272 529.218 83.8664 533.96 Q78.8057 538.703 70.212 538.703 Q61.491 538.703 56.4939 533.928 Q51.4968 529.122 51.4968 520.783 Q51.4968 518.078 52.0697 515.5 Q52.6108 512.921 53.7248 510.503 Z" fill="#000000" fill-rule="evenodd" fill-opacity="1" /><path clip-path="url(#clip330)" d="M 0 0 M53.7248 478.706 L59.1993 478.706 Q57.8307 481.188 57.1623 483.703 Q56.4621 486.186 56.4621 488.732 Q56.4621 494.429 60.0905 497.58 Q63.6872 500.731 70.212 500.731 Q76.7369 500.731 80.3653 497.58 Q83.9619 494.429 83.9619 488.732 Q83.9619 486.186 83.2935 483.703 Q82.5933 481.188 81.2247 478.706 L86.6355 478.706 Q87.7814 481.157 88.3543 483.798 Q88.9272 486.408 88.9272 489.368 Q88.9272 497.421 83.8664 502.163 Q78.8057 506.906 70.212 506.906 Q61.491 506.906 56.4939 502.132 Q51.4968 497.326 51.4968 488.986 Q51.4968 486.281 52.0697 483.703 Q52.6108 481.125 53.7248 478.706 Z" fill="#000000" fill-rule="evenodd" fill-opacity="1" /><path clip-path="url(#clip330)" d="M 0 0 M73.9359 473.168 L52.3562 473.168 L52.3562 467.311 L73.7131 467.311 Q78.7739 467.311 81.3202 465.338 Q83.8346 463.364 83.8346 459.418 Q83.8346 454.675 80.8109 451.938 Q77.7872 449.169 72.5673 449.169 L52.3562 449.169 L52.3562 443.312 L88.0042 443.312 L88.0042 449.169 L82.5296 449.169 Q85.7762 451.301 87.3676 454.134 Q88.9272 456.935 88.9272 460.659 Q88.9272 466.802 85.1078 469.985 Q81.2883 473.168 73.9359 473.168 M51.4968 458.431 L51.4968 458.431 Z" fill="#000000" fill-rule="evenodd" fill-opacity="1" /><path clip-path="url(#clip330)" d="M 0 0 M57.8307 416.513 Q57.2578 417.5 57.0032 418.677 Q56.7167 419.823 56.7167 421.223 Q56.7167 426.189 59.9632 428.862 Q63.1779 431.504 69.2253 431.504 L88.0042 431.504 L88.0042 437.392 L52.3562 437.392 L52.3562 431.504 L57.8944 431.504 Q54.6479 429.658 53.0883 426.698 Q51.4968 423.738 51.4968 419.505 Q51.4968 418.9 51.5923 418.168 Q51.656 417.436 51.8151 416.545 L57.8307 416.513 Z" fill="#000000" fill-rule="evenodd" fill-opacity="1" /><path clip-path="url(#clip330)" d="M 0 0 M53.4065 387.644 L58.9447 387.644 Q57.6716 390.127 57.035 392.801 Q56.3984 395.474 56.3984 398.339 Q56.3984 402.699 57.7352 404.895 Q59.072 407.06 61.7456 407.06 Q63.7826 407.06 64.9603 405.5 Q66.1061 403.941 67.1565 399.23 L67.6021 397.225 Q68.9389 390.986 71.3897 388.376 Q73.8086 385.735 78.1691 385.735 Q83.1344 385.735 86.0308 389.681 Q88.9272 393.596 88.9272 400.471 Q88.9272 403.336 88.3543 406.455 Q87.8132 409.542 86.6992 412.98 L80.6518 412.98 Q82.3387 409.733 83.198 406.582 Q84.0256 403.431 84.0256 400.344 Q84.0256 396.206 82.6251 393.978 Q81.1929 391.75 78.6147 391.75 Q76.2276 391.75 74.9545 393.374 Q73.6813 394.965 72.5037 400.408 L72.0262 402.445 Q70.8804 407.887 68.5251 410.306 Q66.138 412.725 62.0002 412.725 Q56.9713 412.725 54.2341 409.16 Q51.4968 405.596 51.4968 399.039 Q51.4968 395.792 51.9743 392.928 Q52.4517 390.063 53.4065 387.644 Z" fill="#000000" fill-rule="evenodd" fill-opacity="1" /><path clip-path="url(#clip332)" d="
M329.37 233.986 L329.37 1384.24 L873.832 1384.24 L873.832 233.986 L329.37 233.986 L329.37 233.986  Z
  " fill="#6495ed" fill-rule="evenodd" fill-opacity="1"/>
<polyline clip-path="url(#clip332)" style="stroke:#000000; stroke-width:4; stroke-opacity:1; fill:none" points="
  329.37,233.986 329.37,1384.24 873.832,1384.24 873.832,233.986 329.37,233.986 
  "/>
<path clip-path="url(#clip332)" d="
M1009.95 101.368 L1009.95 1384.24 L1554.41 1384.24 L1554.41 101.368 L1009.95 101.368 L1009.95 101.368  Z
  " fill="#6495ed" fill-rule="evenodd" fill-opacity="1"/>
<polyline clip-path="url(#clip332)" style="stroke:#000000; stroke-width:4; stroke-opacity:1; fill:none" points="
  1009.95,101.368 1009.95,1384.24 1554.41,1384.24 1554.41,101.368 1009.95,101.368 
  "/>
<path clip-path="url(#clip332)" d="
M1690.53 1026.68 L1690.53 1384.24 L2234.99 1384.24 L2234.99 1026.68 L1690.53 1026.68 L1690.53 1026.68  Z
  " fill="#6495ed" fill-rule="evenodd" fill-opacity="1"/>
<polyline clip-path="url(#clip332)" style="stroke:#000000; stroke-width:4; stroke-opacity:1; fill:none" points="
  1690.53,1026.68 1690.53,1384.24 2234.99,1384.24 2234.99,1026.68 1690.53,1026.68 
  "/>
<path clip-path="url(#clip332)" d="
M329.37 233.986 L329.37 252.746 L873.832 252.746 L873.832 233.986 L329.37 233.986 L329.37 233.986  Z
  " fill="#008000" fill-rule="evenodd" fill-opacity="0.5"/>
<polyline clip-path="url(#clip332)" style="stroke:#000000; stroke-width:4; stroke-opacity:1; fill:none" points="
  329.37,233.986 329.37,252.746 873.832,252.746 873.832,233.986 329.37,233.986 
  "/>
<path clip-path="url(#clip332)" d="
M1009.95 101.368 L1009.95 117.443 L1554.41 117.443 L1554.41 101.368 L1009.95 101.368 L1009.95 101.368  Z
  " fill="#008000" fill-rule="evenodd" fill-opacity="0.5"/>
<polyline clip-path="url(#clip332)" style="stroke:#000000; stroke-width:4; stroke-opacity:1; fill:none" points="
  1009.95,101.368 1009.95,117.443 1554.41,117.443 1554.41,101.368 1009.95,101.368 
  "/>
<path clip-path="url(#clip332)" d="
M1690.53 1026.68 L1690.53 1038.52 L2234.99 1038.52 L2234.99 1026.68 L1690.53 1026.68 L1690.53 1026.68  Z
  " fill="#008000" fill-rule="evenodd" fill-opacity="0.5"/>
<polyline clip-path="url(#clip332)" style="stroke:#000000; stroke-width:4; stroke-opacity:1; fill:none" points="
  1690.53,1026.68 1690.53,1038.52 2234.99,1038.52 2234.99,1026.68 1690.53,1026.68 
  "/>
<path clip-path="url(#clip332)" d="
M329.37 233.986 L329.37 214.897 L873.832 214.897 L873.832 233.986 L329.37 233.986 L329.37 233.986  Z
  " fill="#008000" fill-rule="evenodd" fill-opacity="0.5"/>
<polyline clip-path="url(#clip332)" style="stroke:#000000; stroke-width:4; stroke-opacity:1; fill:none" points="
  329.37,233.986 329.37,214.897 873.832,214.897 873.832,233.986 329.37,233.986 
  "/>
<path clip-path="url(#clip332)" d="
M1009.95 101.368 L1009.95 86.1857 L1554.41 86.1857 L1554.41 101.368 L1009.95 101.368 L1009.95 101.368  Z
  " fill="#008000" fill-rule="evenodd" fill-opacity="0.5"/>
<polyline clip-path="url(#clip332)" style="stroke:#000000; stroke-width:4; stroke-opacity:1; fill:none" points="
  1009.95,101.368 1009.95,86.1857 1554.41,86.1857 1554.41,101.368 1009.95,101.368 
  "/>
<path clip-path="url(#clip332)" d="
M1690.53 1026.68 L1690.53 1014.51 L2234.99 1014.51 L2234.99 1026.68 L1690.53 1026.68 L1690.53 1026.68  Z
  " fill="#008000" fill-rule="evenodd" fill-opacity="0.5"/>
<polyline clip-path="url(#clip332)" style="stroke:#000000; stroke-width:4; stroke-opacity:1; fill:none" points="
  1690.53,1026.68 1690.53,1014.51 2234.99,1014.51 2234.99,1026.68 1690.53,1026.68 
  "/>
<polyline clip-path="url(#clip332)" style="stroke:#000000; stroke-width:4; stroke-opacity:1; fill:none" points="
  601.601,137.163 601.601,119.601 
  "/>
<polyline clip-path="url(#clip332)" style="stroke:#000000; stroke-width:4; stroke-opacity:1; fill:none" points="
  1282.18,332.305 1282.18,315.17 
  "/>
<polyline clip-path="url(#clip332)" style="stroke:#000000; stroke-width:4; stroke-opacity:1; fill:none" points="
  1962.76,916.434 1962.76,903.174 
  "/>
<line clip-path="url(#clip332)" x1="617.601" y1="137.163" x2="585.601" y2="137.163" style="stroke:#000000; stroke-width:3.2; stroke-opacity:1"/>
<line clip-path="url(#clip332)" x1="617.601" y1="119.601" x2="585.601" y2="119.601" style="stroke:#000000; stroke-width:3.2; stroke-opacity:1"/>
<line clip-path="url(#clip332)" x1="1298.18" y1="332.305" x2="1266.18" y2="332.305" style="stroke:#000000; stroke-width:3.2; stroke-opacity:1"/>
<line clip-path="url(#clip332)" x1="1298.18" y1="315.17" x2="1266.18" y2="315.17" style="stroke:#000000; stroke-width:3.2; stroke-opacity:1"/>
<line clip-path="url(#clip332)" x1="1978.76" y1="916.434" x2="1946.76" y2="916.434" style="stroke:#000000; stroke-width:3.2; stroke-opacity:1"/>
<line clip-path="url(#clip332)" x1="1978.76" y1="903.174" x2="1946.76" y2="903.174" style="stroke:#000000; stroke-width:3.2; stroke-opacity:1"/>
<circle clip-path="url(#clip332)" cx="601.601" cy="128.382" r="14" fill="#000000" fill-rule="evenodd" fill-opacity="1" stroke="none"/>
<circle clip-path="url(#clip332)" cx="1282.18" cy="323.738" r="14" fill="#000000" fill-rule="evenodd" fill-opacity="1" stroke="none"/>
<circle clip-path="url(#clip332)" cx="1962.76" cy="909.804" r="14" fill="#000000" fill-rule="evenodd" fill-opacity="1" stroke="none"/>
</svg>
