<?xml version="1.0" encoding="utf-8"?>
<svg xmlns="http://www.w3.org/2000/svg" xmlns:xlink="http://www.w3.org/1999/xlink" width="600" height="400" viewBox="0 0 2400 1600">
<defs>
  <clipPath id="clip290">
    <rect x="0" y="0" width="2400" height="1600"/>
  </clipPath>
</defs>
<path clip-path="url(#clip290)" d="
M0 1600 L2400 1600 L2400 0 L0 0  Z
  " fill="#ffffff" fill-rule="evenodd" fill-opacity="1"/>
<defs>
  <clipPath id="clip291">
    <rect x="480" y="0" width="1681" height="1600"/>
  </clipPath>
</defs>
<path clip-path="url(#clip290)" d="
M175.348 1486.45 L2352.76 1486.45 L2352.76 123.472 L175.348 123.472  Z
  " fill="#ffffff" fill-rule="evenodd" fill-opacity="1"/>
<defs>
  <clipPath id="clip292">
    <rect x="175" y="123" width="2178" height="1364"/>
  </clipPath>
</defs>
<polyline clip-path="url(#clip292)" style="stroke:#000000; stroke-width:2; stroke-opacity:0.1; fill:none" points="
  236.973,1486.45 236.973,123.472 
  "/>
<polyline clip-path="url(#clip292)" style="stroke:#000000; stroke-width:2; stroke-opacity:0.1; fill:none" points="
  750.512,1486.45 750.512,123.472 
  "/>
<polyline clip-path="url(#clip292)" style="stroke:#000000; stroke-width:2; stroke-opacity:0.1; fill:none" points="
  1264.05,1486.45 1264.05,123.472 
  "/>
<polyline clip-path="url(#clip292)" style="stroke:#000000; stroke-width:2; stroke-opacity:0.1; fill:none" points="
  1777.59,1486.45 1777.59,123.472 
  "/>
<polyline clip-path="url(#clip292)" style="stroke:#000000; stroke-width:2; stroke-opacity:0.1; fill:none" points="
  2291.13,1486.45 2291.13,123.472 
  "/>
<polyline clip-path="url(#clip292)" style="stroke:#000000; stroke-width:2; stroke-opacity:0.1; fill:none" points="
  175.348,1363.18 2352.76,1363.18 
  "/>
<polyline clip-path="url(#clip292)" style="stroke:#000000; stroke-width:2; stroke-opacity:0.1; fill:none" points="
  175.348,1169.24 2352.76,1169.24 
  "/>
<polyline clip-path="url(#clip292)" style="stroke:#000000; stroke-width:2; stroke-opacity:0.1; fill:none" points="
  175.348,975.306 2352.76,975.306 
  "/>
<polyline clip-path="url(#clip292)" style="stroke:#000000; stroke-width:2; stroke-opacity:0.1; fill:none" points="
  175.348,781.37 2352.76,781.37 
  "/>
<polyline clip-path="url(#clip292)" style="stroke:#000000; stroke-width:2; stroke-opacity:0.1; fill:none" points="
  175.348,587.434 2352.76,587.434 
  "/>
<polyline clip-path="url(#clip292)" style="stroke:#000000; stroke-width:2; stroke-opacity:0.1; fill:none" points="
  175.348,393.498 2352.76,393.498 
  "/>
<polyline clip-path="url(#clip292)" style="stroke:#000000; stroke-width:2; stroke-opacity:0.1; fill:none" points="
  175.348,199.562 2352.76,199.562 
  "/>
<polyline clip-path="url(#clip290)" style="stroke:#000000; stroke-width:4; stroke-opacity:1; fill:none" points="
  175.348,1486.45 2352.76,1486.45 
  "/>
<polyline clip-path="url(#clip290)" style="stroke:#000000; stroke-width:4; stroke-opacity:1; fill:none" points="
  175.348,1486.45 175.348,123.472 
  "/>
<polyline clip-path="url(#clip290)" style="stroke:#000000; stroke-width:4; stroke-opacity:1; fill:none" points="
  236.973,1486.45 236.973,1470.09 
  "/>
<polyline clip-path="url(#clip290)" style="stroke:#000000; stroke-width:4; stroke-opacity:1; fill:none" points="
  750.512,1486.45 750.512,1470.09 
  "/>
<polyline clip-path="url(#clip290)" style="stroke:#000000; stroke-width:4; stroke-opacity:1; fill:none" points="
  1264.05,1486.45 1264.05,1470.09 
  "/>
<polyline clip-path="url(#clip290)" style="stroke:#000000; stroke-width:4; stroke-opacity:1; fill:none" points="
  1777.59,1486.45 1777.59,1470.09 
  "/>
<polyline clip-path="url(#clip290)" style="stroke:#000000; stroke-width:4; stroke-opacity:1; fill:none" points="
  2291.13,1486.45 2291.13,1470.09 
  "/>
<polyline clip-path="url(#clip290)" style="stroke:#000000; stroke-width:4; stroke-opacity:1; fill:none" points="
  175.348,1363.18 201.477,1363.18 
  "/>
<polyline clip-path="url(#clip290)" style="stroke:#000000; stroke-width:4; stroke-opacity:1; fill:none" points="
  175.348,1169.24 201.477,1169.24 
  "/>
<polyline clip-path="url(#clip290)" style="stroke:#000000; stroke-width:4; stroke-opacity:1; fill:none" points="
  175.348,975.306 201.477,975.306 
  "/>
<polyline clip-path="url(#clip290)" style="stroke:#000000; stroke-width:4; stroke-opacity:1; fill:none" points="
  175.348,781.37 201.477,781.37 
  "/>
<polyline clip-path="url(#clip290)" style="stroke:#000000; stroke-width:4; stroke-opacity:1; fill:none" points="
  175.348,587.434 201.477,587.434 
  "/>
<polyline clip-path="url(#clip290)" style="stroke:#000000; stroke-width:4; stroke-opacity:1; fill:none" points="
  175.348,393.498 201.477,393.498 
  "/>
<polyline clip-path="url(#clip290)" style="stroke:#000000; stroke-width:4; stroke-opacity:1; fill:none" points="
  175.348,199.562 201.477,199.562 
  "/>
<path clip-path="url(#clip290)" d="M 0 0 M218.489 1508.44 Q214.878 1508.44 213.049 1512 Q211.244 1515.55 211.244 1522.67 Q211.244 1529.78 213.049 1533.35 Q214.878 1536.89 218.489 1536.89 Q222.123 1536.89 223.929 1533.35 Q225.758 1529.78 225.758 1522.67 Q225.758 1515.55 223.929 1512 Q222.123 1508.44 218.489 1508.44 M218.489 1504.73 Q224.299 1504.73 227.355 1509.34 Q230.434 1513.92 230.434 1522.67 Q230.434 1531.4 227.355 1536.01 Q224.299 1540.59 218.489 1540.59 Q212.679 1540.59 209.6 1536.01 Q206.545 1531.4 206.545 1522.67 Q206.545 1513.92 209.6 1509.34 Q212.679 1504.73 218.489 1504.73 Z" fill="#000000" fill-rule="evenodd" fill-opacity="1" /><path clip-path="url(#clip290)" d="M 0 0 M235.503 1534.04 L240.387 1534.04 L240.387 1539.92 L235.503 1539.92 L235.503 1534.04 Z" fill="#000000" fill-rule="evenodd" fill-opacity="1" /><path clip-path="url(#clip290)" d="M 0 0 M255.457 1508.44 Q251.845 1508.44 250.017 1512 Q248.211 1515.55 248.211 1522.67 Q248.211 1529.78 250.017 1533.35 Q251.845 1536.89 255.457 1536.89 Q259.091 1536.89 260.896 1533.35 Q262.725 1529.78 262.725 1522.67 Q262.725 1515.55 260.896 1512 Q259.091 1508.44 255.457 1508.44 M255.457 1504.73 Q261.267 1504.73 264.322 1509.34 Q267.401 1513.92 267.401 1522.67 Q267.401 1531.4 264.322 1536.01 Q261.267 1540.59 255.457 1540.59 Q249.646 1540.59 246.568 1536.01 Q243.512 1531.4 243.512 1522.67 Q243.512 1513.92 246.568 1509.34 Q249.646 1504.73 255.457 1504.73 Z" fill="#000000" fill-rule="evenodd" fill-opacity="1" /><path clip-path="url(#clip290)" d="M 0 0 M732.526 1508.44 Q728.915 1508.44 727.087 1512 Q725.281 1515.55 725.281 1522.67 Q725.281 1529.78 727.087 1533.35 Q728.915 1536.89 732.526 1536.89 Q736.161 1536.89 737.966 1533.35 Q739.795 1529.78 739.795 1522.67 Q739.795 1515.55 737.966 1512 Q736.161 1508.44 732.526 1508.44 M732.526 1504.73 Q738.337 1504.73 741.392 1509.34 Q744.471 1513.92 744.471 1522.67 Q744.471 1531.4 741.392 1536.01 Q738.337 1540.59 732.526 1540.59 Q726.716 1540.59 723.638 1536.01 Q720.582 1531.4 720.582 1522.67 Q720.582 1513.92 723.638 1509.34 Q726.716 1504.73 732.526 1504.73 Z" fill="#000000" fill-rule="evenodd" fill-opacity="1" /><path clip-path="url(#clip290)" d="M 0 0 M749.54 1534.04 L754.424 1534.04 L754.424 1539.92 L749.54 1539.92 L749.54 1534.04 Z" fill="#000000" fill-rule="evenodd" fill-opacity="1" /><path clip-path="url(#clip290)" d="M 0 0 M759.54 1505.36 L777.897 1505.36 L777.897 1509.3 L763.823 1509.3 L763.823 1517.77 Q764.841 1517.42 765.86 1517.26 Q766.878 1517.07 767.897 1517.07 Q773.684 1517.07 777.063 1520.24 Q780.443 1523.42 780.443 1528.83 Q780.443 1534.41 776.971 1537.51 Q773.498 1540.59 767.179 1540.59 Q765.003 1540.59 762.735 1540.22 Q760.489 1539.85 758.082 1539.11 L758.082 1534.41 Q760.165 1535.54 762.387 1536.1 Q764.61 1536.66 767.086 1536.66 Q771.091 1536.66 773.429 1534.55 Q775.767 1532.44 775.767 1528.83 Q775.767 1525.22 773.429 1523.11 Q771.091 1521.01 767.086 1521.01 Q765.211 1521.01 763.336 1521.42 Q761.485 1521.84 759.54 1522.72 L759.54 1505.36 Z" fill="#000000" fill-rule="evenodd" fill-opacity="1" /><path clip-path="url(#clip290)" d="M 0 0 M1235.95 1535.98 L1243.59 1535.98 L1243.59 1509.62 L1235.28 1511.29 L1235.28 1507.03 L1243.54 1505.36 L1248.22 1505.36 L1248.22 1535.98 L1255.86 1535.98 L1255.86 1539.92 L1235.95 1539.92 L1235.95 1535.98 Z" fill="#000000" fill-rule="evenodd" fill-opacity="1" /><path clip-path="url(#clip290)" d="M 0 0 M1260.93 1534.04 L1265.81 1534.04 L1265.81 1539.92 L1260.93 1539.92 L1260.93 1534.04 Z" fill="#000000" fill-rule="evenodd" fill-opacity="1" /><path clip-path="url(#clip290)" d="M 0 0 M1280.88 1508.44 Q1277.27 1508.44 1275.44 1512 Q1273.64 1515.55 1273.64 1522.67 Q1273.64 1529.78 1275.44 1533.35 Q1277.27 1536.89 1280.88 1536.89 Q1284.51 1536.89 1286.32 1533.35 Q1288.15 1529.78 1288.15 1522.67 Q1288.15 1515.55 1286.32 1512 Q1284.51 1508.44 1280.88 1508.44 M1280.88 1504.73 Q1286.69 1504.73 1289.75 1509.34 Q1292.83 1513.92 1292.83 1522.67 Q1292.83 1531.4 1289.75 1536.01 Q1286.69 1540.59 1280.88 1540.59 Q1275.07 1540.59 1271.99 1536.01 Q1268.94 1531.4 1268.94 1522.67 Q1268.94 1513.92 1271.99 1509.34 Q1275.07 1504.73 1280.88 1504.73 Z" fill="#000000" fill-rule="evenodd" fill-opacity="1" /><path clip-path="url(#clip290)" d="M 0 0 M1749.99 1535.98 L1757.63 1535.98 L1757.63 1509.62 L1749.32 1511.29 L1749.32 1507.03 L1757.58 1505.36 L1762.26 1505.36 L1762.26 1535.98 L1769.89 1535.98 L1769.89 1539.92 L1749.99 1539.92 L1749.99 1535.98 Z" fill="#000000" fill-rule="evenodd" fill-opacity="1" /><path clip-path="url(#clip290)" d="M 0 0 M1774.96 1534.04 L1779.85 1534.04 L1779.85 1539.92 L1774.96 1539.92 L1774.96 1534.04 Z" fill="#000000" fill-rule="evenodd" fill-opacity="1" /><path clip-path="url(#clip290)" d="M 0 0 M1784.96 1505.36 L1803.32 1505.36 L1803.32 1509.3 L1789.25 1509.3 L1789.25 1517.77 Q1790.27 1517.42 1791.28 1517.26 Q1792.3 1517.07 1793.32 1517.07 Q1799.11 1517.07 1802.49 1520.24 Q1805.87 1523.42 1805.87 1528.83 Q1805.87 1534.41 1802.39 1537.51 Q1798.92 1540.59 1792.6 1540.59 Q1790.43 1540.59 1788.16 1540.22 Q1785.91 1539.85 1783.51 1539.11 L1783.51 1534.41 Q1785.59 1535.54 1787.81 1536.1 Q1790.03 1536.66 1792.51 1536.66 Q1796.52 1536.66 1798.85 1534.55 Q1801.19 1532.44 1801.19 1528.83 Q1801.19 1525.22 1798.85 1523.11 Q1796.52 1521.01 1792.51 1521.01 Q1790.64 1521.01 1788.76 1521.42 Q1786.91 1521.84 1784.96 1522.72 L1784.96 1505.36 Z" fill="#000000" fill-rule="evenodd" fill-opacity="1" /><path clip-path="url(#clip290)" d="M 0 0 M2267.3 1535.98 L2283.62 1535.98 L2283.62 1539.92 L2261.68 1539.92 L2261.68 1535.98 Q2264.34 1533.23 2268.92 1528.6 Q2273.53 1523.95 2274.71 1522.61 Q2276.95 1520.08 2277.83 1518.35 Q2278.74 1516.59 2278.74 1514.9 Q2278.74 1512.14 2276.79 1510.41 Q2274.87 1508.67 2271.77 1508.67 Q2269.57 1508.67 2267.12 1509.43 Q2264.68 1510.2 2261.91 1511.75 L2261.91 1507.03 Q2264.73 1505.89 2267.18 1505.31 Q2269.64 1504.73 2271.68 1504.73 Q2277.05 1504.73 2280.24 1507.42 Q2283.43 1510.11 2283.43 1514.6 Q2283.43 1516.73 2282.62 1518.65 Q2281.84 1520.54 2279.73 1523.14 Q2279.15 1523.81 2276.05 1527.03 Q2272.95 1530.22 2267.3 1535.98 Z" fill="#000000" fill-rule="evenodd" fill-opacity="1" /><path clip-path="url(#clip290)" d="M 0 0 M2288.69 1534.04 L2293.57 1534.04 L2293.57 1539.92 L2288.69 1539.92 L2288.69 1534.04 Z" fill="#000000" fill-rule="evenodd" fill-opacity="1" /><path clip-path="url(#clip290)" d="M 0 0 M2308.64 1508.44 Q2305.03 1508.44 2303.2 1512 Q2301.4 1515.55 2301.4 1522.67 Q2301.4 1529.78 2303.2 1533.35 Q2305.03 1536.89 2308.64 1536.89 Q2312.28 1536.89 2314.08 1533.35 Q2315.91 1529.78 2315.91 1522.67 Q2315.91 1515.55 2314.08 1512 Q2312.28 1508.44 2308.64 1508.44 M2308.64 1504.73 Q2314.45 1504.73 2317.51 1509.34 Q2320.59 1513.92 2320.59 1522.67 Q2320.59 1531.4 2317.51 1536.01 Q2314.45 1540.59 2308.64 1540.59 Q2302.83 1540.59 2299.75 1536.01 Q2296.7 1531.4 2296.7 1522.67 Q2296.7 1513.92 2299.75 1509.34 Q2302.83 1504.73 2308.64 1504.73 Z" fill="#000000" fill-rule="evenodd" fill-opacity="1" /><path clip-path="url(#clip290)" d="M 0 0 M77.6448 1348.98 Q74.0337 1348.98 72.205 1352.54 Q70.3995 1356.08 70.3995 1363.21 Q70.3995 1370.32 72.205 1373.88 Q74.0337 1377.43 77.6448 1377.43 Q81.2791 1377.43 83.0846 1373.88 Q84.9133 1370.32 84.9133 1363.21 Q84.9133 1356.08 83.0846 1352.54 Q81.2791 1348.98 77.6448 1348.98 M77.6448 1345.27 Q83.455 1345.27 86.5105 1349.88 Q89.5892 1354.46 89.5892 1363.21 Q89.5892 1371.94 86.5105 1376.55 Q83.455 1381.13 77.6448 1381.13 Q71.8347 1381.13 68.756 1376.55 Q65.7004 1371.94 65.7004 1363.21 Q65.7004 1354.46 68.756 1349.88 Q71.8347 1345.27 77.6448 1345.27 Z" fill="#000000" fill-rule="evenodd" fill-opacity="1" /><path clip-path="url(#clip290)" d="M 0 0 M94.6586 1374.58 L99.5429 1374.58 L99.5429 1380.46 L94.6586 1380.46 L94.6586 1374.58 Z" fill="#000000" fill-rule="evenodd" fill-opacity="1" /><path clip-path="url(#clip290)" d="M 0 0 M105.422 1376.52 L113.061 1376.52 L113.061 1350.16 L104.751 1351.82 L104.751 1347.56 L113.015 1345.9 L117.691 1345.9 L117.691 1376.52 L125.33 1376.52 L125.33 1380.46 L105.422 1380.46 L105.422 1376.52 Z" fill="#000000" fill-rule="evenodd" fill-opacity="1" /><path clip-path="url(#clip290)" d="M 0 0 M130.445 1345.9 L148.802 1345.9 L148.802 1349.83 L134.728 1349.83 L134.728 1358.3 Q135.746 1357.96 136.765 1357.8 Q137.783 1357.61 138.802 1357.61 Q144.589 1357.61 147.969 1360.78 Q151.348 1363.95 151.348 1369.37 Q151.348 1374.95 147.876 1378.05 Q144.404 1381.13 138.084 1381.13 Q135.908 1381.13 133.64 1380.76 Q131.395 1380.39 128.987 1379.65 L128.987 1374.95 Q131.07 1376.08 133.293 1376.64 Q135.515 1377.19 137.992 1377.19 Q141.996 1377.19 144.334 1375.09 Q146.672 1372.98 146.672 1369.37 Q146.672 1365.76 144.334 1363.65 Q141.996 1361.55 137.992 1361.55 Q136.117 1361.55 134.242 1361.96 Q132.39 1362.38 130.445 1363.26 L130.445 1345.9 Z" fill="#000000" fill-rule="evenodd" fill-opacity="1" /><path clip-path="url(#clip290)" d="M 0 0 M77.0198 1155.04 Q73.4087 1155.04 71.58 1158.6 Q69.7745 1162.15 69.7745 1169.28 Q69.7745 1176.38 71.58 1179.95 Q73.4087 1183.49 77.0198 1183.49 Q80.6541 1183.49 82.4596 1179.95 Q84.2883 1176.38 84.2883 1169.28 Q84.2883 1162.15 82.4596 1158.6 Q80.6541 1155.04 77.0198 1155.04 M77.0198 1151.34 Q82.83 1151.34 85.8855 1155.94 Q88.9642 1160.53 88.9642 1169.28 Q88.9642 1178 85.8855 1182.61 Q82.83 1187.19 77.0198 1187.19 Q71.2097 1187.19 68.131 1182.61 Q65.0754 1178 65.0754 1169.28 Q65.0754 1160.53 68.131 1155.94 Q71.2097 1151.34 77.0198 1151.34 Z" fill="#000000" fill-rule="evenodd" fill-opacity="1" /><path clip-path="url(#clip290)" d="M 0 0 M94.0336 1180.64 L98.9179 1180.64 L98.9179 1186.52 L94.0336 1186.52 L94.0336 1180.64 Z" fill="#000000" fill-rule="evenodd" fill-opacity="1" /><path clip-path="url(#clip290)" d="M 0 0 M108.015 1182.59 L124.334 1182.59 L124.334 1186.52 L102.39 1186.52 L102.39 1182.59 Q105.052 1179.83 109.635 1175.2 Q114.242 1170.55 115.422 1169.21 Q117.668 1166.68 118.547 1164.95 Q119.45 1163.19 119.45 1161.5 Q119.45 1158.74 117.506 1157.01 Q115.584 1155.27 112.483 1155.27 Q110.284 1155.27 107.83 1156.04 Q105.399 1156.8 102.622 1158.35 L102.622 1153.63 Q105.446 1152.49 107.899 1151.92 Q110.353 1151.34 112.39 1151.34 Q117.76 1151.34 120.955 1154.02 Q124.149 1156.71 124.149 1161.2 Q124.149 1163.33 123.339 1165.25 Q122.552 1167.15 120.446 1169.74 Q119.867 1170.41 116.765 1173.63 Q113.663 1176.82 108.015 1182.59 Z" fill="#000000" fill-rule="evenodd" fill-opacity="1" /><path clip-path="url(#clip290)" d="M 0 0 M139.404 1155.04 Q135.793 1155.04 133.964 1158.6 Q132.158 1162.15 132.158 1169.28 Q132.158 1176.38 133.964 1179.95 Q135.793 1183.49 139.404 1183.49 Q143.038 1183.49 144.844 1179.95 Q146.672 1176.38 146.672 1169.28 Q146.672 1162.15 144.844 1158.6 Q143.038 1155.04 139.404 1155.04 M139.404 1151.34 Q145.214 1151.34 148.269 1155.94 Q151.348 1160.53 151.348 1169.28 Q151.348 1178 148.269 1182.61 Q145.214 1187.19 139.404 1187.19 Q133.594 1187.19 130.515 1182.61 Q127.459 1178 127.459 1169.28 Q127.459 1160.53 130.515 1155.94 Q133.594 1151.34 139.404 1151.34 Z" fill="#000000" fill-rule="evenodd" fill-opacity="1" /><path clip-path="url(#clip290)" d="M 0 0 M78.0152 961.104 Q74.4041 961.104 72.5754 964.669 Q70.7699 968.211 70.7699 975.34 Q70.7699 982.447 72.5754 986.012 Q74.4041 989.553 78.0152 989.553 Q81.6494 989.553 83.455 986.012 Q85.2837 982.447 85.2837 975.34 Q85.2837 968.211 83.455 964.669 Q81.6494 961.104 78.0152 961.104 M78.0152 957.401 Q83.8253 957.401 86.8809 962.007 Q89.9596 966.59 89.9596 975.34 Q89.9596 984.067 86.8809 988.674 Q83.8253 993.257 78.0152 993.257 Q72.205 993.257 69.1264 988.674 Q66.0708 984.067 66.0708 975.34 Q66.0708 966.59 69.1264 962.007 Q72.205 957.401 78.0152 957.401 Z" fill="#000000" fill-rule="evenodd" fill-opacity="1" /><path clip-path="url(#clip290)" d="M 0 0 M95.029 986.706 L99.9132 986.706 L99.9132 992.586 L95.029 992.586 L95.029 986.706 Z" fill="#000000" fill-rule="evenodd" fill-opacity="1" /><path clip-path="url(#clip290)" d="M 0 0 M109.01 988.65 L125.33 988.65 L125.33 992.586 L103.385 992.586 L103.385 988.65 Q106.047 985.896 110.631 981.266 Q115.237 976.613 116.418 975.271 Q118.663 972.748 119.543 971.012 Q120.446 969.252 120.446 967.563 Q120.446 964.808 118.501 963.072 Q116.58 961.336 113.478 961.336 Q111.279 961.336 108.825 962.1 Q106.395 962.863 103.617 964.414 L103.617 959.692 Q106.441 958.558 108.895 957.979 Q111.348 957.401 113.385 957.401 Q118.756 957.401 121.95 960.086 Q125.145 962.771 125.145 967.262 Q125.145 969.391 124.334 971.313 Q123.547 973.211 121.441 975.803 Q120.862 976.475 117.76 979.692 Q114.659 982.887 109.01 988.65 Z" fill="#000000" fill-rule="evenodd" fill-opacity="1" /><path clip-path="url(#clip290)" d="M 0 0 M130.445 958.026 L148.802 958.026 L148.802 961.961 L134.728 961.961 L134.728 970.433 Q135.746 970.086 136.765 969.924 Q137.783 969.738 138.802 969.738 Q144.589 969.738 147.969 972.91 Q151.348 976.081 151.348 981.498 Q151.348 987.076 147.876 990.178 Q144.404 993.257 138.084 993.257 Q135.908 993.257 133.64 992.886 Q131.395 992.516 128.987 991.775 L128.987 987.076 Q131.07 988.211 133.293 988.766 Q135.515 989.322 137.992 989.322 Q141.996 989.322 144.334 987.215 Q146.672 985.109 146.672 981.498 Q146.672 977.887 144.334 975.78 Q141.996 973.674 137.992 973.674 Q136.117 973.674 134.242 974.09 Q132.39 974.507 130.445 975.387 L130.445 958.026 Z" fill="#000000" fill-rule="evenodd" fill-opacity="1" /><path clip-path="url(#clip290)" d="M 0 0 M76.0708 767.168 Q72.4597 767.168 70.631 770.733 Q68.8254 774.275 68.8254 781.404 Q68.8254 788.511 70.631 792.076 Q72.4597 795.617 76.0708 795.617 Q79.705 795.617 81.5105 792.076 Q83.3392 788.511 83.3392 781.404 Q83.3392 774.275 81.5105 770.733 Q79.705 767.168 76.0708 767.168 M76.0708 763.465 Q81.8809 763.465 84.9365 768.071 Q88.0151 772.654 88.0151 781.404 Q88.0151 790.131 84.9365 794.738 Q81.8809 799.321 76.0708 799.321 Q70.2606 799.321 67.1819 794.738 Q64.1264 790.131 64.1264 781.404 Q64.1264 772.654 67.1819 768.071 Q70.2606 763.465 76.0708 763.465 Z" fill="#000000" fill-rule="evenodd" fill-opacity="1" /><path clip-path="url(#clip290)" d="M 0 0 M93.0846 792.77 L97.9688 792.77 L97.9688 798.65 L93.0846 798.65 L93.0846 792.77 Z" fill="#000000" fill-rule="evenodd" fill-opacity="1" /><path clip-path="url(#clip290)" d="M 0 0 M117.205 780.015 Q120.561 780.733 122.436 783.002 Q124.334 785.27 124.334 788.603 Q124.334 793.719 120.816 796.52 Q117.297 799.321 110.816 799.321 Q108.64 799.321 106.325 798.881 Q104.034 798.464 101.58 797.608 L101.58 793.094 Q103.524 794.228 105.839 794.807 Q108.154 795.386 110.677 795.386 Q115.075 795.386 117.367 793.65 Q119.682 791.914 119.682 788.603 Q119.682 785.548 117.529 783.835 Q115.399 782.099 111.58 782.099 L107.552 782.099 L107.552 778.256 L111.765 778.256 Q115.214 778.256 117.043 776.89 Q118.871 775.502 118.871 772.909 Q118.871 770.247 116.973 768.835 Q115.098 767.4 111.58 767.4 Q109.659 767.4 107.459 767.816 Q105.26 768.233 102.622 769.113 L102.622 764.946 Q105.284 764.205 107.598 763.835 Q109.936 763.465 111.996 763.465 Q117.321 763.465 120.422 765.895 Q123.524 768.303 123.524 772.423 Q123.524 775.293 121.881 777.284 Q120.237 779.252 117.205 780.015 Z" fill="#000000" fill-rule="evenodd" fill-opacity="1" /><path clip-path="url(#clip290)" d="M 0 0 M139.404 767.168 Q135.793 767.168 133.964 770.733 Q132.158 774.275 132.158 781.404 Q132.158 788.511 133.964 792.076 Q135.793 795.617 139.404 795.617 Q143.038 795.617 144.844 792.076 Q146.672 788.511 146.672 781.404 Q146.672 774.275 144.844 770.733 Q143.038 767.168 139.404 767.168 M139.404 763.465 Q145.214 763.465 148.269 768.071 Q151.348 772.654 151.348 781.404 Q151.348 790.131 148.269 794.738 Q145.214 799.321 139.404 799.321 Q133.594 799.321 130.515 794.738 Q127.459 790.131 127.459 781.404 Q127.459 772.654 130.515 768.071 Q133.594 763.465 139.404 763.465 Z" fill="#000000" fill-rule="evenodd" fill-opacity="1" /><path clip-path="url(#clip290)" d="M 0 0 M77.0661 573.232 Q73.455 573.232 71.6263 576.797 Q69.8208 580.339 69.8208 587.468 Q69.8208 594.575 71.6263 598.14 Q73.455 601.681 77.0661 601.681 Q80.7004 601.681 82.5059 598.14 Q84.3346 594.575 84.3346 587.468 Q84.3346 580.339 82.5059 576.797 Q80.7004 573.232 77.0661 573.232 M77.0661 569.529 Q82.8763 569.529 85.9318 574.135 Q89.0105 578.718 89.0105 587.468 Q89.0105 596.195 85.9318 600.802 Q82.8763 605.385 77.0661 605.385 Q71.256 605.385 68.1773 600.802 Q65.1217 596.195 65.1217 587.468 Q65.1217 578.718 68.1773 574.135 Q71.256 569.529 77.0661 569.529 Z" fill="#000000" fill-rule="evenodd" fill-opacity="1" /><path clip-path="url(#clip290)" d="M 0 0 M94.0799 598.834 L98.9642 598.834 L98.9642 604.714 L94.0799 604.714 L94.0799 598.834 Z" fill="#000000" fill-rule="evenodd" fill-opacity="1" /><path clip-path="url(#clip290)" d="M 0 0 M118.2 586.08 Q121.557 586.797 123.432 589.066 Q125.33 591.334 125.33 594.667 Q125.33 599.783 121.811 602.584 Q118.293 605.385 111.811 605.385 Q109.635 605.385 107.321 604.945 Q105.029 604.529 102.575 603.672 L102.575 599.158 Q104.52 600.292 106.834 600.871 Q109.149 601.45 111.672 601.45 Q116.071 601.45 118.362 599.714 Q120.677 597.978 120.677 594.667 Q120.677 591.612 118.524 589.899 Q116.395 588.163 112.575 588.163 L108.547 588.163 L108.547 584.32 L112.76 584.32 Q116.209 584.32 118.038 582.955 Q119.867 581.566 119.867 578.973 Q119.867 576.311 117.969 574.899 Q116.094 573.464 112.575 573.464 Q110.654 573.464 108.455 573.881 Q106.256 574.297 103.617 575.177 L103.617 571.01 Q106.279 570.269 108.594 569.899 Q110.932 569.529 112.992 569.529 Q118.316 569.529 121.418 571.959 Q124.52 574.367 124.52 578.487 Q124.52 581.357 122.876 583.348 Q121.233 585.316 118.2 586.08 Z" fill="#000000" fill-rule="evenodd" fill-opacity="1" /><path clip-path="url(#clip290)" d="M 0 0 M130.445 570.154 L148.802 570.154 L148.802 574.089 L134.728 574.089 L134.728 582.561 Q135.746 582.214 136.765 582.052 Q137.783 581.867 138.802 581.867 Q144.589 581.867 147.969 585.038 Q151.348 588.209 151.348 593.626 Q151.348 599.204 147.876 602.306 Q144.404 605.385 138.084 605.385 Q135.908 605.385 133.64 605.015 Q131.395 604.644 128.987 603.904 L128.987 599.204 Q131.07 600.339 133.293 600.894 Q135.515 601.45 137.992 601.45 Q141.996 601.45 144.334 599.343 Q146.672 597.237 146.672 593.626 Q146.672 590.015 144.334 587.908 Q141.996 585.802 137.992 585.802 Q136.117 585.802 134.242 586.218 Q132.39 586.635 130.445 587.515 L130.445 570.154 Z" fill="#000000" fill-rule="evenodd" fill-opacity="1" /><path clip-path="url(#clip290)" d="M 0 0 M74.9365 379.296 Q71.3254 379.296 69.4967 382.861 Q67.6912 386.403 67.6912 393.533 Q67.6912 400.639 69.4967 404.204 Q71.3254 407.745 74.9365 407.745 Q78.5707 407.745 80.3763 404.204 Q82.205 400.639 82.205 393.533 Q82.205 386.403 80.3763 382.861 Q78.5707 379.296 74.9365 379.296 M74.9365 375.593 Q80.7467 375.593 83.8022 380.199 Q86.8809 384.783 86.8809 393.533 Q86.8809 402.259 83.8022 406.866 Q80.7467 411.449 74.9365 411.449 Q69.1264 411.449 66.0477 406.866 Q62.9921 402.259 62.9921 393.533 Q62.9921 384.783 66.0477 380.199 Q69.1264 375.593 74.9365 375.593 Z" fill="#000000" fill-rule="evenodd" fill-opacity="1" /><path clip-path="url(#clip290)" d="M 0 0 M91.9503 404.898 L96.8345 404.898 L96.8345 410.778 L91.9503 410.778 L91.9503 404.898 Z" fill="#000000" fill-rule="evenodd" fill-opacity="1" /><path clip-path="url(#clip290)" d="M 0 0 M114.751 380.292 L102.946 398.741 L114.751 398.741 L114.751 380.292 M113.524 376.218 L119.404 376.218 L119.404 398.741 L124.334 398.741 L124.334 402.63 L119.404 402.63 L119.404 410.778 L114.751 410.778 L114.751 402.63 L99.1493 402.63 L99.1493 398.116 L113.524 376.218 Z" fill="#000000" fill-rule="evenodd" fill-opacity="1" /><path clip-path="url(#clip290)" d="M 0 0 M139.404 379.296 Q135.793 379.296 133.964 382.861 Q132.158 386.403 132.158 393.533 Q132.158 400.639 133.964 404.204 Q135.793 407.745 139.404 407.745 Q143.038 407.745 144.844 404.204 Q146.672 400.639 146.672 393.533 Q146.672 386.403 144.844 382.861 Q143.038 379.296 139.404 379.296 M139.404 375.593 Q145.214 375.593 148.269 380.199 Q151.348 384.783 151.348 393.533 Q151.348 402.259 148.269 406.866 Q145.214 411.449 139.404 411.449 Q133.594 411.449 130.515 406.866 Q127.459 402.259 127.459 393.533 Q127.459 384.783 130.515 380.199 Q133.594 375.593 139.404 375.593 Z" fill="#000000" fill-rule="evenodd" fill-opacity="1" /><path clip-path="url(#clip290)" d="M 0 0 M75.9319 185.361 Q72.3208 185.361 70.4921 188.925 Q68.6865 192.467 68.6865 199.597 Q68.6865 206.703 70.4921 210.268 Q72.3208 213.809 75.9319 213.809 Q79.5661 213.809 81.3717 210.268 Q83.2004 206.703 83.2004 199.597 Q83.2004 192.467 81.3717 188.925 Q79.5661 185.361 75.9319 185.361 M75.9319 181.657 Q81.742 181.657 84.7976 186.263 Q87.8763 190.847 87.8763 199.597 Q87.8763 208.323 84.7976 212.93 Q81.742 217.513 75.9319 217.513 Q70.1217 217.513 67.043 212.93 Q63.9875 208.323 63.9875 199.597 Q63.9875 190.847 67.043 186.263 Q70.1217 181.657 75.9319 181.657 Z" fill="#000000" fill-rule="evenodd" fill-opacity="1" /><path clip-path="url(#clip290)" d="M 0 0 M92.9457 210.962 L97.8299 210.962 L97.8299 216.842 L92.9457 216.842 L92.9457 210.962 Z" fill="#000000" fill-rule="evenodd" fill-opacity="1" /><path clip-path="url(#clip290)" d="M 0 0 M115.746 186.356 L103.941 204.805 L115.746 204.805 L115.746 186.356 M114.52 182.282 L120.399 182.282 L120.399 204.805 L125.33 204.805 L125.33 208.694 L120.399 208.694 L120.399 216.842 L115.746 216.842 L115.746 208.694 L100.145 208.694 L100.145 204.18 L114.52 182.282 Z" fill="#000000" fill-rule="evenodd" fill-opacity="1" /><path clip-path="url(#clip290)" d="M 0 0 M130.445 182.282 L148.802 182.282 L148.802 186.217 L134.728 186.217 L134.728 194.689 Q135.746 194.342 136.765 194.18 Q137.783 193.995 138.802 193.995 Q144.589 193.995 147.969 197.166 Q151.348 200.337 151.348 205.754 Q151.348 211.333 147.876 214.434 Q144.404 217.513 138.084 217.513 Q135.908 217.513 133.64 217.143 Q131.395 216.772 128.987 216.032 L128.987 211.333 Q131.07 212.467 133.293 213.022 Q135.515 213.578 137.992 213.578 Q141.996 213.578 144.334 211.472 Q146.672 209.365 146.672 205.754 Q146.672 202.143 144.334 200.036 Q141.996 197.93 137.992 197.93 Q136.117 197.93 134.242 198.347 Q132.39 198.763 130.445 199.643 L130.445 182.282 Z" fill="#000000" fill-rule="evenodd" fill-opacity="1" /><path clip-path="url(#clip290)" d="M 0 0 M747.136 18.8205 L747.136 41.5461 L757.426 41.5461 Q763.137 41.5461 766.257 38.5889 Q769.376 35.6318 769.376 30.163 Q769.376 24.7348 766.257 21.7777 Q763.137 18.8205 757.426 18.8205 L747.136 18.8205 M738.954 12.096 L757.426 12.096 Q767.593 12.096 772.779 16.714 Q778.004 21.2916 778.004 30.163 Q778.004 39.1155 772.779 43.6931 Q767.593 48.2706 757.426 48.2706 L747.136 48.2706 L747.136 72.576 L738.954 72.576 L738.954 12.096 Z" fill="#000000" fill-rule="evenodd" fill-opacity="1" /><path clip-path="url(#clip290)" d="M 0 0 M800.446 32.4315 Q794.451 32.4315 790.967 37.1306 Q787.483 41.7891 787.483 49.9314 Q787.483 58.0738 790.927 62.7728 Q794.41 67.4314 800.446 67.4314 Q806.401 67.4314 809.885 62.7323 Q813.369 58.0333 813.369 49.9314 Q813.369 41.8701 809.885 37.1711 Q806.401 32.4315 800.446 32.4315 M800.446 26.1121 Q810.168 26.1121 815.718 32.4315 Q821.268 38.7509 821.268 49.9314 Q821.268 61.0714 815.718 67.4314 Q810.168 73.7508 800.446 73.7508 Q790.684 73.7508 785.134 67.4314 Q779.625 61.0714 779.625 49.9314 Q779.625 38.7509 785.134 32.4315 Q790.684 26.1121 800.446 26.1121 Z" fill="#000000" fill-rule="evenodd" fill-opacity="1" /><path clip-path="url(#clip290)" d="M 0 0 M829.086 27.2059 L836.54 27.2059 L836.54 72.576 L829.086 72.576 L829.086 27.2059 M829.086 9.54393 L836.54 9.54393 L836.54 18.9825 L829.086 18.9825 L829.086 9.54393 Z" fill="#000000" fill-rule="evenodd" fill-opacity="1" /><path clip-path="url(#clip290)" d="M 0 0 M873.282 28.5427 L873.282 35.5912 Q870.122 33.9709 866.719 33.1607 Q863.316 32.3505 859.671 32.3505 Q854.121 32.3505 851.326 34.0519 Q848.571 35.7533 848.571 39.156 Q848.571 41.7486 850.556 43.2475 Q852.541 44.7058 858.536 46.0426 L861.088 46.6097 Q869.028 48.3111 872.35 51.4303 Q875.712 54.509 875.712 60.0587 Q875.712 66.3781 870.689 70.0644 Q865.706 73.7508 856.956 73.7508 Q853.311 73.7508 849.341 73.0216 Q845.411 72.3329 841.036 70.9151 L841.036 63.2184 Q845.168 65.3654 849.179 66.4591 Q853.189 67.5124 857.118 67.5124 Q862.385 67.5124 865.22 65.73 Q868.056 63.9071 868.056 60.6258 Q868.056 57.5877 865.99 55.9673 Q863.964 54.3469 857.037 52.8481 L854.445 52.2405 Q847.518 50.7821 844.439 47.7845 Q841.36 44.7463 841.36 39.4801 Q841.36 33.0797 845.897 29.5959 Q850.434 26.1121 858.779 26.1121 Q862.911 26.1121 866.557 26.7198 Q870.203 27.3274 873.282 28.5427 Z" fill="#000000" fill-rule="evenodd" fill-opacity="1" /><path clip-path="url(#clip290)" d="M 0 0 M912.454 28.5427 L912.454 35.5912 Q909.294 33.9709 905.891 33.1607 Q902.489 32.3505 898.843 32.3505 Q893.293 32.3505 890.498 34.0519 Q887.743 35.7533 887.743 39.156 Q887.743 41.7486 889.728 43.2475 Q891.713 44.7058 897.708 46.0426 L900.261 46.6097 Q908.2 48.3111 911.522 51.4303 Q914.884 54.509 914.884 60.0587 Q914.884 66.3781 909.861 70.0644 Q904.879 73.7508 896.129 73.7508 Q892.483 73.7508 888.513 73.0216 Q884.584 72.3329 880.209 70.9151 L880.209 63.2184 Q884.341 65.3654 888.351 66.4591 Q892.361 67.5124 896.291 67.5124 Q901.557 67.5124 904.392 65.73 Q907.228 63.9071 907.228 60.6258 Q907.228 57.5877 905.162 55.9673 Q903.137 54.3469 896.21 52.8481 L893.617 52.2405 Q886.69 50.7821 883.611 47.7845 Q880.533 44.7463 880.533 39.4801 Q880.533 33.0797 885.07 29.5959 Q889.607 26.1121 897.952 26.1121 Q902.083 26.1121 905.729 26.7198 Q909.375 27.3274 912.454 28.5427 Z" fill="#000000" fill-rule="evenodd" fill-opacity="1" /><path clip-path="url(#clip290)" d="M 0 0 M940.284 32.4315 Q934.288 32.4315 930.804 37.1306 Q927.321 41.7891 927.321 49.9314 Q927.321 58.0738 930.764 62.7728 Q934.248 67.4314 940.284 67.4314 Q946.238 67.4314 949.722 62.7323 Q953.206 58.0333 953.206 49.9314 Q953.206 41.8701 949.722 37.1711 Q946.238 32.4315 940.284 32.4315 M940.284 26.1121 Q950.006 26.1121 955.555 32.4315 Q961.105 38.7509 961.105 49.9314 Q961.105 61.0714 955.555 67.4314 Q950.006 73.7508 940.284 73.7508 Q930.521 73.7508 924.971 67.4314 Q919.462 61.0714 919.462 49.9314 Q919.462 38.7509 924.971 32.4315 Q930.521 26.1121 940.284 26.1121 Z" fill="#000000" fill-rule="evenodd" fill-opacity="1" /><path clip-path="url(#clip290)" d="M 0 0 M1006.64 45.1919 L1006.64 72.576 L999.184 72.576 L999.184 45.4349 Q999.184 38.994 996.672 35.7938 Q994.161 32.5936 989.137 32.5936 Q983.102 32.5936 979.618 36.4419 Q976.134 40.2903 976.134 46.9338 L976.134 72.576 L968.64 72.576 L968.64 27.2059 L976.134 27.2059 L976.134 34.2544 Q978.808 30.163 982.413 28.1376 Q986.059 26.1121 990.798 26.1121 Q998.617 26.1121 1002.63 30.9732 Q1006.64 35.7938 1006.64 45.1919 Z" fill="#000000" fill-rule="evenodd" fill-opacity="1" /><path clip-path="url(#clip290)" d="M 0 0 M1049.33 43.6931 L1049.33 65.8515 L1062.46 65.8515 Q1069.06 65.8515 1072.22 63.1374 Q1075.42 60.3828 1075.42 54.752 Q1075.42 49.0808 1072.22 46.4072 Q1069.06 43.6931 1062.46 43.6931 L1049.33 43.6931 M1049.33 18.8205 L1049.33 37.0496 L1061.45 37.0496 Q1067.44 37.0496 1070.36 34.8216 Q1073.32 32.5531 1073.32 27.935 Q1073.32 23.3575 1070.36 21.089 Q1067.44 18.8205 1061.45 18.8205 L1049.33 18.8205 M1041.15 12.096 L1062.05 12.096 Q1071.41 12.096 1076.47 15.9849 Q1081.54 19.8737 1081.54 27.0438 Q1081.54 32.5936 1078.95 35.8748 Q1076.35 39.156 1071.33 39.9662 Q1077.37 41.2625 1080.69 45.3944 Q1084.05 49.4858 1084.05 55.6432 Q1084.05 63.745 1078.54 68.1605 Q1073.03 72.576 1062.86 72.576 L1041.15 72.576 L1041.15 12.096 Z" fill="#000000" fill-rule="evenodd" fill-opacity="1" /><path clip-path="url(#clip290)" d="M 0 0 M1091.87 27.2059 L1099.32 27.2059 L1099.32 72.576 L1091.87 72.576 L1091.87 27.2059 M1091.87 9.54393 L1099.32 9.54393 L1099.32 18.9825 L1091.87 18.9825 L1091.87 9.54393 Z" fill="#000000" fill-rule="evenodd" fill-opacity="1" /><path clip-path="url(#clip290)" d="M 0 0 M1144.85 45.1919 L1144.85 72.576 L1137.4 72.576 L1137.4 45.4349 Q1137.4 38.994 1134.89 35.7938 Q1132.38 32.5936 1127.35 32.5936 Q1121.32 32.5936 1117.83 36.4419 Q1114.35 40.2903 1114.35 46.9338 L1114.35 72.576 L1106.86 72.576 L1106.86 27.2059 L1114.35 27.2059 L1114.35 34.2544 Q1117.02 30.163 1120.63 28.1376 Q1124.28 26.1121 1129.02 26.1121 Q1136.83 26.1121 1140.84 30.9732 Q1144.85 35.7938 1144.85 45.1919 Z" fill="#000000" fill-rule="evenodd" fill-opacity="1" /><path clip-path="url(#clip290)" d="M 0 0 M1170.25 32.4315 Q1164.26 32.4315 1160.77 37.1306 Q1157.29 41.7891 1157.29 49.9314 Q1157.29 58.0738 1160.73 62.7728 Q1164.22 67.4314 1170.25 67.4314 Q1176.21 67.4314 1179.69 62.7323 Q1183.18 58.0333 1183.18 49.9314 Q1183.18 41.8701 1179.69 37.1711 Q1176.21 32.4315 1170.25 32.4315 M1170.25 26.1121 Q1179.98 26.1121 1185.53 32.4315 Q1191.07 38.7509 1191.07 49.9314 Q1191.07 61.0714 1185.53 67.4314 Q1179.98 73.7508 1170.25 73.7508 Q1160.49 73.7508 1154.94 67.4314 Q1149.43 61.0714 1149.43 49.9314 Q1149.43 38.7509 1154.94 32.4315 Q1160.49 26.1121 1170.25 26.1121 Z" fill="#000000" fill-rule="evenodd" fill-opacity="1" /><path clip-path="url(#clip290)" d="M 0 0 M1234.22 35.9153 Q1237.01 30.8922 1240.9 28.5022 Q1244.79 26.1121 1250.06 26.1121 Q1257.15 26.1121 1260.99 31.0947 Q1264.84 36.0368 1264.84 45.1919 L1264.84 72.576 L1257.35 72.576 L1257.35 45.4349 Q1257.35 38.913 1255.04 35.7533 Q1252.73 32.5936 1247.99 32.5936 Q1242.2 32.5936 1238.84 36.4419 Q1235.47 40.2903 1235.47 46.9338 L1235.47 72.576 L1227.98 72.576 L1227.98 45.4349 Q1227.98 38.8725 1225.67 35.7533 Q1223.36 32.5936 1218.54 32.5936 Q1212.83 32.5936 1209.47 36.4824 Q1206.1 40.3308 1206.1 46.9338 L1206.1 72.576 L1198.61 72.576 L1198.61 27.2059 L1206.1 27.2059 L1206.1 34.2544 Q1208.66 30.082 1212.22 28.0971 Q1215.79 26.1121 1220.69 26.1121 Q1225.63 26.1121 1229.07 28.6237 Q1232.56 31.1352 1234.22 35.9153 Z" fill="#000000" fill-rule="evenodd" fill-opacity="1" /><path clip-path="url(#clip290)" d="M 0 0 M1272.66 27.2059 L1280.11 27.2059 L1280.11 72.576 L1272.66 72.576 L1272.66 27.2059 M1272.66 9.54393 L1280.11 9.54393 L1280.11 18.9825 L1272.66 18.9825 L1272.66 9.54393 Z" fill="#000000" fill-rule="evenodd" fill-opacity="1" /><path clip-path="url(#clip290)" d="M 0 0 M1308.55 49.7694 Q1299.52 49.7694 1296.03 51.8354 Q1292.55 53.9013 1292.55 58.8839 Q1292.55 62.8538 1295.14 65.2034 Q1297.78 67.5124 1302.27 67.5124 Q1308.47 67.5124 1312.2 63.1374 Q1315.96 58.7219 1315.96 51.4303 L1315.96 49.7694 L1308.55 49.7694 M1323.42 46.6907 L1323.42 72.576 L1315.96 72.576 L1315.96 65.6895 Q1313.41 69.8214 1309.6 71.8063 Q1305.8 73.7508 1300.29 73.7508 Q1293.32 73.7508 1289.19 69.8619 Q1285.1 65.9325 1285.1 59.3701 Q1285.1 51.7138 1290.2 47.825 Q1295.35 43.9361 1305.51 43.9361 L1315.96 43.9361 L1315.96 43.2069 Q1315.96 38.0623 1312.56 35.2672 Q1309.2 32.4315 1303.08 32.4315 Q1299.19 32.4315 1295.51 33.3632 Q1291.82 34.295 1288.42 36.1584 L1288.42 29.2718 Q1292.51 27.692 1296.36 26.9223 Q1300.21 26.1121 1303.85 26.1121 Q1313.7 26.1121 1318.56 31.2163 Q1323.42 36.3204 1323.42 46.6907 Z" fill="#000000" fill-rule="evenodd" fill-opacity="1" /><path clip-path="url(#clip290)" d="M 0 0 M1331.24 9.54393 L1338.69 9.54393 L1338.69 72.576 L1331.24 72.576 L1331.24 9.54393 Z" fill="#000000" fill-rule="evenodd" fill-opacity="1" /><path clip-path="url(#clip290)" d="M 0 0 M1381.39 18.8205 L1381.39 65.8515 L1391.27 65.8515 Q1403.79 65.8515 1409.58 60.1802 Q1415.41 54.509 1415.41 42.2752 Q1415.41 30.1225 1409.58 24.4918 Q1403.79 18.8205 1391.27 18.8205 L1381.39 18.8205 M1373.2 12.096 L1390.01 12.096 Q1407.6 12.096 1415.82 19.4281 Q1424.04 26.7198 1424.04 42.2752 Q1424.04 57.9117 1415.78 65.2439 Q1407.51 72.576 1390.01 72.576 L1373.2 72.576 L1373.2 12.096 Z" fill="#000000" fill-rule="evenodd" fill-opacity="1" /><path clip-path="url(#clip290)" d="M 0 0 M1431.86 27.2059 L1439.31 27.2059 L1439.31 72.576 L1431.86 72.576 L1431.86 27.2059 M1431.86 9.54393 L1439.31 9.54393 L1439.31 18.9825 L1431.86 18.9825 L1431.86 9.54393 Z" fill="#000000" fill-rule="evenodd" fill-opacity="1" /><path clip-path="url(#clip290)" d="M 0 0 M1476.06 28.5427 L1476.06 35.5912 Q1472.9 33.9709 1469.49 33.1607 Q1466.09 32.3505 1462.45 32.3505 Q1456.9 32.3505 1454.1 34.0519 Q1451.35 35.7533 1451.35 39.156 Q1451.35 41.7486 1453.33 43.2475 Q1455.32 44.7058 1461.31 46.0426 L1463.86 46.6097 Q1471.8 48.3111 1475.12 51.4303 Q1478.49 54.509 1478.49 60.0587 Q1478.49 66.3781 1473.46 70.0644 Q1468.48 73.7508 1459.73 73.7508 Q1456.09 73.7508 1452.12 73.0216 Q1448.19 72.3329 1443.81 70.9151 L1443.81 63.2184 Q1447.94 65.3654 1451.95 66.4591 Q1455.96 67.5124 1459.89 67.5124 Q1465.16 67.5124 1467.99 65.73 Q1470.83 63.9071 1470.83 60.6258 Q1470.83 57.5877 1468.76 55.9673 Q1466.74 54.3469 1459.81 52.8481 L1457.22 52.2405 Q1450.29 50.7821 1447.21 47.7845 Q1444.13 44.7463 1444.13 39.4801 Q1444.13 33.0797 1448.67 29.5959 Q1453.21 26.1121 1461.55 26.1121 Q1465.69 26.1121 1469.33 26.7198 Q1472.98 27.3274 1476.06 28.5427 Z" fill="#000000" fill-rule="evenodd" fill-opacity="1" /><path clip-path="url(#clip290)" d="M 0 0 M1493.68 14.324 L1493.68 27.2059 L1509.03 27.2059 L1509.03 32.9987 L1493.68 32.9987 L1493.68 57.6282 Q1493.68 63.1779 1495.18 64.7578 Q1496.72 66.3376 1501.37 66.3376 L1509.03 66.3376 L1509.03 72.576 L1501.37 72.576 Q1492.75 72.576 1489.46 69.3758 Q1486.18 66.1351 1486.18 57.6282 L1486.18 32.9987 L1480.71 32.9987 L1480.71 27.2059 L1486.18 27.2059 L1486.18 14.324 L1493.68 14.324 Z" fill="#000000" fill-rule="evenodd" fill-opacity="1" /><path clip-path="url(#clip290)" d="M 0 0 M1543.14 34.1734 Q1541.88 33.4443 1540.38 33.1202 Q1538.93 32.7556 1537.14 32.7556 Q1530.82 32.7556 1527.42 36.8875 Q1524.06 40.9789 1524.06 48.6757 L1524.06 72.576 L1516.57 72.576 L1516.57 27.2059 L1524.06 27.2059 L1524.06 34.2544 Q1526.41 30.1225 1530.18 28.1376 Q1533.94 26.1121 1539.33 26.1121 Q1540.1 26.1121 1541.03 26.2337 Q1541.96 26.3147 1543.1 26.5172 L1543.14 34.1734 Z" fill="#000000" fill-rule="evenodd" fill-opacity="1" /><path clip-path="url(#clip290)" d="M 0 0 M1550.96 27.2059 L1558.41 27.2059 L1558.41 72.576 L1550.96 72.576 L1550.96 27.2059 M1550.96 9.54393 L1558.41 9.54393 L1558.41 18.9825 L1550.96 18.9825 L1550.96 9.54393 Z" fill="#000000" fill-rule="evenodd" fill-opacity="1" /><path clip-path="url(#clip290)" d="M 0 0 M1598.8 49.9314 Q1598.8 41.7081 1595.4 37.0496 Q1592.03 32.3505 1586.12 32.3505 Q1580.2 32.3505 1576.8 37.0496 Q1573.44 41.7081 1573.44 49.9314 Q1573.44 58.1548 1576.8 62.8538 Q1580.2 67.5124 1586.12 67.5124 Q1592.03 67.5124 1595.4 62.8538 Q1598.8 58.1548 1598.8 49.9314 M1573.44 34.0924 Q1575.79 30.0415 1579.35 28.0971 Q1582.96 26.1121 1587.94 26.1121 Q1596.21 26.1121 1601.35 32.6746 Q1606.54 39.2371 1606.54 49.9314 Q1606.54 60.6258 1601.35 67.1883 Q1596.21 73.7508 1587.94 73.7508 Q1582.96 73.7508 1579.35 71.8063 Q1575.79 69.8214 1573.44 65.7705 L1573.44 72.576 L1565.95 72.576 L1565.95 9.54393 L1573.44 9.54393 L1573.44 34.0924 Z" fill="#000000" fill-rule="evenodd" fill-opacity="1" /><path clip-path="url(#clip290)" d="M 0 0 M1613.58 54.671 L1613.58 27.2059 L1621.04 27.2059 L1621.04 54.3874 Q1621.04 60.8284 1623.55 64.0691 Q1626.06 67.2693 1631.08 67.2693 Q1637.12 67.2693 1640.6 63.421 Q1644.13 59.5726 1644.13 52.9291 L1644.13 27.2059 L1651.58 27.2059 L1651.58 72.576 L1644.13 72.576 L1644.13 65.6084 Q1641.41 69.7404 1637.81 71.7658 Q1634.24 73.7508 1629.5 73.7508 Q1621.69 73.7508 1617.64 68.8897 Q1613.58 64.0286 1613.58 54.671 M1632.34 26.1121 L1632.34 26.1121 Z" fill="#000000" fill-rule="evenodd" fill-opacity="1" /><path clip-path="url(#clip290)" d="M 0 0 M1666.77 14.324 L1666.77 27.2059 L1682.13 27.2059 L1682.13 32.9987 L1666.77 32.9987 L1666.77 57.6282 Q1666.77 63.1779 1668.27 64.7578 Q1669.81 66.3376 1674.47 66.3376 L1682.13 66.3376 L1682.13 72.576 L1674.47 72.576 Q1665.84 72.576 1662.56 69.3758 Q1659.28 66.1351 1659.28 57.6282 L1659.28 32.9987 L1653.81 32.9987 L1653.81 27.2059 L1659.28 27.2059 L1659.28 14.324 L1666.77 14.324 Z" fill="#000000" fill-rule="evenodd" fill-opacity="1" /><path clip-path="url(#clip290)" d="M 0 0 M1689.94 27.2059 L1697.4 27.2059 L1697.4 72.576 L1689.94 72.576 L1689.94 27.2059 M1689.94 9.54393 L1697.4 9.54393 L1697.4 18.9825 L1689.94 18.9825 L1689.94 9.54393 Z" fill="#000000" fill-rule="evenodd" fill-opacity="1" /><path clip-path="url(#clip290)" d="M 0 0 M1722.8 32.4315 Q1716.8 32.4315 1713.32 37.1306 Q1709.83 41.7891 1709.83 49.9314 Q1709.83 58.0738 1713.28 62.7728 Q1716.76 67.4314 1722.8 67.4314 Q1728.75 67.4314 1732.24 62.7323 Q1735.72 58.0333 1735.72 49.9314 Q1735.72 41.8701 1732.24 37.1711 Q1728.75 32.4315 1722.8 32.4315 M1722.8 26.1121 Q1732.52 26.1121 1738.07 32.4315 Q1743.62 38.7509 1743.62 49.9314 Q1743.62 61.0714 1738.07 67.4314 Q1732.52 73.7508 1722.8 73.7508 Q1713.03 73.7508 1707.48 67.4314 Q1701.98 61.0714 1701.98 49.9314 Q1701.98 38.7509 1707.48 32.4315 Q1713.03 26.1121 1722.8 26.1121 Z" fill="#000000" fill-rule="evenodd" fill-opacity="1" /><path clip-path="url(#clip290)" d="M 0 0 M1789.15 45.1919 L1789.15 72.576 L1781.7 72.576 L1781.7 45.4349 Q1781.7 38.994 1779.19 35.7938 Q1776.67 32.5936 1771.65 32.5936 Q1765.61 32.5936 1762.13 36.4419 Q1758.65 40.2903 1758.65 46.9338 L1758.65 72.576 L1751.15 72.576 L1751.15 27.2059 L1758.65 27.2059 L1758.65 34.2544 Q1761.32 30.163 1764.93 28.1376 Q1768.57 26.1121 1773.31 26.1121 Q1781.13 26.1121 1785.14 30.9732 Q1789.15 35.7938 1789.15 45.1919 Z" fill="#000000" fill-rule="evenodd" fill-opacity="1" /><polyline clip-path="url(#clip292)" style="stroke:#6b9e32; stroke-width:4; stroke-opacity:1; fill:none" points="
  236.973,346.317 1264.05,162.047 2291.13,1447.87 
  "/>
<circle clip-path="url(#clip292)" cx="236.973" cy="346.317" r="14" fill="#009af9" fill-rule="evenodd" fill-opacity="1" stroke="#000000" stroke-opacity="1" stroke-width="3.2"/>
<circle clip-path="url(#clip292)" cx="1264.05" cy="162.047" r="14" fill="#009af9" fill-rule="evenodd" fill-opacity="1" stroke="#000000" stroke-opacity="1" stroke-width="3.2"/>
<circle clip-path="url(#clip292)" cx="2291.13" cy="1447.87" r="14" fill="#009af9" fill-rule="evenodd" fill-opacity="1" stroke="#000000" stroke-opacity="1" stroke-width="3.2"/>
<circle clip-path="url(#clip292)" cx="236.973" cy="199.562" r="14" fill="#e26f46" fill-rule="evenodd" fill-opacity="1" stroke="#000000" stroke-opacity="1" stroke-width="3.2"/>
<circle clip-path="url(#clip292)" cx="1264.05" cy="471.072" r="14" fill="#e26f46" fill-rule="evenodd" fill-opacity="1" stroke="#000000" stroke-opacity="1" stroke-width="3.2"/>
<circle clip-path="url(#clip292)" cx="2291.13" cy="1285.6" r="14" fill="#e26f46" fill-rule="evenodd" fill-opacity="1" stroke="#000000" stroke-opacity="1" stroke-width="3.2"/>
<path clip-path="url(#clip290)" d="
M1659.56 350.345 L2280.18 350.345 L2280.18 168.905 L1659.56 168.905  Z
  " fill="#ffffff" fill-rule="evenodd" fill-opacity="1"/>
<polyline clip-path="url(#clip290)" style="stroke:#000000; stroke-width:4; stroke-opacity:1; fill:none" points="
  1659.56,350.345 2280.18,350.345 2280.18,168.905 1659.56,168.905 1659.56,350.345 
  "/>
<circle clip-path="url(#clip290)" cx="1756.34" cy="229.385" r="23" fill="#009af9" fill-rule="evenodd" fill-opacity="1" stroke="#000000" stroke-opacity="1" stroke-width="5.12"/>
<circle clip-path="url(#clip290)" cx="1756.34" cy="229.385" r="23" fill="#009af9" fill-rule="evenodd" fill-opacity="1" stroke="#000000" stroke-opacity="1" stroke-width="5.12"/>
<circle clip-path="url(#clip290)" cx="1756.34" cy="229.385" r="23" fill="#009af9" fill-rule="evenodd" fill-opacity="1" stroke="#000000" stroke-opacity="1" stroke-width="5.12"/>
<path clip-path="url(#clip290)" d="M 0 0 M1853.11 212.105 L1860.08 212.105 L1868.9 235.623 L1877.76 212.105 L1884.73 212.105 L1884.73 246.665 L1880.17 246.665 L1880.17 216.318 L1871.26 240.021 L1866.56 240.021 L1857.65 216.318 L1857.65 246.665 L1853.11 246.665 L1853.11 212.105 Z" fill="#000000" fill-rule="evenodd" fill-opacity="1" /><path clip-path="url(#clip290)" d="M 0 0 M1900.93 216.711 L1894.59 233.91 L1907.3 233.91 L1900.93 216.711 M1898.3 212.105 L1903.6 212.105 L1916.77 246.665 L1911.91 246.665 L1908.76 237.799 L1893.18 237.799 L1890.03 246.665 L1885.1 246.665 L1898.3 212.105 Z" fill="#000000" fill-rule="evenodd" fill-opacity="1" /><path clip-path="url(#clip290)" d="M 0 0 M1926.1 215.947 L1926.1 228.933 L1931.98 228.933 Q1935.24 228.933 1937.02 227.243 Q1938.8 225.554 1938.8 222.429 Q1938.8 219.327 1937.02 217.637 Q1935.24 215.947 1931.98 215.947 L1926.1 215.947 M1921.42 212.105 L1931.98 212.105 Q1937.79 212.105 1940.75 214.744 Q1943.73 217.359 1943.73 222.429 Q1943.73 227.544 1940.75 230.16 Q1937.79 232.776 1931.98 232.776 L1926.1 232.776 L1926.1 246.665 L1921.42 246.665 L1921.42 212.105 Z" fill="#000000" fill-rule="evenodd" fill-opacity="1" /><path clip-path="url(#clip290)" d="M 0 0 M1963.46 212.105 L1985.31 212.105 L1985.31 216.04 L1968.13 216.04 L1968.13 226.271 L1984.59 226.271 L1984.59 230.206 L1968.13 230.206 L1968.13 242.729 L1985.73 242.729 L1985.73 246.665 L1963.46 246.665 L1963.46 212.105 Z" fill="#000000" fill-rule="evenodd" fill-opacity="1" /><path clip-path="url(#clip290)" d="M 0 0 M2006.72 221.503 L2006.72 225.531 Q2004.92 224.605 2002.97 224.142 Q2001.03 223.679 1998.94 223.679 Q1995.77 223.679 1994.17 224.651 Q1992.6 225.623 1992.6 227.568 Q1992.6 229.049 1993.73 229.905 Q1994.87 230.739 1998.29 231.503 L1999.75 231.827 Q2004.29 232.799 2006.19 234.581 Q2008.11 236.341 2008.11 239.512 Q2008.11 243.123 2005.24 245.229 Q2002.39 247.336 1997.39 247.336 Q1995.31 247.336 1993.04 246.919 Q1990.79 246.526 1988.29 245.716 L1988.29 241.317 Q1990.66 242.544 1992.95 243.169 Q1995.24 243.771 1997.48 243.771 Q2000.49 243.771 2002.11 242.753 Q2003.73 241.711 2003.73 239.836 Q2003.73 238.1 2002.55 237.174 Q2001.4 236.248 1997.44 235.392 L1995.96 235.044 Q1992 234.211 1990.24 232.498 Q1988.48 230.762 1988.48 227.753 Q1988.48 224.095 1991.07 222.105 Q1993.67 220.114 1998.43 220.114 Q2000.79 220.114 2002.88 220.461 Q2004.96 220.808 2006.72 221.503 Z" fill="#000000" fill-rule="evenodd" fill-opacity="1" /><path clip-path="url(#clip290)" d="M 0 0 M2016.79 213.378 L2016.79 220.739 L2025.56 220.739 L2025.56 224.049 L2016.79 224.049 L2016.79 238.123 Q2016.79 241.294 2017.65 242.197 Q2018.53 243.1 2021.19 243.1 L2025.56 243.1 L2025.56 246.665 L2021.19 246.665 Q2016.26 246.665 2014.38 244.836 Q2012.51 242.984 2012.51 238.123 L2012.51 224.049 L2009.38 224.049 L2009.38 220.739 L2012.51 220.739 L2012.51 213.378 L2016.79 213.378 Z" fill="#000000" fill-rule="evenodd" fill-opacity="1" /><path clip-path="url(#clip290)" d="M 0 0 M2030.03 220.739 L2034.29 220.739 L2034.29 246.665 L2030.03 246.665 L2030.03 220.739 M2030.03 210.646 L2034.29 210.646 L2034.29 216.04 L2030.03 216.04 L2030.03 210.646 Z" fill="#000000" fill-rule="evenodd" fill-opacity="1" /><path clip-path="url(#clip290)" d="M 0 0 M2058.94 225.716 Q2060.54 222.845 2062.76 221.48 Q2064.98 220.114 2067.99 220.114 Q2072.04 220.114 2074.24 222.961 Q2076.44 225.785 2076.44 231.017 L2076.44 246.665 L2072.16 246.665 L2072.16 231.155 Q2072.16 227.429 2070.84 225.623 Q2069.52 223.818 2066.81 223.818 Q2063.5 223.818 2061.58 226.017 Q2059.66 228.216 2059.66 232.012 L2059.66 246.665 L2055.38 246.665 L2055.38 231.155 Q2055.38 227.405 2054.06 225.623 Q2052.74 223.818 2049.98 223.818 Q2046.72 223.818 2044.8 226.04 Q2042.88 228.239 2042.88 232.012 L2042.88 246.665 L2038.6 246.665 L2038.6 220.739 L2042.88 220.739 L2042.88 224.767 Q2044.34 222.382 2046.37 221.248 Q2048.41 220.114 2051.21 220.114 Q2054.04 220.114 2056 221.549 Q2057.99 222.984 2058.94 225.716 Z" fill="#000000" fill-rule="evenodd" fill-opacity="1" /><path clip-path="url(#clip290)" d="M 0 0 M2092.69 233.632 Q2087.53 233.632 2085.54 234.813 Q2083.55 235.993 2083.55 238.841 Q2083.55 241.109 2085.03 242.452 Q2086.53 243.771 2089.1 243.771 Q2092.65 243.771 2094.78 241.271 Q2096.93 238.748 2096.93 234.581 L2096.93 233.632 L2092.69 233.632 M2101.19 231.873 L2101.19 246.665 L2096.93 246.665 L2096.93 242.729 Q2095.47 245.091 2093.29 246.225 Q2091.12 247.336 2087.97 247.336 Q2083.99 247.336 2081.63 245.114 Q2079.29 242.868 2079.29 239.118 Q2079.29 234.743 2082.21 232.521 Q2085.15 230.299 2090.96 230.299 L2096.93 230.299 L2096.93 229.882 Q2096.93 226.943 2094.98 225.345 Q2093.06 223.725 2089.57 223.725 Q2087.35 223.725 2085.24 224.257 Q2083.13 224.79 2081.19 225.855 L2081.19 221.919 Q2083.53 221.017 2085.72 220.577 Q2087.92 220.114 2090.01 220.114 Q2095.63 220.114 2098.41 223.031 Q2101.19 225.947 2101.19 231.873 Z" fill="#000000" fill-rule="evenodd" fill-opacity="1" /><path clip-path="url(#clip290)" d="M 0 0 M2109.87 213.378 L2109.87 220.739 L2118.64 220.739 L2118.64 224.049 L2109.87 224.049 L2109.87 238.123 Q2109.87 241.294 2110.72 242.197 Q2111.6 243.1 2114.27 243.1 L2118.64 243.1 L2118.64 246.665 L2114.27 246.665 Q2109.34 246.665 2107.46 244.836 Q2105.59 242.984 2105.59 238.123 L2105.59 224.049 L2102.46 224.049 L2102.46 220.739 L2105.59 220.739 L2105.59 213.378 L2109.87 213.378 Z" fill="#000000" fill-rule="evenodd" fill-opacity="1" /><path clip-path="url(#clip290)" d="M 0 0 M2123.11 220.739 L2127.37 220.739 L2127.37 246.665 L2123.11 246.665 L2123.11 220.739 M2123.11 210.646 L2127.37 210.646 L2127.37 216.04 L2123.11 216.04 L2123.11 210.646 Z" fill="#000000" fill-rule="evenodd" fill-opacity="1" /><path clip-path="url(#clip290)" d="M 0 0 M2141.88 223.725 Q2138.46 223.725 2136.47 226.41 Q2134.47 229.072 2134.47 233.725 Q2134.47 238.378 2136.44 241.063 Q2138.43 243.725 2141.88 243.725 Q2145.28 243.725 2147.28 241.04 Q2149.27 238.355 2149.27 233.725 Q2149.27 229.118 2147.28 226.433 Q2145.28 223.725 2141.88 223.725 M2141.88 220.114 Q2147.44 220.114 2150.61 223.725 Q2153.78 227.336 2153.78 233.725 Q2153.78 240.091 2150.61 243.725 Q2147.44 247.336 2141.88 247.336 Q2136.3 247.336 2133.13 243.725 Q2129.98 240.091 2129.98 233.725 Q2129.98 227.336 2133.13 223.725 Q2136.3 220.114 2141.88 220.114 Z" fill="#000000" fill-rule="evenodd" fill-opacity="1" /><path clip-path="url(#clip290)" d="M 0 0 M2179.8 231.017 L2179.8 246.665 L2175.54 246.665 L2175.54 231.155 Q2175.54 227.475 2174.1 225.646 Q2172.67 223.818 2169.8 223.818 Q2166.35 223.818 2164.36 226.017 Q2162.37 228.216 2162.37 232.012 L2162.37 246.665 L2158.09 246.665 L2158.09 220.739 L2162.37 220.739 L2162.37 224.767 Q2163.9 222.429 2165.96 221.271 Q2168.04 220.114 2170.75 220.114 Q2175.22 220.114 2177.51 222.892 Q2179.8 225.646 2179.8 231.017 Z" fill="#000000" fill-rule="evenodd" fill-opacity="1" /><circle clip-path="url(#clip290)" cx="1756.34" cy="289.865" r="23" fill="#e26f46" fill-rule="evenodd" fill-opacity="1" stroke="#000000" stroke-opacity="1" stroke-width="5.12"/>
<circle clip-path="url(#clip290)" cx="1756.34" cy="289.865" r="23" fill="#e26f46" fill-rule="evenodd" fill-opacity="1" stroke="#000000" stroke-opacity="1" stroke-width="5.12"/>
<circle clip-path="url(#clip290)" cx="1756.34" cy="289.865" r="23" fill="#e26f46" fill-rule="evenodd" fill-opacity="1" stroke="#000000" stroke-opacity="1" stroke-width="5.12"/>
<path clip-path="url(#clip290)" d="M 0 0 M1878.67 302.214 L1878.67 292.932 L1871.03 292.932 L1871.03 289.089 L1883.3 289.089 L1883.3 303.927 Q1880.59 305.848 1877.32 306.844 Q1874.06 307.816 1870.36 307.816 Q1862.25 307.816 1857.67 303.094 Q1853.11 298.348 1853.11 289.899 Q1853.11 281.427 1857.67 276.705 Q1862.25 271.96 1870.36 271.96 Q1873.74 271.96 1876.77 272.793 Q1879.82 273.626 1882.39 275.247 L1882.39 280.223 Q1879.8 278.024 1876.88 276.913 Q1873.97 275.802 1870.75 275.802 Q1864.41 275.802 1861.21 279.344 Q1858.04 282.886 1858.04 289.899 Q1858.04 296.89 1861.21 300.432 Q1864.41 303.973 1870.75 303.973 Q1873.23 303.973 1875.17 303.557 Q1877.11 303.117 1878.67 302.214 Z" fill="#000000" fill-rule="evenodd" fill-opacity="1" /><path clip-path="url(#clip290)" d="M 0 0 M1887.76 281.219 L1892.02 281.219 L1892.02 307.145 L1887.76 307.145 L1887.76 281.219 M1887.76 271.126 L1892.02 271.126 L1892.02 276.52 L1887.76 276.52 L1887.76 271.126 Z" fill="#000000" fill-rule="evenodd" fill-opacity="1" /><path clip-path="url(#clip290)" d="M 0 0 M1893.43 281.219 L1897.95 281.219 L1906.05 302.978 L1914.15 281.219 L1918.67 281.219 L1908.94 307.145 L1903.16 307.145 L1893.43 281.219 Z" fill="#000000" fill-rule="evenodd" fill-opacity="1" /><path clip-path="url(#clip290)" d="M 0 0 M1945.31 293.117 L1945.31 295.2 L1925.73 295.2 Q1926 299.598 1928.36 301.913 Q1930.75 304.205 1934.98 304.205 Q1937.44 304.205 1939.73 303.603 Q1942.04 303.001 1944.31 301.797 L1944.31 305.825 Q1942.02 306.797 1939.61 307.307 Q1937.21 307.816 1934.73 307.816 Q1928.53 307.816 1924.89 304.205 Q1921.28 300.594 1921.28 294.436 Q1921.28 288.071 1924.71 284.344 Q1928.16 280.594 1933.99 280.594 Q1939.22 280.594 1942.25 283.973 Q1945.31 287.33 1945.31 293.117 M1941.05 291.867 Q1941 288.372 1939.08 286.288 Q1937.18 284.205 1934.04 284.205 Q1930.47 284.205 1928.32 286.219 Q1926.19 288.233 1925.86 291.89 L1941.05 291.867 Z" fill="#000000" fill-rule="evenodd" fill-opacity="1" /><path clip-path="url(#clip290)" d="M 0 0 M1971.33 291.497 L1971.33 307.145 L1967.07 307.145 L1967.07 291.635 Q1967.07 287.955 1965.63 286.126 Q1964.2 284.298 1961.33 284.298 Q1957.88 284.298 1955.89 286.497 Q1953.9 288.696 1953.9 292.492 L1953.9 307.145 L1949.61 307.145 L1949.61 281.219 L1953.9 281.219 L1953.9 285.247 Q1955.42 282.909 1957.48 281.751 Q1959.57 280.594 1962.28 280.594 Q1966.74 280.594 1969.04 283.372 Q1971.33 286.126 1971.33 291.497 Z" fill="#000000" fill-rule="evenodd" fill-opacity="1" /><path clip-path="url(#clip290)" d="M 0 0 M1995.73 276.427 L1995.73 289.413 L2001.6 289.413 Q2004.87 289.413 2006.65 287.723 Q2008.43 286.034 2008.43 282.909 Q2008.43 279.807 2006.65 278.117 Q2004.87 276.427 2001.6 276.427 L1995.73 276.427 M1991.05 272.585 L2001.6 272.585 Q2007.42 272.585 2010.38 275.224 Q2013.36 277.839 2013.36 282.909 Q2013.36 288.024 2010.38 290.64 Q2007.42 293.256 2001.6 293.256 L1995.73 293.256 L1995.73 307.145 L1991.05 307.145 L1991.05 272.585 Z" fill="#000000" fill-rule="evenodd" fill-opacity="1" /><path clip-path="url(#clip290)" d="M 0 0 M2032.02 285.2 Q2031.3 284.784 2030.45 284.598 Q2029.61 284.39 2028.6 284.39 Q2024.98 284.39 2023.04 286.751 Q2021.12 289.089 2021.12 293.487 L2021.12 307.145 L2016.84 307.145 L2016.84 281.219 L2021.12 281.219 L2021.12 285.247 Q2022.46 282.886 2024.61 281.751 Q2026.77 280.594 2029.85 280.594 Q2030.29 280.594 2030.82 280.663 Q2031.35 280.71 2032 280.825 L2032.02 285.2 Z" fill="#000000" fill-rule="evenodd" fill-opacity="1" /><path clip-path="url(#clip290)" d="M 0 0 M2045.49 284.205 Q2042.07 284.205 2040.08 286.89 Q2038.09 289.552 2038.09 294.205 Q2038.09 298.858 2040.05 301.543 Q2042.04 304.205 2045.49 304.205 Q2048.9 304.205 2050.89 301.52 Q2052.88 298.835 2052.88 294.205 Q2052.88 289.598 2050.89 286.913 Q2048.9 284.205 2045.49 284.205 M2045.49 280.594 Q2051.05 280.594 2054.22 284.205 Q2057.39 287.816 2057.39 294.205 Q2057.39 300.571 2054.22 304.205 Q2051.05 307.816 2045.49 307.816 Q2039.91 307.816 2036.74 304.205 Q2033.6 300.571 2033.6 294.205 Q2033.6 287.816 2036.74 284.205 Q2039.91 280.594 2045.49 280.594 Z" fill="#000000" fill-rule="evenodd" fill-opacity="1" /><path clip-path="url(#clip290)" d="M 0 0 M2065.98 303.256 L2065.98 317.006 L2061.7 317.006 L2061.7 281.219 L2065.98 281.219 L2065.98 285.154 Q2067.32 282.839 2069.36 281.728 Q2071.42 280.594 2074.27 280.594 Q2078.99 280.594 2081.93 284.344 Q2084.89 288.094 2084.89 294.205 Q2084.89 300.316 2081.93 304.066 Q2078.99 307.816 2074.27 307.816 Q2071.42 307.816 2069.36 306.705 Q2067.32 305.571 2065.98 303.256 M2080.47 294.205 Q2080.47 289.506 2078.53 286.844 Q2076.6 284.159 2073.22 284.159 Q2069.85 284.159 2067.9 286.844 Q2065.98 289.506 2065.98 294.205 Q2065.98 298.904 2067.9 301.589 Q2069.85 304.251 2073.22 304.251 Q2076.6 304.251 2078.53 301.589 Q2080.47 298.904 2080.47 294.205 Z" fill="#000000" fill-rule="evenodd" fill-opacity="1" /><path clip-path="url(#clip290)" d="M 0 0 M2099.41 284.205 Q2095.98 284.205 2093.99 286.89 Q2092 289.552 2092 294.205 Q2092 298.858 2093.97 301.543 Q2095.96 304.205 2099.41 304.205 Q2102.81 304.205 2104.8 301.52 Q2106.79 298.835 2106.79 294.205 Q2106.79 289.598 2104.8 286.913 Q2102.81 284.205 2099.41 284.205 M2099.41 280.594 Q2104.96 280.594 2108.13 284.205 Q2111.3 287.816 2111.3 294.205 Q2111.3 300.571 2108.13 304.205 Q2104.96 307.816 2099.41 307.816 Q2093.83 307.816 2090.66 304.205 Q2087.51 300.571 2087.51 294.205 Q2087.51 287.816 2090.66 284.205 Q2093.83 280.594 2099.41 280.594 Z" fill="#000000" fill-rule="evenodd" fill-opacity="1" /><path clip-path="url(#clip290)" d="M 0 0 M2130.79 285.2 Q2130.08 284.784 2129.22 284.598 Q2128.39 284.39 2127.37 284.39 Q2123.76 284.39 2121.81 286.751 Q2119.89 289.089 2119.89 293.487 L2119.89 307.145 L2115.61 307.145 L2115.61 281.219 L2119.89 281.219 L2119.89 285.247 Q2121.23 282.886 2123.39 281.751 Q2125.54 280.594 2128.62 280.594 Q2129.06 280.594 2129.59 280.663 Q2130.12 280.71 2130.77 280.825 L2130.79 285.2 Z" fill="#000000" fill-rule="evenodd" fill-opacity="1" /><path clip-path="url(#clip290)" d="M 0 0 M2139.47 273.858 L2139.47 281.219 L2148.25 281.219 L2148.25 284.529 L2139.47 284.529 L2139.47 298.603 Q2139.47 301.774 2140.33 302.677 Q2141.21 303.58 2143.87 303.58 L2148.25 303.58 L2148.25 307.145 L2143.87 307.145 Q2138.94 307.145 2137.07 305.316 Q2135.19 303.464 2135.19 298.603 L2135.19 284.529 L2132.07 284.529 L2132.07 281.219 L2135.19 281.219 L2135.19 273.858 L2139.47 273.858 Z" fill="#000000" fill-rule="evenodd" fill-opacity="1" /><path clip-path="url(#clip290)" d="M 0 0 M2152.72 281.219 L2156.97 281.219 L2156.97 307.145 L2152.72 307.145 L2152.72 281.219 M2152.72 271.126 L2156.97 271.126 L2156.97 276.52 L2152.72 276.52 L2152.72 271.126 Z" fill="#000000" fill-rule="evenodd" fill-opacity="1" /><path clip-path="url(#clip290)" d="M 0 0 M2171.49 284.205 Q2168.06 284.205 2166.07 286.89 Q2164.08 289.552 2164.08 294.205 Q2164.08 298.858 2166.05 301.543 Q2168.04 304.205 2171.49 304.205 Q2174.89 304.205 2176.88 301.52 Q2178.87 298.835 2178.87 294.205 Q2178.87 289.598 2176.88 286.913 Q2174.89 284.205 2171.49 284.205 M2171.49 280.594 Q2177.04 280.594 2180.22 284.205 Q2183.39 287.816 2183.39 294.205 Q2183.39 300.571 2180.22 304.205 Q2177.04 307.816 2171.49 307.816 Q2165.91 307.816 2162.74 304.205 Q2159.59 300.571 2159.59 294.205 Q2159.59 287.816 2162.74 284.205 Q2165.91 280.594 2171.49 280.594 Z" fill="#000000" fill-rule="evenodd" fill-opacity="1" /><path clip-path="url(#clip290)" d="M 0 0 M2209.4 291.497 L2209.4 307.145 L2205.15 307.145 L2205.15 291.635 Q2205.15 287.955 2203.71 286.126 Q2202.28 284.298 2199.4 284.298 Q2195.96 284.298 2193.96 286.497 Q2191.97 288.696 2191.97 292.492 L2191.97 307.145 L2187.69 307.145 L2187.69 281.219 L2191.97 281.219 L2191.97 285.247 Q2193.5 282.909 2195.56 281.751 Q2197.65 280.594 2200.35 280.594 Q2204.82 280.594 2207.11 283.372 Q2209.4 286.126 2209.4 291.497 Z" fill="#000000" fill-rule="evenodd" fill-opacity="1" /><path clip-path="url(#clip290)" d="M 0 0 M2230.4 281.983 L2230.4 286.011 Q2228.59 285.085 2226.65 284.622 Q2224.71 284.159 2222.62 284.159 Q2219.45 284.159 2217.85 285.131 Q2216.28 286.103 2216.28 288.048 Q2216.28 289.529 2217.41 290.385 Q2218.55 291.219 2221.97 291.983 L2223.43 292.307 Q2227.97 293.279 2229.87 295.061 Q2231.79 296.821 2231.79 299.992 Q2231.79 303.603 2228.92 305.709 Q2226.07 307.816 2221.07 307.816 Q2218.99 307.816 2216.72 307.399 Q2214.47 307.006 2211.97 306.196 L2211.97 301.797 Q2214.34 303.024 2216.63 303.649 Q2218.92 304.251 2221.16 304.251 Q2224.17 304.251 2225.79 303.233 Q2227.41 302.191 2227.41 300.316 Q2227.41 298.58 2226.23 297.654 Q2225.08 296.728 2221.12 295.872 L2219.64 295.524 Q2215.68 294.691 2213.92 292.978 Q2212.16 291.242 2212.16 288.233 Q2212.16 284.575 2214.75 282.585 Q2217.34 280.594 2222.11 280.594 Q2224.47 280.594 2226.56 280.941 Q2228.64 281.288 2230.4 281.983 Z" fill="#000000" fill-rule="evenodd" fill-opacity="1" /></svg>
