<?xml version="1.0" encoding="utf-8"?>
<svg xmlns="http://www.w3.org/2000/svg" xmlns:xlink="http://www.w3.org/1999/xlink" width="600" height="400" viewBox="0 0 2400 1600">
<defs>
  <clipPath id="clip990">
    <rect x="0" y="0" width="2400" height="1600"/>
  </clipPath>
</defs>
<path clip-path="url(#clip990)" d="
M0 1600 L2400 1600 L2400 0 L0 0  Z
  " fill="#ffffff" fill-rule="evenodd" fill-opacity="1"/>
<defs>
  <clipPath id="clip991">
    <rect x="480" y="0" width="1681" height="1600"/>
  </clipPath>
</defs>
<path clip-path="url(#clip990)" d="
M148.334 1486.45 L2352.76 1486.45 L2352.76 123.472 L148.334 123.472  Z
  " fill="#ffffff" fill-rule="evenodd" fill-opacity="1"/>
<defs>
  <clipPath id="clip992">
    <rect x="148" y="123" width="2205" height="1364"/>
  </clipPath>
</defs>
<polyline clip-path="url(#clip992)" style="stroke:#000000; stroke-width:2; stroke-opacity:0.1; fill:none" points="
  210.724,1486.45 210.724,123.472 
  "/>
<polyline clip-path="url(#clip992)" style="stroke:#000000; stroke-width:2; stroke-opacity:0.1; fill:none" points="
  730.634,1486.45 730.634,123.472 
  "/>
<polyline clip-path="url(#clip992)" style="stroke:#000000; stroke-width:2; stroke-opacity:0.1; fill:none" points="
  1250.55,1486.45 1250.55,123.472 
  "/>
<polyline clip-path="url(#clip992)" style="stroke:#000000; stroke-width:2; stroke-opacity:0.1; fill:none" points="
  1770.46,1486.45 1770.46,123.472 
  "/>
<polyline clip-path="url(#clip992)" style="stroke:#000000; stroke-width:2; stroke-opacity:0.1; fill:none" points="
  2290.37,1486.45 2290.37,123.472 
  "/>
<polyline clip-path="url(#clip992)" style="stroke:#000000; stroke-width:2; stroke-opacity:0.1; fill:none" points="
  148.334,1484.61 2352.76,1484.61 
  "/>
<polyline clip-path="url(#clip992)" style="stroke:#000000; stroke-width:2; stroke-opacity:0.1; fill:none" points="
  148.334,1117.23 2352.76,1117.23 
  "/>
<polyline clip-path="url(#clip992)" style="stroke:#000000; stroke-width:2; stroke-opacity:0.1; fill:none" points="
  148.334,749.853 2352.76,749.853 
  "/>
<polyline clip-path="url(#clip992)" style="stroke:#000000; stroke-width:2; stroke-opacity:0.1; fill:none" points="
  148.334,382.474 2352.76,382.474 
  "/>
<polyline clip-path="url(#clip990)" style="stroke:#000000; stroke-width:4; stroke-opacity:1; fill:none" points="
  148.334,1486.45 2352.76,1486.45 
  "/>
<polyline clip-path="url(#clip990)" style="stroke:#000000; stroke-width:4; stroke-opacity:1; fill:none" points="
  148.334,1486.45 148.334,123.472 
  "/>
<polyline clip-path="url(#clip990)" style="stroke:#000000; stroke-width:4; stroke-opacity:1; fill:none" points="
  210.724,1486.45 210.724,1470.09 
  "/>
<polyline clip-path="url(#clip990)" style="stroke:#000000; stroke-width:4; stroke-opacity:1; fill:none" points="
  730.634,1486.45 730.634,1470.09 
  "/>
<polyline clip-path="url(#clip990)" style="stroke:#000000; stroke-width:4; stroke-opacity:1; fill:none" points="
  1250.55,1486.45 1250.55,1470.09 
  "/>
<polyline clip-path="url(#clip990)" style="stroke:#000000; stroke-width:4; stroke-opacity:1; fill:none" points="
  1770.46,1486.45 1770.46,1470.09 
  "/>
<polyline clip-path="url(#clip990)" style="stroke:#000000; stroke-width:4; stroke-opacity:1; fill:none" points="
  2290.37,1486.45 2290.37,1470.09 
  "/>
<polyline clip-path="url(#clip990)" style="stroke:#000000; stroke-width:4; stroke-opacity:1; fill:none" points="
  148.334,1484.61 174.787,1484.61 
  "/>
<polyline clip-path="url(#clip990)" style="stroke:#000000; stroke-width:4; stroke-opacity:1; fill:none" points="
  148.334,1117.23 174.787,1117.23 
  "/>
<polyline clip-path="url(#clip990)" style="stroke:#000000; stroke-width:4; stroke-opacity:1; fill:none" points="
  148.334,749.853 174.787,749.853 
  "/>
<polyline clip-path="url(#clip990)" style="stroke:#000000; stroke-width:4; stroke-opacity:1; fill:none" points="
  148.334,382.474 174.787,382.474 
  "/>
<path clip-path="url(#clip990)" d="M 0 0 M192.24 1508.44 Q188.629 1508.44 186.8 1512 Q184.995 1515.55 184.995 1522.67 Q184.995 1529.78 186.8 1533.35 Q188.629 1536.89 192.24 1536.89 Q195.874 1536.89 197.68 1533.35 Q199.508 1529.78 199.508 1522.67 Q199.508 1515.55 197.68 1512 Q195.874 1508.44 192.24 1508.44 M192.24 1504.73 Q198.05 1504.73 201.106 1509.34 Q204.184 1513.92 204.184 1522.67 Q204.184 1531.4 201.106 1536.01 Q198.05 1540.59 192.24 1540.59 Q186.43 1540.59 183.351 1536.01 Q180.296 1531.4 180.296 1522.67 Q180.296 1513.92 183.351 1509.34 Q186.43 1504.73 192.24 1504.73 Z" fill="#000000" fill-rule="evenodd" fill-opacity="1" /><path clip-path="url(#clip990)" d="M 0 0 M209.254 1534.04 L214.138 1534.04 L214.138 1539.92 L209.254 1539.92 L209.254 1534.04 Z" fill="#000000" fill-rule="evenodd" fill-opacity="1" /><path clip-path="url(#clip990)" d="M 0 0 M229.207 1508.44 Q225.596 1508.44 223.768 1512 Q221.962 1515.55 221.962 1522.67 Q221.962 1529.78 223.768 1533.35 Q225.596 1536.89 229.207 1536.89 Q232.842 1536.89 234.647 1533.35 Q236.476 1529.78 236.476 1522.67 Q236.476 1515.55 234.647 1512 Q232.842 1508.44 229.207 1508.44 M229.207 1504.73 Q235.018 1504.73 238.073 1509.34 Q241.152 1513.92 241.152 1522.67 Q241.152 1531.4 238.073 1536.01 Q235.018 1540.59 229.207 1540.59 Q223.397 1540.59 220.319 1536.01 Q217.263 1531.4 217.263 1522.67 Q217.263 1513.92 220.319 1509.34 Q223.397 1504.73 229.207 1504.73 Z" fill="#000000" fill-rule="evenodd" fill-opacity="1" /><path clip-path="url(#clip990)" d="M 0 0 M712.648 1508.44 Q709.037 1508.44 707.209 1512 Q705.403 1515.55 705.403 1522.67 Q705.403 1529.78 707.209 1533.35 Q709.037 1536.89 712.648 1536.89 Q716.283 1536.89 718.088 1533.35 Q719.917 1529.78 719.917 1522.67 Q719.917 1515.55 718.088 1512 Q716.283 1508.44 712.648 1508.44 M712.648 1504.73 Q718.459 1504.73 721.514 1509.34 Q724.593 1513.92 724.593 1522.67 Q724.593 1531.4 721.514 1536.01 Q718.459 1540.59 712.648 1540.59 Q706.838 1540.59 703.76 1536.01 Q700.704 1531.4 700.704 1522.67 Q700.704 1513.92 703.76 1509.34 Q706.838 1504.73 712.648 1504.73 Z" fill="#000000" fill-rule="evenodd" fill-opacity="1" /><path clip-path="url(#clip990)" d="M 0 0 M729.662 1534.04 L734.546 1534.04 L734.546 1539.92 L729.662 1539.92 L729.662 1534.04 Z" fill="#000000" fill-rule="evenodd" fill-opacity="1" /><path clip-path="url(#clip990)" d="M 0 0 M739.662 1505.36 L758.019 1505.36 L758.019 1509.3 L743.945 1509.3 L743.945 1517.77 Q744.963 1517.42 745.982 1517.26 Q747 1517.07 748.019 1517.07 Q753.806 1517.07 757.185 1520.24 Q760.565 1523.42 760.565 1528.83 Q760.565 1534.41 757.093 1537.51 Q753.62 1540.59 747.301 1540.59 Q745.125 1540.59 742.857 1540.22 Q740.611 1539.85 738.204 1539.11 L738.204 1534.41 Q740.287 1535.54 742.509 1536.1 Q744.732 1536.66 747.208 1536.66 Q751.213 1536.66 753.551 1534.55 Q755.889 1532.44 755.889 1528.83 Q755.889 1525.22 753.551 1523.11 Q751.213 1521.01 747.208 1521.01 Q745.333 1521.01 743.458 1521.42 Q741.607 1521.84 739.662 1522.72 L739.662 1505.36 Z" fill="#000000" fill-rule="evenodd" fill-opacity="1" /><path clip-path="url(#clip990)" d="M 0 0 M1222.44 1535.98 L1230.08 1535.98 L1230.08 1509.62 L1221.77 1511.29 L1221.77 1507.03 L1230.04 1505.36 L1234.71 1505.36 L1234.71 1535.98 L1242.35 1535.98 L1242.35 1539.92 L1222.44 1539.92 L1222.44 1535.98 Z" fill="#000000" fill-rule="evenodd" fill-opacity="1" /><path clip-path="url(#clip990)" d="M 0 0 M1247.42 1534.04 L1252.3 1534.04 L1252.3 1539.92 L1247.42 1539.92 L1247.42 1534.04 Z" fill="#000000" fill-rule="evenodd" fill-opacity="1" /><path clip-path="url(#clip990)" d="M 0 0 M1267.37 1508.44 Q1263.76 1508.44 1261.93 1512 Q1260.13 1515.55 1260.13 1522.67 Q1260.13 1529.78 1261.93 1533.35 Q1263.76 1536.89 1267.37 1536.89 Q1271.01 1536.89 1272.81 1533.35 Q1274.64 1529.78 1274.64 1522.67 Q1274.64 1515.55 1272.81 1512 Q1271.01 1508.44 1267.37 1508.44 M1267.37 1504.73 Q1273.18 1504.73 1276.24 1509.34 Q1279.32 1513.92 1279.32 1522.67 Q1279.32 1531.4 1276.24 1536.01 Q1273.18 1540.59 1267.37 1540.59 Q1261.56 1540.59 1258.48 1536.01 Q1255.43 1531.4 1255.43 1522.67 Q1255.43 1513.92 1258.48 1509.34 Q1261.56 1504.73 1267.37 1504.73 Z" fill="#000000" fill-rule="evenodd" fill-opacity="1" /><path clip-path="url(#clip990)" d="M 0 0 M1742.85 1535.98 L1750.49 1535.98 L1750.49 1509.62 L1742.18 1511.29 L1742.18 1507.03 L1750.44 1505.36 L1755.12 1505.36 L1755.12 1535.98 L1762.76 1535.98 L1762.76 1539.92 L1742.85 1539.92 L1742.85 1535.98 Z" fill="#000000" fill-rule="evenodd" fill-opacity="1" /><path clip-path="url(#clip990)" d="M 0 0 M1767.83 1534.04 L1772.71 1534.04 L1772.71 1539.92 L1767.83 1539.92 L1767.83 1534.04 Z" fill="#000000" fill-rule="evenodd" fill-opacity="1" /><path clip-path="url(#clip990)" d="M 0 0 M1777.83 1505.36 L1796.18 1505.36 L1796.18 1509.3 L1782.11 1509.3 L1782.11 1517.77 Q1783.13 1517.42 1784.15 1517.26 Q1785.17 1517.07 1786.18 1517.07 Q1791.97 1517.07 1795.35 1520.24 Q1798.73 1523.42 1798.73 1528.83 Q1798.73 1534.41 1795.26 1537.51 Q1791.79 1540.59 1785.47 1540.59 Q1783.29 1540.59 1781.02 1540.22 Q1778.78 1539.85 1776.37 1539.11 L1776.37 1534.41 Q1778.45 1535.54 1780.68 1536.1 Q1782.9 1536.66 1785.37 1536.66 Q1789.38 1536.66 1791.72 1534.55 Q1794.06 1532.44 1794.06 1528.83 Q1794.06 1525.22 1791.72 1523.11 Q1789.38 1521.01 1785.37 1521.01 Q1783.5 1521.01 1781.62 1521.42 Q1779.77 1521.84 1777.83 1522.72 L1777.83 1505.36 Z" fill="#000000" fill-rule="evenodd" fill-opacity="1" /><path clip-path="url(#clip990)" d="M 0 0 M2266.54 1535.98 L2282.86 1535.98 L2282.86 1539.92 L2260.91 1539.92 L2260.91 1535.98 Q2263.57 1533.23 2268.16 1528.6 Q2272.76 1523.95 2273.94 1522.61 Q2276.19 1520.08 2277.07 1518.35 Q2277.97 1516.59 2277.97 1514.9 Q2277.97 1512.14 2276.03 1510.41 Q2274.11 1508.67 2271 1508.67 Q2268.8 1508.67 2266.35 1509.43 Q2263.92 1510.2 2261.14 1511.75 L2261.14 1507.03 Q2263.97 1505.89 2266.42 1505.31 Q2268.87 1504.73 2270.91 1504.73 Q2276.28 1504.73 2279.48 1507.42 Q2282.67 1510.11 2282.67 1514.6 Q2282.67 1516.73 2281.86 1518.65 Q2281.07 1520.54 2278.97 1523.14 Q2278.39 1523.81 2275.29 1527.03 Q2272.18 1530.22 2266.54 1535.98 Z" fill="#000000" fill-rule="evenodd" fill-opacity="1" /><path clip-path="url(#clip990)" d="M 0 0 M2287.92 1534.04 L2292.81 1534.04 L2292.81 1539.92 L2287.92 1539.92 L2287.92 1534.04 Z" fill="#000000" fill-rule="evenodd" fill-opacity="1" /><path clip-path="url(#clip990)" d="M 0 0 M2307.88 1508.44 Q2304.27 1508.44 2302.44 1512 Q2300.63 1515.55 2300.63 1522.67 Q2300.63 1529.78 2302.44 1533.35 Q2304.27 1536.89 2307.88 1536.89 Q2311.51 1536.89 2313.32 1533.35 Q2315.15 1529.78 2315.15 1522.67 Q2315.15 1515.55 2313.32 1512 Q2311.51 1508.44 2307.88 1508.44 M2307.88 1504.73 Q2313.69 1504.73 2316.74 1509.34 Q2319.82 1513.92 2319.82 1522.67 Q2319.82 1531.4 2316.74 1536.01 Q2313.69 1540.59 2307.88 1540.59 Q2302.07 1540.59 2298.99 1536.01 Q2295.93 1531.4 2295.93 1522.67 Q2295.93 1513.92 2298.99 1509.34 Q2302.07 1504.73 2307.88 1504.73 Z" fill="#000000" fill-rule="evenodd" fill-opacity="1" /><path clip-path="url(#clip990)" d="M 0 0 M75.4226 1470.41 Q71.8115 1470.41 69.9828 1473.97 Q68.1773 1477.52 68.1773 1484.65 Q68.1773 1491.75 69.9828 1495.32 Q71.8115 1498.86 75.4226 1498.86 Q79.0569 1498.86 80.8624 1495.32 Q82.6911 1491.75 82.6911 1484.65 Q82.6911 1477.52 80.8624 1473.97 Q79.0569 1470.41 75.4226 1470.41 M75.4226 1466.71 Q81.2328 1466.71 84.2883 1471.31 Q87.367 1475.9 87.367 1484.65 Q87.367 1493.37 84.2883 1497.98 Q81.2328 1502.56 75.4226 1502.56 Q69.6125 1502.56 66.5338 1497.98 Q63.4782 1493.37 63.4782 1484.65 Q63.4782 1475.9 66.5338 1471.31 Q69.6125 1466.71 75.4226 1466.71 Z" fill="#000000" fill-rule="evenodd" fill-opacity="1" /><path clip-path="url(#clip990)" d="M 0 0 M92.4364 1496.01 L97.3206 1496.01 L97.3206 1501.89 L92.4364 1501.89 L92.4364 1496.01 Z" fill="#000000" fill-rule="evenodd" fill-opacity="1" /><path clip-path="url(#clip990)" d="M 0 0 M112.39 1470.41 Q108.779 1470.41 106.95 1473.97 Q105.145 1477.52 105.145 1484.65 Q105.145 1491.75 106.95 1495.32 Q108.779 1498.86 112.39 1498.86 Q116.024 1498.86 117.83 1495.32 Q119.658 1491.75 119.658 1484.65 Q119.658 1477.52 117.83 1473.97 Q116.024 1470.41 112.39 1470.41 M112.39 1466.71 Q118.2 1466.71 121.256 1471.31 Q124.334 1475.9 124.334 1484.65 Q124.334 1493.37 121.256 1497.98 Q118.2 1502.56 112.39 1502.56 Q106.58 1502.56 103.501 1497.98 Q100.446 1493.37 100.446 1484.65 Q100.446 1475.9 103.501 1471.31 Q106.58 1466.71 112.39 1466.71 Z" fill="#000000" fill-rule="evenodd" fill-opacity="1" /><path clip-path="url(#clip990)" d="M 0 0 M77.0198 1103.03 Q73.4087 1103.03 71.58 1106.6 Q69.7745 1110.14 69.7745 1117.27 Q69.7745 1124.37 71.58 1127.94 Q73.4087 1131.48 77.0198 1131.48 Q80.6541 1131.48 82.4596 1127.94 Q84.2883 1124.37 84.2883 1117.27 Q84.2883 1110.14 82.4596 1106.6 Q80.6541 1103.03 77.0198 1103.03 M77.0198 1099.33 Q82.83 1099.33 85.8855 1103.93 Q88.9642 1108.52 88.9642 1117.27 Q88.9642 1125.99 85.8855 1130.6 Q82.83 1135.18 77.0198 1135.18 Q71.2097 1135.18 68.131 1130.6 Q65.0754 1125.99 65.0754 1117.27 Q65.0754 1108.52 68.131 1103.93 Q71.2097 1099.33 77.0198 1099.33 Z" fill="#000000" fill-rule="evenodd" fill-opacity="1" /><path clip-path="url(#clip990)" d="M 0 0 M94.0336 1128.63 L98.9179 1128.63 L98.9179 1134.51 L94.0336 1134.51 L94.0336 1128.63 Z" fill="#000000" fill-rule="evenodd" fill-opacity="1" /><path clip-path="url(#clip990)" d="M 0 0 M108.015 1130.58 L124.334 1130.58 L124.334 1134.51 L102.39 1134.51 L102.39 1130.58 Q105.052 1127.82 109.635 1123.19 Q114.242 1118.54 115.422 1117.2 Q117.668 1114.67 118.547 1112.94 Q119.45 1111.18 119.45 1109.49 Q119.45 1106.73 117.506 1105 Q115.584 1103.26 112.483 1103.26 Q110.284 1103.26 107.83 1104.03 Q105.399 1104.79 102.622 1106.34 L102.622 1101.62 Q105.446 1100.48 107.899 1099.91 Q110.353 1099.33 112.39 1099.33 Q117.76 1099.33 120.955 1102.01 Q124.149 1104.7 124.149 1109.19 Q124.149 1111.32 123.339 1113.24 Q122.552 1115.14 120.446 1117.73 Q119.867 1118.4 116.765 1121.62 Q113.663 1124.81 108.015 1130.58 Z" fill="#000000" fill-rule="evenodd" fill-opacity="1" /><path clip-path="url(#clip990)" d="M 0 0 M74.9365 735.652 Q71.3254 735.652 69.4967 739.217 Q67.6912 742.758 67.6912 749.888 Q67.6912 756.994 69.4967 760.559 Q71.3254 764.101 74.9365 764.101 Q78.5707 764.101 80.3763 760.559 Q82.205 756.994 82.205 749.888 Q82.205 742.758 80.3763 739.217 Q78.5707 735.652 74.9365 735.652 M74.9365 731.948 Q80.7467 731.948 83.8022 736.555 Q86.8809 741.138 86.8809 749.888 Q86.8809 758.615 83.8022 763.221 Q80.7467 767.804 74.9365 767.804 Q69.1264 767.804 66.0477 763.221 Q62.9921 758.615 62.9921 749.888 Q62.9921 741.138 66.0477 736.555 Q69.1264 731.948 74.9365 731.948 Z" fill="#000000" fill-rule="evenodd" fill-opacity="1" /><path clip-path="url(#clip990)" d="M 0 0 M91.9503 761.254 L96.8345 761.254 L96.8345 767.133 L91.9503 767.133 L91.9503 761.254 Z" fill="#000000" fill-rule="evenodd" fill-opacity="1" /><path clip-path="url(#clip990)" d="M 0 0 M114.751 736.647 L102.946 755.096 L114.751 755.096 L114.751 736.647 M113.524 732.573 L119.404 732.573 L119.404 755.096 L124.334 755.096 L124.334 758.985 L119.404 758.985 L119.404 767.133 L114.751 767.133 L114.751 758.985 L99.1493 758.985 L99.1493 754.471 L113.524 732.573 Z" fill="#000000" fill-rule="evenodd" fill-opacity="1" /><path clip-path="url(#clip990)" d="M 0 0 M75.2606 368.273 Q71.6495 368.273 69.8208 371.838 Q68.0152 375.379 68.0152 382.509 Q68.0152 389.615 69.8208 393.18 Q71.6495 396.722 75.2606 396.722 Q78.8948 396.722 80.7004 393.18 Q82.5291 389.615 82.5291 382.509 Q82.5291 375.379 80.7004 371.838 Q78.8948 368.273 75.2606 368.273 M75.2606 364.569 Q81.0707 364.569 84.1263 369.176 Q87.205 373.759 87.205 382.509 Q87.205 391.236 84.1263 395.842 Q81.0707 400.426 75.2606 400.426 Q69.4504 400.426 66.3717 395.842 Q63.3162 391.236 63.3162 382.509 Q63.3162 373.759 66.3717 369.176 Q69.4504 364.569 75.2606 364.569 Z" fill="#000000" fill-rule="evenodd" fill-opacity="1" /><path clip-path="url(#clip990)" d="M 0 0 M92.2744 393.875 L97.1586 393.875 L97.1586 399.754 L92.2744 399.754 L92.2744 393.875 Z" fill="#000000" fill-rule="evenodd" fill-opacity="1" /><path clip-path="url(#clip990)" d="M 0 0 M112.807 380.611 Q109.659 380.611 107.807 382.764 Q105.978 384.916 105.978 388.666 Q105.978 392.393 107.807 394.569 Q109.659 396.722 112.807 396.722 Q115.955 396.722 117.783 394.569 Q119.635 392.393 119.635 388.666 Q119.635 384.916 117.783 382.764 Q115.955 380.611 112.807 380.611 M122.089 365.958 L122.089 370.217 Q120.33 369.384 118.524 368.944 Q116.742 368.504 114.983 368.504 Q110.353 368.504 107.899 371.629 Q105.469 374.754 105.122 381.074 Q106.487 379.06 108.547 377.995 Q110.608 376.907 113.084 376.907 Q118.293 376.907 121.302 380.078 Q124.334 383.227 124.334 388.666 Q124.334 393.99 121.186 397.208 Q118.038 400.426 112.807 400.426 Q106.811 400.426 103.64 395.842 Q100.469 391.236 100.469 382.509 Q100.469 374.315 104.358 369.453 Q108.247 364.569 114.797 364.569 Q116.557 364.569 118.339 364.916 Q120.145 365.264 122.089 365.958 Z" fill="#000000" fill-rule="evenodd" fill-opacity="1" /><path clip-path="url(#clip990)" d="M 0 0 M727.229 18.8205 L727.229 41.5461 L737.518 41.5461 Q743.23 41.5461 746.349 38.5889 Q749.469 35.6318 749.469 30.163 Q749.469 24.7348 746.349 21.7777 Q743.23 18.8205 737.518 18.8205 L727.229 18.8205 M719.046 12.096 L737.518 12.096 Q747.686 12.096 752.871 16.714 Q758.097 21.2916 758.097 30.163 Q758.097 39.1155 752.871 43.6931 Q747.686 48.2706 737.518 48.2706 L727.229 48.2706 L727.229 72.576 L719.046 72.576 L719.046 12.096 Z" fill="#000000" fill-rule="evenodd" fill-opacity="1" /><path clip-path="url(#clip990)" d="M 0 0 M780.539 32.4315 Q774.544 32.4315 771.06 37.1306 Q767.576 41.7891 767.576 49.9314 Q767.576 58.0738 771.019 62.7728 Q774.503 67.4314 780.539 67.4314 Q786.494 67.4314 789.978 62.7323 Q793.461 58.0333 793.461 49.9314 Q793.461 41.8701 789.978 37.1711 Q786.494 32.4315 780.539 32.4315 M780.539 26.1121 Q790.261 26.1121 795.811 32.4315 Q801.361 38.7509 801.361 49.9314 Q801.361 61.0714 795.811 67.4314 Q790.261 73.7508 780.539 73.7508 Q770.776 73.7508 765.227 67.4314 Q759.717 61.0714 759.717 49.9314 Q759.717 38.7509 765.227 32.4315 Q770.776 26.1121 780.539 26.1121 Z" fill="#000000" fill-rule="evenodd" fill-opacity="1" /><path clip-path="url(#clip990)" d="M 0 0 M809.179 27.2059 L816.633 27.2059 L816.633 72.576 L809.179 72.576 L809.179 27.2059 M809.179 9.54393 L816.633 9.54393 L816.633 18.9825 L809.179 18.9825 L809.179 9.54393 Z" fill="#000000" fill-rule="evenodd" fill-opacity="1" /><path clip-path="url(#clip990)" d="M 0 0 M853.374 28.5427 L853.374 35.5912 Q850.215 33.9709 846.812 33.1607 Q843.409 32.3505 839.763 32.3505 Q834.213 32.3505 831.418 34.0519 Q828.664 35.7533 828.664 39.156 Q828.664 41.7486 830.649 43.2475 Q832.634 44.7058 838.629 46.0426 L841.181 46.6097 Q849.121 48.3111 852.443 51.4303 Q855.805 54.509 855.805 60.0587 Q855.805 66.3781 850.782 70.0644 Q845.799 73.7508 837.049 73.7508 Q833.403 73.7508 829.433 73.0216 Q825.504 72.3329 821.129 70.9151 L821.129 63.2184 Q825.261 65.3654 829.271 66.4591 Q833.282 67.5124 837.211 67.5124 Q842.477 67.5124 845.313 65.73 Q848.149 63.9071 848.149 60.6258 Q848.149 57.5877 846.083 55.9673 Q844.057 54.3469 837.13 52.8481 L834.538 52.2405 Q827.61 50.7821 824.532 47.7845 Q821.453 44.7463 821.453 39.4801 Q821.453 33.0797 825.99 29.5959 Q830.527 26.1121 838.872 26.1121 Q843.004 26.1121 846.65 26.7198 Q850.296 27.3274 853.374 28.5427 Z" fill="#000000" fill-rule="evenodd" fill-opacity="1" /><path clip-path="url(#clip990)" d="M 0 0 M892.546 28.5427 L892.546 35.5912 Q889.387 33.9709 885.984 33.1607 Q882.581 32.3505 878.935 32.3505 Q873.386 32.3505 870.591 34.0519 Q867.836 35.7533 867.836 39.156 Q867.836 41.7486 869.821 43.2475 Q871.806 44.7058 877.801 46.0426 L880.353 46.6097 Q888.293 48.3111 891.615 51.4303 Q894.977 54.509 894.977 60.0587 Q894.977 66.3781 889.954 70.0644 Q884.971 73.7508 876.221 73.7508 Q872.576 73.7508 868.606 73.0216 Q864.676 72.3329 860.301 70.9151 L860.301 63.2184 Q864.433 65.3654 868.444 66.4591 Q872.454 67.5124 876.383 67.5124 Q881.65 67.5124 884.485 65.73 Q887.321 63.9071 887.321 60.6258 Q887.321 57.5877 885.255 55.9673 Q883.229 54.3469 876.302 52.8481 L873.71 52.2405 Q866.783 50.7821 863.704 47.7845 Q860.625 44.7463 860.625 39.4801 Q860.625 33.0797 865.162 29.5959 Q869.699 26.1121 878.044 26.1121 Q882.176 26.1121 885.822 26.7198 Q889.468 27.3274 892.546 28.5427 Z" fill="#000000" fill-rule="evenodd" fill-opacity="1" /><path clip-path="url(#clip990)" d="M 0 0 M920.376 32.4315 Q914.381 32.4315 910.897 37.1306 Q907.413 41.7891 907.413 49.9314 Q907.413 58.0738 910.857 62.7728 Q914.34 67.4314 920.376 67.4314 Q926.331 67.4314 929.815 62.7323 Q933.299 58.0333 933.299 49.9314 Q933.299 41.8701 929.815 37.1711 Q926.331 32.4315 920.376 32.4315 M920.376 26.1121 Q930.098 26.1121 935.648 32.4315 Q941.198 38.7509 941.198 49.9314 Q941.198 61.0714 935.648 67.4314 Q930.098 73.7508 920.376 73.7508 Q910.614 73.7508 905.064 67.4314 Q899.555 61.0714 899.555 49.9314 Q899.555 38.7509 905.064 32.4315 Q910.614 26.1121 920.376 26.1121 Z" fill="#000000" fill-rule="evenodd" fill-opacity="1" /><path clip-path="url(#clip990)" d="M 0 0 M986.73 45.1919 L986.73 72.576 L979.276 72.576 L979.276 45.4349 Q979.276 38.994 976.765 35.7938 Q974.253 32.5936 969.23 32.5936 Q963.194 32.5936 959.71 36.4419 Q956.227 40.2903 956.227 46.9338 L956.227 72.576 L948.733 72.576 L948.733 27.2059 L956.227 27.2059 L956.227 34.2544 Q958.9 30.163 962.506 28.1376 Q966.151 26.1121 970.891 26.1121 Q978.709 26.1121 982.72 30.9732 Q986.73 35.7938 986.73 45.1919 Z" fill="#000000" fill-rule="evenodd" fill-opacity="1" /><path clip-path="url(#clip990)" d="M 0 0 M1003.06 43.6931 L1003.06 65.8515 L1016.18 65.8515 Q1022.78 65.8515 1025.94 63.1374 Q1029.14 60.3828 1029.14 54.752 Q1029.14 49.0808 1025.94 46.4072 Q1022.78 43.6931 1016.18 43.6931 L1003.06 43.6931 M1003.06 18.8205 L1003.06 37.0496 L1015.17 37.0496 Q1021.16 37.0496 1024.08 34.8216 Q1027.04 32.5531 1027.04 27.935 Q1027.04 23.3575 1024.08 21.089 Q1021.16 18.8205 1015.17 18.8205 L1003.06 18.8205 M994.872 12.096 L1015.77 12.096 Q1025.13 12.096 1030.2 15.9849 Q1035.26 19.8737 1035.26 27.0438 Q1035.26 32.5936 1032.67 35.8748 Q1030.07 39.156 1025.05 39.9662 Q1031.09 41.2625 1034.41 45.3944 Q1037.77 49.4858 1037.77 55.6432 Q1037.77 63.745 1032.26 68.1605 Q1026.75 72.576 1016.59 72.576 L994.872 72.576 L994.872 12.096 Z" fill="#000000" fill-rule="evenodd" fill-opacity="1" /><path clip-path="url(#clip990)" d="M 0 0 M1045.59 27.2059 L1053.04 27.2059 L1053.04 72.576 L1045.59 72.576 L1045.59 27.2059 M1045.59 9.54393 L1053.04 9.54393 L1053.04 18.9825 L1045.59 18.9825 L1045.59 9.54393 Z" fill="#000000" fill-rule="evenodd" fill-opacity="1" /><path clip-path="url(#clip990)" d="M 0 0 M1098.58 45.1919 L1098.58 72.576 L1091.12 72.576 L1091.12 45.4349 Q1091.12 38.994 1088.61 35.7938 Q1086.1 32.5936 1081.08 32.5936 Q1075.04 32.5936 1071.56 36.4419 Q1068.07 40.2903 1068.07 46.9338 L1068.07 72.576 L1060.58 72.576 L1060.58 27.2059 L1068.07 27.2059 L1068.07 34.2544 Q1070.75 30.163 1074.35 28.1376 Q1078 26.1121 1082.74 26.1121 Q1090.55 26.1121 1094.57 30.9732 Q1098.58 35.7938 1098.58 45.1919 Z" fill="#000000" fill-rule="evenodd" fill-opacity="1" /><path clip-path="url(#clip990)" d="M 0 0 M1123.97 32.4315 Q1117.98 32.4315 1114.5 37.1306 Q1111.01 41.7891 1111.01 49.9314 Q1111.01 58.0738 1114.46 62.7728 Q1117.94 67.4314 1123.97 67.4314 Q1129.93 67.4314 1133.41 62.7323 Q1136.9 58.0333 1136.9 49.9314 Q1136.9 41.8701 1133.41 37.1711 Q1129.93 32.4315 1123.97 32.4315 M1123.97 26.1121 Q1133.7 26.1121 1139.25 32.4315 Q1144.8 38.7509 1144.8 49.9314 Q1144.8 61.0714 1139.25 67.4314 Q1133.7 73.7508 1123.97 73.7508 Q1114.21 73.7508 1108.66 67.4314 Q1103.15 61.0714 1103.15 49.9314 Q1103.15 38.7509 1108.66 32.4315 Q1114.21 26.1121 1123.97 26.1121 Z" fill="#000000" fill-rule="evenodd" fill-opacity="1" /><path clip-path="url(#clip990)" d="M 0 0 M1187.94 35.9153 Q1190.73 30.8922 1194.62 28.5022 Q1198.51 26.1121 1203.78 26.1121 Q1210.87 26.1121 1214.71 31.0947 Q1218.56 36.0368 1218.56 45.1919 L1218.56 72.576 L1211.07 72.576 L1211.07 45.4349 Q1211.07 38.913 1208.76 35.7533 Q1206.45 32.5936 1201.71 32.5936 Q1195.92 32.5936 1192.56 36.4419 Q1189.19 40.2903 1189.19 46.9338 L1189.19 72.576 L1181.7 72.576 L1181.7 45.4349 Q1181.7 38.8725 1179.39 35.7533 Q1177.08 32.5936 1172.26 32.5936 Q1166.55 32.5936 1163.19 36.4824 Q1159.83 40.3308 1159.83 46.9338 L1159.83 72.576 L1152.33 72.576 L1152.33 27.2059 L1159.83 27.2059 L1159.83 34.2544 Q1162.38 30.082 1165.94 28.0971 Q1169.51 26.1121 1174.41 26.1121 Q1179.35 26.1121 1182.79 28.6237 Q1186.28 31.1352 1187.94 35.9153 Z" fill="#000000" fill-rule="evenodd" fill-opacity="1" /><path clip-path="url(#clip990)" d="M 0 0 M1226.38 27.2059 L1233.84 27.2059 L1233.84 72.576 L1226.38 72.576 L1226.38 27.2059 M1226.38 9.54393 L1233.84 9.54393 L1233.84 18.9825 L1226.38 18.9825 L1226.38 9.54393 Z" fill="#000000" fill-rule="evenodd" fill-opacity="1" /><path clip-path="url(#clip990)" d="M 0 0 M1262.27 49.7694 Q1253.24 49.7694 1249.76 51.8354 Q1246.27 53.9013 1246.27 58.8839 Q1246.27 62.8538 1248.86 65.2034 Q1251.5 67.5124 1255.99 67.5124 Q1262.19 67.5124 1265.92 63.1374 Q1269.69 58.7219 1269.69 51.4303 L1269.69 49.7694 L1262.27 49.7694 M1277.14 46.6907 L1277.14 72.576 L1269.69 72.576 L1269.69 65.6895 Q1267.13 69.8214 1263.33 71.8063 Q1259.52 73.7508 1254.01 73.7508 Q1247.04 73.7508 1242.91 69.8619 Q1238.82 65.9325 1238.82 59.3701 Q1238.82 51.7138 1243.92 47.825 Q1249.07 43.9361 1259.23 43.9361 L1269.69 43.9361 L1269.69 43.2069 Q1269.69 38.0623 1266.28 35.2672 Q1262.92 32.4315 1256.8 32.4315 Q1252.91 32.4315 1249.23 33.3632 Q1245.54 34.295 1242.14 36.1584 L1242.14 29.2718 Q1246.23 27.692 1250.08 26.9223 Q1253.93 26.1121 1257.57 26.1121 Q1267.42 26.1121 1272.28 31.2163 Q1277.14 36.3204 1277.14 46.6907 Z" fill="#000000" fill-rule="evenodd" fill-opacity="1" /><path clip-path="url(#clip990)" d="M 0 0 M1284.96 9.54393 L1292.41 9.54393 L1292.41 72.576 L1284.96 72.576 L1284.96 9.54393 Z" fill="#000000" fill-rule="evenodd" fill-opacity="1" /><path clip-path="url(#clip990)" d="M 0 0 M1335.11 18.8205 L1335.11 65.8515 L1344.99 65.8515 Q1357.51 65.8515 1363.3 60.1802 Q1369.14 54.509 1369.14 42.2752 Q1369.14 30.1225 1363.3 24.4918 Q1357.51 18.8205 1344.99 18.8205 L1335.11 18.8205 M1326.92 12.096 L1343.74 12.096 Q1361.32 12.096 1369.54 19.4281 Q1377.76 26.7198 1377.76 42.2752 Q1377.76 57.9117 1369.5 65.2439 Q1361.24 72.576 1343.74 72.576 L1326.92 72.576 L1326.92 12.096 Z" fill="#000000" fill-rule="evenodd" fill-opacity="1" /><path clip-path="url(#clip990)" d="M 0 0 M1385.58 27.2059 L1393.04 27.2059 L1393.04 72.576 L1385.58 72.576 L1385.58 27.2059 M1385.58 9.54393 L1393.04 9.54393 L1393.04 18.9825 L1385.58 18.9825 L1385.58 9.54393 Z" fill="#000000" fill-rule="evenodd" fill-opacity="1" /><path clip-path="url(#clip990)" d="M 0 0 M1429.78 28.5427 L1429.78 35.5912 Q1426.62 33.9709 1423.21 33.1607 Q1419.81 32.3505 1416.17 32.3505 Q1410.62 32.3505 1407.82 34.0519 Q1405.07 35.7533 1405.07 39.156 Q1405.07 41.7486 1407.05 43.2475 Q1409.04 44.7058 1415.03 46.0426 L1417.58 46.6097 Q1425.52 48.3111 1428.85 51.4303 Q1432.21 54.509 1432.21 60.0587 Q1432.21 66.3781 1427.18 70.0644 Q1422.2 73.7508 1413.45 73.7508 Q1409.81 73.7508 1405.84 73.0216 Q1401.91 72.3329 1397.53 70.9151 L1397.53 63.2184 Q1401.66 65.3654 1405.67 66.4591 Q1409.68 67.5124 1413.61 67.5124 Q1418.88 67.5124 1421.72 65.73 Q1424.55 63.9071 1424.55 60.6258 Q1424.55 57.5877 1422.49 55.9673 Q1420.46 54.3469 1413.53 52.8481 L1410.94 52.2405 Q1404.01 50.7821 1400.93 47.7845 Q1397.86 44.7463 1397.86 39.4801 Q1397.86 33.0797 1402.39 29.5959 Q1406.93 26.1121 1415.28 26.1121 Q1419.41 26.1121 1423.05 26.7198 Q1426.7 27.3274 1429.78 28.5427 Z" fill="#000000" fill-rule="evenodd" fill-opacity="1" /><path clip-path="url(#clip990)" d="M 0 0 M1447.4 14.324 L1447.4 27.2059 L1462.75 27.2059 L1462.75 32.9987 L1447.4 32.9987 L1447.4 57.6282 Q1447.4 63.1779 1448.9 64.7578 Q1450.44 66.3376 1455.1 66.3376 L1462.75 66.3376 L1462.75 72.576 L1455.1 72.576 Q1446.47 72.576 1443.19 69.3758 Q1439.9 66.1351 1439.9 57.6282 L1439.9 32.9987 L1434.44 32.9987 L1434.44 27.2059 L1439.9 27.2059 L1439.9 14.324 L1447.4 14.324 Z" fill="#000000" fill-rule="evenodd" fill-opacity="1" /><path clip-path="url(#clip990)" d="M 0 0 M1496.86 34.1734 Q1495.6 33.4443 1494.11 33.1202 Q1492.65 32.7556 1490.87 32.7556 Q1484.55 32.7556 1481.14 36.8875 Q1477.78 40.9789 1477.78 48.6757 L1477.78 72.576 L1470.29 72.576 L1470.29 27.2059 L1477.78 27.2059 L1477.78 34.2544 Q1480.13 30.1225 1483.9 28.1376 Q1487.66 26.1121 1493.05 26.1121 Q1493.82 26.1121 1494.75 26.2337 Q1495.69 26.3147 1496.82 26.5172 L1496.86 34.1734 Z" fill="#000000" fill-rule="evenodd" fill-opacity="1" /><path clip-path="url(#clip990)" d="M 0 0 M1504.68 27.2059 L1512.13 27.2059 L1512.13 72.576 L1504.68 72.576 L1504.68 27.2059 M1504.68 9.54393 L1512.13 9.54393 L1512.13 18.9825 L1504.68 18.9825 L1504.68 9.54393 Z" fill="#000000" fill-rule="evenodd" fill-opacity="1" /><path clip-path="url(#clip990)" d="M 0 0 M1552.52 49.9314 Q1552.52 41.7081 1549.12 37.0496 Q1545.75 32.3505 1539.84 32.3505 Q1533.93 32.3505 1530.52 37.0496 Q1527.16 41.7081 1527.16 49.9314 Q1527.16 58.1548 1530.52 62.8538 Q1533.93 67.5124 1539.84 67.5124 Q1545.75 67.5124 1549.12 62.8538 Q1552.52 58.1548 1552.52 49.9314 M1527.16 34.0924 Q1529.51 30.0415 1533.08 28.0971 Q1536.68 26.1121 1541.66 26.1121 Q1549.93 26.1121 1555.07 32.6746 Q1560.26 39.2371 1560.26 49.9314 Q1560.26 60.6258 1555.07 67.1883 Q1549.93 73.7508 1541.66 73.7508 Q1536.68 73.7508 1533.08 71.8063 Q1529.51 69.8214 1527.16 65.7705 L1527.16 72.576 L1519.67 72.576 L1519.67 9.54393 L1527.16 9.54393 L1527.16 34.0924 Z" fill="#000000" fill-rule="evenodd" fill-opacity="1" /><path clip-path="url(#clip990)" d="M 0 0 M1567.31 54.671 L1567.31 27.2059 L1574.76 27.2059 L1574.76 54.3874 Q1574.76 60.8284 1577.27 64.0691 Q1579.78 67.2693 1584.81 67.2693 Q1590.84 67.2693 1594.33 63.421 Q1597.85 59.5726 1597.85 52.9291 L1597.85 27.2059 L1605.3 27.2059 L1605.3 72.576 L1597.85 72.576 L1597.85 65.6084 Q1595.14 69.7404 1591.53 71.7658 Q1587.97 73.7508 1583.23 73.7508 Q1575.41 73.7508 1571.36 68.8897 Q1567.31 64.0286 1567.31 54.671 M1586.06 26.1121 L1586.06 26.1121 Z" fill="#000000" fill-rule="evenodd" fill-opacity="1" /><path clip-path="url(#clip990)" d="M 0 0 M1620.49 14.324 L1620.49 27.2059 L1635.85 27.2059 L1635.85 32.9987 L1620.49 32.9987 L1620.49 57.6282 Q1620.49 63.1779 1621.99 64.7578 Q1623.53 66.3376 1628.19 66.3376 L1635.85 66.3376 L1635.85 72.576 L1628.19 72.576 Q1619.56 72.576 1616.28 69.3758 Q1613 66.1351 1613 57.6282 L1613 32.9987 L1607.53 32.9987 L1607.53 27.2059 L1613 27.2059 L1613 14.324 L1620.49 14.324 Z" fill="#000000" fill-rule="evenodd" fill-opacity="1" /><path clip-path="url(#clip990)" d="M 0 0 M1643.67 27.2059 L1651.12 27.2059 L1651.12 72.576 L1643.67 72.576 L1643.67 27.2059 M1643.67 9.54393 L1651.12 9.54393 L1651.12 18.9825 L1643.67 18.9825 L1643.67 9.54393 Z" fill="#000000" fill-rule="evenodd" fill-opacity="1" /><path clip-path="url(#clip990)" d="M 0 0 M1676.52 32.4315 Q1670.52 32.4315 1667.04 37.1306 Q1663.56 41.7891 1663.56 49.9314 Q1663.56 58.0738 1667 62.7728 Q1670.48 67.4314 1676.52 67.4314 Q1682.47 67.4314 1685.96 62.7323 Q1689.44 58.0333 1689.44 49.9314 Q1689.44 41.8701 1685.96 37.1711 Q1682.47 32.4315 1676.52 32.4315 M1676.52 26.1121 Q1686.24 26.1121 1691.79 32.4315 Q1697.34 38.7509 1697.34 49.9314 Q1697.34 61.0714 1691.79 67.4314 Q1686.24 73.7508 1676.52 73.7508 Q1666.76 73.7508 1661.21 67.4314 Q1655.7 61.0714 1655.7 49.9314 Q1655.7 38.7509 1661.21 32.4315 Q1666.76 26.1121 1676.52 26.1121 Z" fill="#000000" fill-rule="evenodd" fill-opacity="1" /><path clip-path="url(#clip990)" d="M 0 0 M1742.87 45.1919 L1742.87 72.576 L1735.42 72.576 L1735.42 45.4349 Q1735.42 38.994 1732.91 35.7938 Q1730.4 32.5936 1725.37 32.5936 Q1719.34 32.5936 1715.85 36.4419 Q1712.37 40.2903 1712.37 46.9338 L1712.37 72.576 L1704.87 72.576 L1704.87 27.2059 L1712.37 27.2059 L1712.37 34.2544 Q1715.04 30.163 1718.65 28.1376 Q1722.29 26.1121 1727.03 26.1121 Q1734.85 26.1121 1738.86 30.9732 Q1742.87 35.7938 1742.87 45.1919 Z" fill="#000000" fill-rule="evenodd" fill-opacity="1" /><path clip-path="url(#clip990)" d="M 0 0 M1779.61 28.5427 L1779.61 35.5912 Q1776.45 33.9709 1773.05 33.1607 Q1769.65 32.3505 1766 32.3505 Q1760.45 32.3505 1757.66 34.0519 Q1754.9 35.7533 1754.9 39.156 Q1754.9 41.7486 1756.89 43.2475 Q1758.87 44.7058 1764.87 46.0426 L1767.42 46.6097 Q1775.36 48.3111 1778.68 51.4303 Q1782.04 54.509 1782.04 60.0587 Q1782.04 66.3781 1777.02 70.0644 Q1772.04 73.7508 1763.29 73.7508 Q1759.64 73.7508 1755.67 73.0216 Q1751.74 72.3329 1747.37 70.9151 L1747.37 63.2184 Q1751.5 65.3654 1755.51 66.4591 Q1759.52 67.5124 1763.45 67.5124 Q1768.72 67.5124 1771.55 65.73 Q1774.39 63.9071 1774.39 60.6258 Q1774.39 57.5877 1772.32 55.9673 Q1770.3 54.3469 1763.37 52.8481 L1760.78 52.2405 Q1753.85 50.7821 1750.77 47.7845 Q1747.69 44.7463 1747.69 39.4801 Q1747.69 33.0797 1752.23 29.5959 Q1756.77 26.1121 1765.11 26.1121 Q1769.24 26.1121 1772.89 26.7198 Q1776.53 27.3274 1779.61 28.5427 Z" fill="#000000" fill-rule="evenodd" fill-opacity="1" /><polyline clip-path="url(#clip992)" style="stroke:#6b9e32; stroke-width:4; stroke-opacity:1; fill:none" points="
  210.724,162.047 1250.55,1007.02 2290.37,1447.87 
  "/>
<circle clip-path="url(#clip992)" cx="210.724" cy="162.047" r="14" fill="#009af9" fill-rule="evenodd" fill-opacity="1" stroke="#000000" stroke-opacity="1" stroke-width="3.2"/>
<circle clip-path="url(#clip992)" cx="1250.55" cy="1007.02" r="14" fill="#009af9" fill-rule="evenodd" fill-opacity="1" stroke="#000000" stroke-opacity="1" stroke-width="3.2"/>
<circle clip-path="url(#clip992)" cx="2290.37" cy="1447.87" r="14" fill="#009af9" fill-rule="evenodd" fill-opacity="1" stroke="#000000" stroke-opacity="1" stroke-width="3.2"/>
<polyline clip-path="url(#clip992)" style="stroke:#009af9; stroke-width:4; stroke-opacity:1; fill:none" points="
  210.724,658.008 1250.55,566.164 2290.37,1392.77 
  "/>
<circle clip-path="url(#clip992)" cx="210.724" cy="658.008" r="14" fill="#e26f46" fill-rule="evenodd" fill-opacity="1" stroke="#000000" stroke-opacity="1" stroke-width="3.2"/>
<circle clip-path="url(#clip992)" cx="1250.55" cy="566.164" r="14" fill="#e26f46" fill-rule="evenodd" fill-opacity="1" stroke="#000000" stroke-opacity="1" stroke-width="3.2"/>
<circle clip-path="url(#clip992)" cx="2290.37" cy="1392.77" r="14" fill="#e26f46" fill-rule="evenodd" fill-opacity="1" stroke="#000000" stroke-opacity="1" stroke-width="3.2"/>
<polyline clip-path="url(#clip992)" style="stroke:#e26f46; stroke-width:4; stroke-opacity:1; fill:none" points="
  210.724,1374.4 1250.55,419.212 2290.37,823.329 
  "/>
<circle clip-path="url(#clip992)" cx="210.724" cy="1374.4" r="14" fill="#3da44d" fill-rule="evenodd" fill-opacity="1" stroke="#000000" stroke-opacity="1" stroke-width="3.2"/>
<circle clip-path="url(#clip992)" cx="1250.55" cy="419.212" r="14" fill="#3da44d" fill-rule="evenodd" fill-opacity="1" stroke="#000000" stroke-opacity="1" stroke-width="3.2"/>
<circle clip-path="url(#clip992)" cx="2290.37" cy="823.329" r="14" fill="#3da44d" fill-rule="evenodd" fill-opacity="1" stroke="#000000" stroke-opacity="1" stroke-width="3.2"/>
<polyline clip-path="url(#clip992)" style="stroke:#3da44d; stroke-width:4; stroke-opacity:1; fill:none" points="
  210.724,1319.29 1250.55,713.115 2290.37,584.533 
  "/>
<circle clip-path="url(#clip992)" cx="210.724" cy="1319.29" r="14" fill="#c271d2" fill-rule="evenodd" fill-opacity="1" stroke="#000000" stroke-opacity="1" stroke-width="3.2"/>
<circle clip-path="url(#clip992)" cx="1250.55" cy="713.115" r="14" fill="#c271d2" fill-rule="evenodd" fill-opacity="1" stroke="#000000" stroke-opacity="1" stroke-width="3.2"/>
<circle clip-path="url(#clip992)" cx="2290.37" cy="584.533" r="14" fill="#c271d2" fill-rule="evenodd" fill-opacity="1" stroke="#000000" stroke-opacity="1" stroke-width="3.2"/>
<path clip-path="url(#clip990)" d="
M1644.11 471.305 L2279.28 471.305 L2279.28 168.905 L1644.11 168.905  Z
  " fill="#ffffff" fill-rule="evenodd" fill-opacity="1"/>
<polyline clip-path="url(#clip990)" style="stroke:#000000; stroke-width:4; stroke-opacity:1; fill:none" points="
  1644.11,471.305 2279.28,471.305 2279.28,168.905 1644.11,168.905 1644.11,471.305 
  "/>
<circle clip-path="url(#clip990)" cx="1742.08" cy="229.385" r="23" fill="#009af9" fill-rule="evenodd" fill-opacity="1" stroke="#000000" stroke-opacity="1" stroke-width="5.12"/>
<circle clip-path="url(#clip990)" cx="1742.08" cy="229.385" r="23" fill="#009af9" fill-rule="evenodd" fill-opacity="1" stroke="#000000" stroke-opacity="1" stroke-width="5.12"/>
<circle clip-path="url(#clip990)" cx="1742.08" cy="229.385" r="23" fill="#009af9" fill-rule="evenodd" fill-opacity="1" stroke="#000000" stroke-opacity="1" stroke-width="5.12"/>
<path clip-path="url(#clip990)" d="M 0 0 M1840.06 212.105 L1844.73 212.105 L1844.73 242.729 L1861.56 242.729 L1861.56 246.665 L1840.06 246.665 L1840.06 212.105 Z" fill="#000000" fill-rule="evenodd" fill-opacity="1" /><path clip-path="url(#clip990)" d="M 0 0 M1875.24 223.725 Q1871.82 223.725 1869.83 226.41 Q1867.84 229.072 1867.84 233.725 Q1867.84 238.378 1869.8 241.063 Q1871.79 243.725 1875.24 243.725 Q1878.65 243.725 1880.64 241.04 Q1882.63 238.355 1882.63 233.725 Q1882.63 229.118 1880.64 226.433 Q1878.65 223.725 1875.24 223.725 M1875.24 220.114 Q1880.8 220.114 1883.97 223.725 Q1887.14 227.336 1887.14 233.725 Q1887.14 240.091 1883.97 243.725 Q1880.8 247.336 1875.24 247.336 Q1869.66 247.336 1866.49 243.725 Q1863.35 240.091 1863.35 233.725 Q1863.35 227.336 1866.49 223.725 Q1869.66 220.114 1875.24 220.114 Z" fill="#000000" fill-rule="evenodd" fill-opacity="1" /><path clip-path="url(#clip990)" d="M 0 0 M1889.13 220.739 L1893.39 220.739 L1898.72 240.97 L1904.02 220.739 L1909.04 220.739 L1914.36 240.97 L1919.66 220.739 L1923.92 220.739 L1917.14 246.665 L1912.12 246.665 L1906.54 225.415 L1900.94 246.665 L1895.91 246.665 L1889.13 220.739 Z" fill="#000000" fill-rule="evenodd" fill-opacity="1" /><path clip-path="url(#clip990)" d="M 0 0 M1935.96 212.105 L1939.9 212.105 L1927.86 251.063 L1923.92 251.063 L1935.96 212.105 Z" fill="#000000" fill-rule="evenodd" fill-opacity="1" /><path clip-path="url(#clip990)" d="M 0 0 M1944.55 212.105 L1949.22 212.105 L1949.22 242.729 L1966.05 242.729 L1966.05 246.665 L1944.55 246.665 L1944.55 212.105 Z" fill="#000000" fill-rule="evenodd" fill-opacity="1" /><path clip-path="url(#clip990)" d="M 0 0 M1979.73 223.725 Q1976.31 223.725 1974.32 226.41 Q1972.33 229.072 1972.33 233.725 Q1972.33 238.378 1974.29 241.063 Q1976.28 243.725 1979.73 243.725 Q1983.14 243.725 1985.13 241.04 Q1987.12 238.355 1987.12 233.725 Q1987.12 229.118 1985.13 226.433 Q1983.14 223.725 1979.73 223.725 M1979.73 220.114 Q1985.29 220.114 1988.46 223.725 Q1991.63 227.336 1991.63 233.725 Q1991.63 240.091 1988.46 243.725 Q1985.29 247.336 1979.73 247.336 Q1974.16 247.336 1970.98 243.725 Q1967.84 240.091 1967.84 233.725 Q1967.84 227.336 1970.98 223.725 Q1974.16 220.114 1979.73 220.114 Z" fill="#000000" fill-rule="evenodd" fill-opacity="1" /><path clip-path="url(#clip990)" d="M 0 0 M1993.62 220.739 L1997.88 220.739 L2003.21 240.97 L2008.51 220.739 L2013.53 220.739 L2018.85 240.97 L2024.15 220.739 L2028.41 220.739 L2021.63 246.665 L2016.61 246.665 L2011.03 225.415 L2005.43 246.665 L2000.41 246.665 L1993.62 220.739 Z" fill="#000000" fill-rule="evenodd" fill-opacity="1" /><path clip-path="url(#clip990)" d="M 0 0 M2058.18 210.693 Q2055.08 216.017 2053.58 221.225 Q2052.07 226.433 2052.07 231.78 Q2052.07 237.128 2053.58 242.382 Q2055.1 247.614 2058.18 252.915 L2054.48 252.915 Q2051.01 247.475 2049.27 242.22 Q2047.56 236.966 2047.56 231.78 Q2047.56 226.618 2049.27 221.387 Q2050.98 216.156 2054.48 210.693 L2058.18 210.693 Z" fill="#000000" fill-rule="evenodd" fill-opacity="1" /><path clip-path="url(#clip990)" d="M 0 0 M2073.25 215.183 Q2069.64 215.183 2067.81 218.748 Q2066.01 222.29 2066.01 229.419 Q2066.01 236.526 2067.81 240.091 Q2069.64 243.632 2073.25 243.632 Q2076.89 243.632 2078.69 240.091 Q2080.52 236.526 2080.52 229.419 Q2080.52 222.29 2078.69 218.748 Q2076.89 215.183 2073.25 215.183 M2073.25 211.48 Q2079.06 211.48 2082.12 216.086 Q2085.2 220.669 2085.2 229.419 Q2085.2 238.146 2082.12 242.753 Q2079.06 247.336 2073.25 247.336 Q2067.44 247.336 2064.36 242.753 Q2061.31 238.146 2061.31 229.419 Q2061.31 220.669 2064.36 216.086 Q2067.44 211.48 2073.25 211.48 Z" fill="#000000" fill-rule="evenodd" fill-opacity="1" /><path clip-path="url(#clip990)" d="M 0 0 M2090.27 240.785 L2095.15 240.785 L2095.15 246.665 L2090.27 246.665 L2090.27 240.785 Z" fill="#000000" fill-rule="evenodd" fill-opacity="1" /><path clip-path="url(#clip990)" d="M 0 0 M2101.03 242.729 L2108.67 242.729 L2108.67 216.364 L2100.36 218.031 L2100.36 213.771 L2108.62 212.105 L2113.3 212.105 L2113.3 242.729 L2120.94 242.729 L2120.94 246.665 L2101.03 246.665 L2101.03 242.729 Z" fill="#000000" fill-rule="evenodd" fill-opacity="1" /><path clip-path="url(#clip990)" d="M 0 0 M2126.49 240.785 L2131.38 240.785 L2131.38 244.767 L2127.58 252.174 L2124.59 252.174 L2126.49 244.767 L2126.49 240.785 Z" fill="#000000" fill-rule="evenodd" fill-opacity="1" /><path clip-path="url(#clip990)" d="M 0 0 M2161.52 215.183 Q2157.9 215.183 2156.08 218.748 Q2154.27 222.29 2154.27 229.419 Q2154.27 236.526 2156.08 240.091 Q2157.9 243.632 2161.52 243.632 Q2165.15 243.632 2166.96 240.091 Q2168.78 236.526 2168.78 229.419 Q2168.78 222.29 2166.96 218.748 Q2165.15 215.183 2161.52 215.183 M2161.52 211.48 Q2167.33 211.48 2170.38 216.086 Q2173.46 220.669 2173.46 229.419 Q2173.46 238.146 2170.38 242.753 Q2167.33 247.336 2161.52 247.336 Q2155.71 247.336 2152.63 242.753 Q2149.57 238.146 2149.57 229.419 Q2149.57 220.669 2152.63 216.086 Q2155.71 211.48 2161.52 211.48 Z" fill="#000000" fill-rule="evenodd" fill-opacity="1" /><path clip-path="url(#clip990)" d="M 0 0 M2178.53 240.785 L2183.41 240.785 L2183.41 246.665 L2178.53 246.665 L2178.53 240.785 Z" fill="#000000" fill-rule="evenodd" fill-opacity="1" /><path clip-path="url(#clip990)" d="M 0 0 M2192.51 242.729 L2208.83 242.729 L2208.83 246.665 L2186.89 246.665 L2186.89 242.729 Q2189.55 239.975 2194.13 235.345 Q2198.74 230.693 2199.92 229.35 Q2202.16 226.827 2203.04 225.091 Q2203.95 223.331 2203.95 221.642 Q2203.95 218.887 2202 217.151 Q2200.08 215.415 2196.98 215.415 Q2194.78 215.415 2192.33 216.179 Q2189.89 216.943 2187.12 218.494 L2187.12 213.771 Q2189.94 212.637 2192.39 212.058 Q2194.85 211.48 2196.89 211.48 Q2202.26 211.48 2205.45 214.165 Q2208.64 216.85 2208.64 221.341 Q2208.64 223.47 2207.83 225.392 Q2207.05 227.29 2204.94 229.882 Q2204.36 230.554 2201.26 233.771 Q2198.16 236.966 2192.51 242.729 Z" fill="#000000" fill-rule="evenodd" fill-opacity="1" /><path clip-path="url(#clip990)" d="M 0 0 M2212.63 210.693 L2216.33 210.693 Q2219.8 216.156 2221.51 221.387 Q2223.25 226.618 2223.25 231.78 Q2223.25 236.966 2221.51 242.22 Q2219.8 247.475 2216.33 252.915 L2212.63 252.915 Q2215.7 247.614 2217.21 242.382 Q2218.74 237.128 2218.74 231.78 Q2218.74 226.433 2217.21 221.225 Q2215.7 216.017 2212.63 210.693 Z" fill="#000000" fill-rule="evenodd" fill-opacity="1" /><circle clip-path="url(#clip990)" cx="1742.08" cy="289.865" r="23" fill="#e26f46" fill-rule="evenodd" fill-opacity="1" stroke="#000000" stroke-opacity="1" stroke-width="5.12"/>
<circle clip-path="url(#clip990)" cx="1742.08" cy="289.865" r="23" fill="#e26f46" fill-rule="evenodd" fill-opacity="1" stroke="#000000" stroke-opacity="1" stroke-width="5.12"/>
<circle clip-path="url(#clip990)" cx="1742.08" cy="289.865" r="23" fill="#e26f46" fill-rule="evenodd" fill-opacity="1" stroke="#000000" stroke-opacity="1" stroke-width="5.12"/>
<path clip-path="url(#clip990)" d="M 0 0 M1840.06 272.585 L1844.73 272.585 L1844.73 303.209 L1861.56 303.209 L1861.56 307.145 L1840.06 307.145 L1840.06 272.585 Z" fill="#000000" fill-rule="evenodd" fill-opacity="1" /><path clip-path="url(#clip990)" d="M 0 0 M1875.24 284.205 Q1871.82 284.205 1869.83 286.89 Q1867.84 289.552 1867.84 294.205 Q1867.84 298.858 1869.8 301.543 Q1871.79 304.205 1875.24 304.205 Q1878.65 304.205 1880.64 301.52 Q1882.63 298.835 1882.63 294.205 Q1882.63 289.598 1880.64 286.913 Q1878.65 284.205 1875.24 284.205 M1875.24 280.594 Q1880.8 280.594 1883.97 284.205 Q1887.14 287.816 1887.14 294.205 Q1887.14 300.571 1883.97 304.205 Q1880.8 307.816 1875.24 307.816 Q1869.66 307.816 1866.49 304.205 Q1863.35 300.571 1863.35 294.205 Q1863.35 287.816 1866.49 284.205 Q1869.66 280.594 1875.24 280.594 Z" fill="#000000" fill-rule="evenodd" fill-opacity="1" /><path clip-path="url(#clip990)" d="M 0 0 M1889.13 281.219 L1893.39 281.219 L1898.72 301.45 L1904.02 281.219 L1909.04 281.219 L1914.36 301.45 L1919.66 281.219 L1923.92 281.219 L1917.14 307.145 L1912.12 307.145 L1906.54 285.895 L1900.94 307.145 L1895.91 307.145 L1889.13 281.219 Z" fill="#000000" fill-rule="evenodd" fill-opacity="1" /><path clip-path="url(#clip990)" d="M 0 0 M1935.96 272.585 L1939.9 272.585 L1927.86 311.543 L1923.92 311.543 L1935.96 272.585 Z" fill="#000000" fill-rule="evenodd" fill-opacity="1" /><path clip-path="url(#clip990)" d="M 0 0 M1944.55 272.585 L1951.52 272.585 L1960.34 296.103 L1969.2 272.585 L1976.17 272.585 L1976.17 307.145 L1971.61 307.145 L1971.61 276.798 L1962.7 300.501 L1958 300.501 L1949.09 276.798 L1949.09 307.145 L1944.55 307.145 L1944.55 272.585 Z" fill="#000000" fill-rule="evenodd" fill-opacity="1" /><path clip-path="url(#clip990)" d="M 0 0 M2002.81 293.117 L2002.81 295.2 L1983.23 295.2 Q1983.51 299.598 1985.87 301.913 Q1988.25 304.205 1992.49 304.205 Q1994.94 304.205 1997.23 303.603 Q1999.55 303.001 2001.82 301.797 L2001.82 305.825 Q1999.53 306.797 1997.12 307.307 Q1994.71 307.816 1992.23 307.816 Q1986.03 307.816 1982.4 304.205 Q1978.78 300.594 1978.78 294.436 Q1978.78 288.071 1982.21 284.344 Q1985.66 280.594 1991.49 280.594 Q1996.72 280.594 1999.76 283.973 Q2002.81 287.33 2002.81 293.117 M1998.55 291.867 Q1998.51 288.372 1996.59 286.288 Q1994.69 284.205 1991.54 284.205 Q1987.97 284.205 1985.82 286.219 Q1983.69 288.233 1983.37 291.89 L1998.55 291.867 Z" fill="#000000" fill-rule="evenodd" fill-opacity="1" /><path clip-path="url(#clip990)" d="M 0 0 M2024.34 285.154 L2024.34 271.126 L2028.6 271.126 L2028.6 307.145 L2024.34 307.145 L2024.34 303.256 Q2023 305.571 2020.94 306.705 Q2018.9 307.816 2016.03 307.816 Q2011.33 307.816 2008.37 304.066 Q2005.43 300.316 2005.43 294.205 Q2005.43 288.094 2008.37 284.344 Q2011.33 280.594 2016.03 280.594 Q2018.9 280.594 2020.94 281.728 Q2023 282.839 2024.34 285.154 M2009.83 294.205 Q2009.83 298.904 2011.75 301.589 Q2013.69 304.251 2017.07 304.251 Q2020.45 304.251 2022.4 301.589 Q2024.34 298.904 2024.34 294.205 Q2024.34 289.506 2022.4 286.844 Q2020.45 284.159 2017.07 284.159 Q2013.69 284.159 2011.75 286.844 Q2009.83 289.506 2009.83 294.205 Z" fill="#000000" fill-rule="evenodd" fill-opacity="1" /><path clip-path="url(#clip990)" d="M 0 0 M2058.37 271.173 Q2055.27 276.497 2053.76 281.705 Q2052.26 286.913 2052.26 292.26 Q2052.26 297.608 2053.76 302.862 Q2055.29 308.094 2058.37 313.395 L2054.66 313.395 Q2051.19 307.955 2049.46 302.7 Q2047.74 297.446 2047.74 292.26 Q2047.74 287.098 2049.46 281.867 Q2051.17 276.636 2054.66 271.173 L2058.37 271.173 Z" fill="#000000" fill-rule="evenodd" fill-opacity="1" /><path clip-path="url(#clip990)" d="M 0 0 M2073.44 275.663 Q2069.83 275.663 2068 279.228 Q2066.19 282.77 2066.19 289.899 Q2066.19 297.006 2068 300.571 Q2069.83 304.112 2073.44 304.112 Q2077.07 304.112 2078.88 300.571 Q2080.71 297.006 2080.71 289.899 Q2080.71 282.77 2078.88 279.228 Q2077.07 275.663 2073.44 275.663 M2073.44 271.96 Q2079.25 271.96 2082.3 276.566 Q2085.38 281.149 2085.38 289.899 Q2085.38 298.626 2082.3 303.233 Q2079.25 307.816 2073.44 307.816 Q2067.63 307.816 2064.55 303.233 Q2061.49 298.626 2061.49 289.899 Q2061.49 281.149 2064.55 276.566 Q2067.63 271.96 2073.44 271.96 Z" fill="#000000" fill-rule="evenodd" fill-opacity="1" /><path clip-path="url(#clip990)" d="M 0 0 M2090.45 301.265 L2095.34 301.265 L2095.34 307.145 L2090.45 307.145 L2090.45 301.265 Z" fill="#000000" fill-rule="evenodd" fill-opacity="1" /><path clip-path="url(#clip990)" d="M 0 0 M2101.21 303.209 L2108.85 303.209 L2108.85 276.844 L2100.54 278.511 L2100.54 274.251 L2108.81 272.585 L2113.48 272.585 L2113.48 303.209 L2121.12 303.209 L2121.12 307.145 L2101.21 307.145 L2101.21 303.209 Z" fill="#000000" fill-rule="evenodd" fill-opacity="1" /><path clip-path="url(#clip990)" d="M 0 0 M2126.68 301.265 L2131.56 301.265 L2131.56 305.247 L2127.77 312.654 L2124.78 312.654 L2126.68 305.247 L2126.68 301.265 Z" fill="#000000" fill-rule="evenodd" fill-opacity="1" /><path clip-path="url(#clip990)" d="M 0 0 M2161.7 275.663 Q2158.09 275.663 2156.26 279.228 Q2154.46 282.77 2154.46 289.899 Q2154.46 297.006 2156.26 300.571 Q2158.09 304.112 2161.7 304.112 Q2165.33 304.112 2167.14 300.571 Q2168.97 297.006 2168.97 289.899 Q2168.97 282.77 2167.14 279.228 Q2165.33 275.663 2161.7 275.663 M2161.7 271.96 Q2167.51 271.96 2170.57 276.566 Q2173.64 281.149 2173.64 289.899 Q2173.64 298.626 2170.57 303.233 Q2167.51 307.816 2161.7 307.816 Q2155.89 307.816 2152.81 303.233 Q2149.76 298.626 2149.76 289.899 Q2149.76 281.149 2152.81 276.566 Q2155.89 271.96 2161.7 271.96 Z" fill="#000000" fill-rule="evenodd" fill-opacity="1" /><path clip-path="url(#clip990)" d="M 0 0 M2178.71 301.265 L2183.6 301.265 L2183.6 307.145 L2178.71 307.145 L2178.71 301.265 Z" fill="#000000" fill-rule="evenodd" fill-opacity="1" /><path clip-path="url(#clip990)" d="M 0 0 M2188.71 272.585 L2207.07 272.585 L2207.07 276.52 L2193 276.52 L2193 284.992 Q2194.02 284.645 2195.03 284.483 Q2196.05 284.298 2197.07 284.298 Q2202.86 284.298 2206.24 287.469 Q2209.62 290.64 2209.62 296.057 Q2209.62 301.635 2206.14 304.737 Q2202.67 307.816 2196.35 307.816 Q2194.18 307.816 2191.91 307.446 Q2189.66 307.075 2187.26 306.334 L2187.26 301.635 Q2189.34 302.77 2191.56 303.325 Q2193.78 303.881 2196.26 303.881 Q2200.27 303.881 2202.6 301.774 Q2204.94 299.668 2204.94 296.057 Q2204.94 292.446 2202.6 290.339 Q2200.27 288.233 2196.26 288.233 Q2194.39 288.233 2192.51 288.649 Q2190.66 289.066 2188.71 289.946 L2188.71 272.585 Z" fill="#000000" fill-rule="evenodd" fill-opacity="1" /><path clip-path="url(#clip990)" d="M 0 0 M2213.41 271.173 L2217.12 271.173 Q2220.59 276.636 2222.3 281.867 Q2224.04 287.098 2224.04 292.26 Q2224.04 297.446 2222.3 302.7 Q2220.59 307.955 2217.12 313.395 L2213.41 313.395 Q2216.49 308.094 2218 302.862 Q2219.52 297.608 2219.52 292.26 Q2219.52 286.913 2218 281.705 Q2216.49 276.497 2213.41 271.173 Z" fill="#000000" fill-rule="evenodd" fill-opacity="1" /><circle clip-path="url(#clip990)" cx="1742.08" cy="350.345" r="23" fill="#3da44d" fill-rule="evenodd" fill-opacity="1" stroke="#000000" stroke-opacity="1" stroke-width="5.12"/>
<circle clip-path="url(#clip990)" cx="1742.08" cy="350.345" r="23" fill="#3da44d" fill-rule="evenodd" fill-opacity="1" stroke="#000000" stroke-opacity="1" stroke-width="5.12"/>
<circle clip-path="url(#clip990)" cx="1742.08" cy="350.345" r="23" fill="#3da44d" fill-rule="evenodd" fill-opacity="1" stroke="#000000" stroke-opacity="1" stroke-width="5.12"/>
<path clip-path="url(#clip990)" d="M 0 0 M1840.06 333.065 L1847.03 333.065 L1855.85 356.583 L1864.71 333.065 L1871.68 333.065 L1871.68 367.625 L1867.12 367.625 L1867.12 337.278 L1858.21 360.981 L1853.51 360.981 L1844.6 337.278 L1844.6 367.625 L1840.06 367.625 L1840.06 333.065 Z" fill="#000000" fill-rule="evenodd" fill-opacity="1" /><path clip-path="url(#clip990)" d="M 0 0 M1898.32 353.597 L1898.32 355.68 L1878.74 355.68 Q1879.02 360.078 1881.38 362.393 Q1883.76 364.685 1888 364.685 Q1890.45 364.685 1892.74 364.083 Q1895.06 363.481 1897.33 362.277 L1897.33 366.305 Q1895.04 367.277 1892.63 367.787 Q1890.22 368.296 1887.74 368.296 Q1881.54 368.296 1877.91 364.685 Q1874.29 361.074 1874.29 354.916 Q1874.29 348.551 1877.72 344.824 Q1881.17 341.074 1887 341.074 Q1892.23 341.074 1895.27 344.453 Q1898.32 347.81 1898.32 353.597 M1894.06 352.347 Q1894.02 348.852 1892.1 346.768 Q1890.2 344.685 1887.05 344.685 Q1883.48 344.685 1881.33 346.699 Q1879.2 348.713 1878.88 352.37 L1894.06 352.347 Z" fill="#000000" fill-rule="evenodd" fill-opacity="1" /><path clip-path="url(#clip990)" d="M 0 0 M1919.85 345.634 L1919.85 331.606 L1924.11 331.606 L1924.11 367.625 L1919.85 367.625 L1919.85 363.736 Q1918.51 366.051 1916.45 367.185 Q1914.41 368.296 1911.54 368.296 Q1906.84 368.296 1903.88 364.546 Q1900.94 360.796 1900.94 354.685 Q1900.94 348.574 1903.88 344.824 Q1906.84 341.074 1911.54 341.074 Q1914.41 341.074 1916.45 342.208 Q1918.51 343.319 1919.85 345.634 M1905.34 354.685 Q1905.34 359.384 1907.26 362.069 Q1909.2 364.731 1912.58 364.731 Q1915.96 364.731 1917.91 362.069 Q1919.85 359.384 1919.85 354.685 Q1919.85 349.986 1917.91 347.324 Q1915.96 344.639 1912.58 344.639 Q1909.2 344.639 1907.26 347.324 Q1905.34 349.986 1905.34 354.685 Z" fill="#000000" fill-rule="evenodd" fill-opacity="1" /><path clip-path="url(#clip990)" d="M 0 0 M1936.15 333.065 L1940.08 333.065 L1928.04 372.023 L1924.11 372.023 L1936.15 333.065 Z" fill="#000000" fill-rule="evenodd" fill-opacity="1" /><path clip-path="url(#clip990)" d="M 0 0 M1944.73 333.065 L1949.41 333.065 L1949.41 347.231 L1966.4 347.231 L1966.4 333.065 L1971.08 333.065 L1971.08 367.625 L1966.4 367.625 L1966.4 351.166 L1949.41 351.166 L1949.41 367.625 L1944.73 367.625 L1944.73 333.065 Z" fill="#000000" fill-rule="evenodd" fill-opacity="1" /><path clip-path="url(#clip990)" d="M 0 0 M1975.54 341.699 L1979.8 341.699 L1979.8 367.625 L1975.54 367.625 L1975.54 341.699 M1975.54 331.606 L1979.8 331.606 L1979.8 337 L1975.54 337 L1975.54 331.606 Z" fill="#000000" fill-rule="evenodd" fill-opacity="1" /><path clip-path="url(#clip990)" d="M 0 0 M2001.33 354.361 Q2001.33 349.731 1999.41 347.185 Q1997.51 344.639 1994.06 344.639 Q1990.64 344.639 1988.72 347.185 Q1986.82 349.731 1986.82 354.361 Q1986.82 358.967 1988.72 361.514 Q1990.64 364.06 1994.06 364.06 Q1997.51 364.06 1999.41 361.514 Q2001.33 358.967 2001.33 354.361 M2005.59 364.407 Q2005.59 371.027 2002.65 374.245 Q1999.71 377.486 1993.65 377.486 Q1991.4 377.486 1989.41 377.138 Q1987.42 376.814 1985.54 376.12 L1985.54 371.976 Q1987.42 372.995 1989.25 373.481 Q1991.08 373.967 1992.97 373.967 Q1997.16 373.967 1999.25 371.768 Q2001.33 369.592 2001.33 365.171 L2001.33 363.064 Q2000.01 365.356 1997.95 366.49 Q1995.89 367.625 1993.02 367.625 Q1988.25 367.625 1985.34 363.99 Q1982.42 360.356 1982.42 354.361 Q1982.42 348.342 1985.34 344.708 Q1988.25 341.074 1993.02 341.074 Q1995.89 341.074 1997.95 342.208 Q2000.01 343.342 2001.33 345.634 L2001.33 341.699 L2005.59 341.699 L2005.59 364.407 Z" fill="#000000" fill-rule="evenodd" fill-opacity="1" /><path clip-path="url(#clip990)" d="M 0 0 M2031.61 351.977 L2031.61 367.625 L2027.35 367.625 L2027.35 352.115 Q2027.35 348.435 2025.91 346.606 Q2024.48 344.778 2021.61 344.778 Q2018.16 344.778 2016.17 346.977 Q2014.18 349.176 2014.18 352.972 L2014.18 367.625 L2009.9 367.625 L2009.9 331.606 L2014.18 331.606 L2014.18 345.727 Q2015.71 343.389 2017.77 342.231 Q2019.85 341.074 2022.56 341.074 Q2027.03 341.074 2029.32 343.852 Q2031.61 346.606 2031.61 351.977 Z" fill="#000000" fill-rule="evenodd" fill-opacity="1" /><path clip-path="url(#clip990)" d="M 0 0 M2061.38 331.653 Q2058.28 336.977 2056.77 342.185 Q2055.27 347.393 2055.27 352.74 Q2055.27 358.088 2056.77 363.342 Q2058.3 368.574 2061.38 373.875 L2057.67 373.875 Q2054.2 368.435 2052.46 363.18 Q2050.75 357.926 2050.75 352.74 Q2050.75 347.578 2052.46 342.347 Q2054.18 337.116 2057.67 331.653 L2061.38 331.653 Z" fill="#000000" fill-rule="evenodd" fill-opacity="1" /><path clip-path="url(#clip990)" d="M 0 0 M2076.45 336.143 Q2072.84 336.143 2071.01 339.708 Q2069.2 343.25 2069.2 350.379 Q2069.2 357.486 2071.01 361.051 Q2072.84 364.592 2076.45 364.592 Q2080.08 364.592 2081.89 361.051 Q2083.71 357.486 2083.71 350.379 Q2083.71 343.25 2081.89 339.708 Q2080.08 336.143 2076.45 336.143 M2076.45 332.44 Q2082.26 332.44 2085.31 337.046 Q2088.39 341.629 2088.39 350.379 Q2088.39 359.106 2085.31 363.713 Q2082.26 368.296 2076.45 368.296 Q2070.64 368.296 2067.56 363.713 Q2064.5 359.106 2064.5 350.379 Q2064.5 341.629 2067.56 337.046 Q2070.64 332.44 2076.45 332.44 Z" fill="#000000" fill-rule="evenodd" fill-opacity="1" /><path clip-path="url(#clip990)" d="M 0 0 M2093.46 361.745 L2098.34 361.745 L2098.34 367.625 L2093.46 367.625 L2093.46 361.745 Z" fill="#000000" fill-rule="evenodd" fill-opacity="1" /><path clip-path="url(#clip990)" d="M 0 0 M2116.26 337.139 L2104.46 355.588 L2116.26 355.588 L2116.26 337.139 M2115.03 333.065 L2120.91 333.065 L2120.91 355.588 L2125.84 355.588 L2125.84 359.477 L2120.91 359.477 L2120.91 367.625 L2116.26 367.625 L2116.26 359.477 L2100.66 359.477 L2100.66 354.963 L2115.03 333.065 Z" fill="#000000" fill-rule="evenodd" fill-opacity="1" /><path clip-path="url(#clip990)" d="M 0 0 M2131.4 361.745 L2136.28 361.745 L2136.28 365.727 L2132.49 373.134 L2129.5 373.134 L2131.4 365.727 L2131.4 361.745 Z" fill="#000000" fill-rule="evenodd" fill-opacity="1" /><path clip-path="url(#clip990)" d="M 0 0 M2166.42 336.143 Q2162.81 336.143 2160.98 339.708 Q2159.18 343.25 2159.18 350.379 Q2159.18 357.486 2160.98 361.051 Q2162.81 364.592 2166.42 364.592 Q2170.06 364.592 2171.86 361.051 Q2173.69 357.486 2173.69 350.379 Q2173.69 343.25 2171.86 339.708 Q2170.06 336.143 2166.42 336.143 M2166.42 332.44 Q2172.23 332.44 2175.29 337.046 Q2178.37 341.629 2178.37 350.379 Q2178.37 359.106 2175.29 363.713 Q2172.23 368.296 2166.42 368.296 Q2160.61 368.296 2157.53 363.713 Q2154.48 359.106 2154.48 350.379 Q2154.48 341.629 2157.53 337.046 Q2160.61 332.44 2166.42 332.44 Z" fill="#000000" fill-rule="evenodd" fill-opacity="1" /><path clip-path="url(#clip990)" d="M 0 0 M2183.44 361.745 L2188.32 361.745 L2188.32 367.625 L2183.44 367.625 L2183.44 361.745 Z" fill="#000000" fill-rule="evenodd" fill-opacity="1" /><path clip-path="url(#clip990)" d="M 0 0 M2193.53 366.907 L2193.53 362.648 Q2195.29 363.481 2197.09 363.921 Q2198.9 364.361 2200.64 364.361 Q2205.27 364.361 2207.7 361.259 Q2210.15 358.134 2210.5 351.791 Q2209.15 353.782 2207.09 354.847 Q2205.03 355.912 2202.53 355.912 Q2197.35 355.912 2194.32 352.787 Q2191.31 349.639 2191.31 344.199 Q2191.31 338.875 2194.45 335.657 Q2197.6 332.44 2202.83 332.44 Q2208.83 332.44 2211.98 337.046 Q2215.15 341.629 2215.15 350.379 Q2215.15 358.551 2211.26 363.435 Q2207.39 368.296 2200.84 368.296 Q2199.08 368.296 2197.28 367.949 Q2195.47 367.602 2193.53 366.907 M2202.83 352.254 Q2205.98 352.254 2207.81 350.102 Q2209.66 347.949 2209.66 344.199 Q2209.66 340.472 2207.81 338.319 Q2205.98 336.143 2202.83 336.143 Q2199.69 336.143 2197.83 338.319 Q2196.01 340.472 2196.01 344.199 Q2196.01 347.949 2197.83 350.102 Q2199.69 352.254 2202.83 352.254 Z" fill="#000000" fill-rule="evenodd" fill-opacity="1" /><path clip-path="url(#clip990)" d="M 0 0 M2218.95 331.653 L2222.65 331.653 Q2226.12 337.116 2227.83 342.347 Q2229.57 347.578 2229.57 352.74 Q2229.57 357.926 2227.83 363.18 Q2226.12 368.435 2222.65 373.875 L2218.95 373.875 Q2222.02 368.574 2223.53 363.342 Q2225.06 358.088 2225.06 352.74 Q2225.06 347.393 2223.53 342.185 Q2222.02 336.977 2218.95 331.653 Z" fill="#000000" fill-rule="evenodd" fill-opacity="1" /><circle clip-path="url(#clip990)" cx="1742.08" cy="410.825" r="23" fill="#c271d2" fill-rule="evenodd" fill-opacity="1" stroke="#000000" stroke-opacity="1" stroke-width="5.12"/>
<circle clip-path="url(#clip990)" cx="1742.08" cy="410.825" r="23" fill="#c271d2" fill-rule="evenodd" fill-opacity="1" stroke="#000000" stroke-opacity="1" stroke-width="5.12"/>
<circle clip-path="url(#clip990)" cx="1742.08" cy="410.825" r="23" fill="#c271d2" fill-rule="evenodd" fill-opacity="1" stroke="#000000" stroke-opacity="1" stroke-width="5.12"/>
<path clip-path="url(#clip990)" d="M 0 0 M1840.06 393.545 L1844.73 393.545 L1844.73 407.711 L1861.73 407.711 L1861.73 393.545 L1866.4 393.545 L1866.4 428.105 L1861.73 428.105 L1861.73 411.646 L1844.73 411.646 L1844.73 428.105 L1840.06 428.105 L1840.06 393.545 Z" fill="#000000" fill-rule="evenodd" fill-opacity="1" /><path clip-path="url(#clip990)" d="M 0 0 M1870.87 402.179 L1875.13 402.179 L1875.13 428.105 L1870.87 428.105 L1870.87 402.179 M1870.87 392.086 L1875.13 392.086 L1875.13 397.48 L1870.87 397.48 L1870.87 392.086 Z" fill="#000000" fill-rule="evenodd" fill-opacity="1" /><path clip-path="url(#clip990)" d="M 0 0 M1896.66 414.841 Q1896.66 410.211 1894.73 407.665 Q1892.84 405.119 1889.39 405.119 Q1885.96 405.119 1884.04 407.665 Q1882.14 410.211 1882.14 414.841 Q1882.14 419.447 1884.04 421.994 Q1885.96 424.54 1889.39 424.54 Q1892.84 424.54 1894.73 421.994 Q1896.66 419.447 1896.66 414.841 M1900.91 424.887 Q1900.91 431.507 1897.98 434.725 Q1895.04 437.966 1888.97 437.966 Q1886.73 437.966 1884.73 437.618 Q1882.74 437.294 1880.87 436.6 L1880.87 432.456 Q1882.74 433.475 1884.57 433.961 Q1886.4 434.447 1888.3 434.447 Q1892.49 434.447 1894.57 432.248 Q1896.66 430.072 1896.66 425.651 L1896.66 423.544 Q1895.34 425.836 1893.28 426.97 Q1891.22 428.105 1888.35 428.105 Q1883.58 428.105 1880.66 424.47 Q1877.74 420.836 1877.74 414.841 Q1877.74 408.822 1880.66 405.188 Q1883.58 401.554 1888.35 401.554 Q1891.22 401.554 1893.28 402.688 Q1895.34 403.822 1896.66 406.114 L1896.66 402.179 L1900.91 402.179 L1900.91 424.887 Z" fill="#000000" fill-rule="evenodd" fill-opacity="1" /><path clip-path="url(#clip990)" d="M 0 0 M1926.93 412.457 L1926.93 428.105 L1922.67 428.105 L1922.67 412.595 Q1922.67 408.915 1921.24 407.086 Q1919.8 405.258 1916.93 405.258 Q1913.48 405.258 1911.49 407.457 Q1909.5 409.656 1909.5 413.452 L1909.5 428.105 L1905.22 428.105 L1905.22 392.086 L1909.5 392.086 L1909.5 406.207 Q1911.03 403.869 1913.09 402.711 Q1915.17 401.554 1917.88 401.554 Q1922.35 401.554 1924.64 404.332 Q1926.93 407.086 1926.93 412.457 Z" fill="#000000" fill-rule="evenodd" fill-opacity="1" /><path clip-path="url(#clip990)" d="M 0 0 M1938.97 393.545 L1942.91 393.545 L1930.87 432.503 L1926.93 432.503 L1938.97 393.545 Z" fill="#000000" fill-rule="evenodd" fill-opacity="1" /><path clip-path="url(#clip990)" d="M 0 0 M1947.56 393.545 L1952.23 393.545 L1952.23 407.711 L1969.22 407.711 L1969.22 393.545 L1973.9 393.545 L1973.9 428.105 L1969.22 428.105 L1969.22 411.646 L1952.23 411.646 L1952.23 428.105 L1947.56 428.105 L1947.56 393.545 Z" fill="#000000" fill-rule="evenodd" fill-opacity="1" /><path clip-path="url(#clip990)" d="M 0 0 M1978.37 402.179 L1982.63 402.179 L1982.63 428.105 L1978.37 428.105 L1978.37 402.179 M1978.37 392.086 L1982.63 392.086 L1982.63 397.48 L1978.37 397.48 L1978.37 392.086 Z" fill="#000000" fill-rule="evenodd" fill-opacity="1" /><path clip-path="url(#clip990)" d="M 0 0 M2004.15 414.841 Q2004.15 410.211 2002.23 407.665 Q2000.34 405.119 1996.89 405.119 Q1993.46 405.119 1991.54 407.665 Q1989.64 410.211 1989.64 414.841 Q1989.64 419.447 1991.54 421.994 Q1993.46 424.54 1996.89 424.54 Q2000.34 424.54 2002.23 421.994 Q2004.15 419.447 2004.15 414.841 M2008.41 424.887 Q2008.41 431.507 2005.47 434.725 Q2002.53 437.966 1996.47 437.966 Q1994.22 437.966 1992.23 437.618 Q1990.24 437.294 1988.37 436.6 L1988.37 432.456 Q1990.24 433.475 1992.07 433.961 Q1993.9 434.447 1995.8 434.447 Q1999.99 434.447 2002.07 432.248 Q2004.15 430.072 2004.15 425.651 L2004.15 423.544 Q2002.84 425.836 2000.78 426.97 Q1998.72 428.105 1995.84 428.105 Q1991.08 428.105 1988.16 424.47 Q1985.24 420.836 1985.24 414.841 Q1985.24 408.822 1988.16 405.188 Q1991.08 401.554 1995.84 401.554 Q1998.72 401.554 2000.78 402.688 Q2002.84 403.822 2004.15 406.114 L2004.15 402.179 L2008.41 402.179 L2008.41 424.887 Z" fill="#000000" fill-rule="evenodd" fill-opacity="1" /><path clip-path="url(#clip990)" d="M 0 0 M2034.43 412.457 L2034.43 428.105 L2030.17 428.105 L2030.17 412.595 Q2030.17 408.915 2028.74 407.086 Q2027.3 405.258 2024.43 405.258 Q2020.98 405.258 2018.99 407.457 Q2017 409.656 2017 413.452 L2017 428.105 L2012.72 428.105 L2012.72 392.086 L2017 392.086 L2017 406.207 Q2018.53 403.869 2020.59 402.711 Q2022.67 401.554 2025.38 401.554 Q2029.85 401.554 2032.14 404.332 Q2034.43 407.086 2034.43 412.457 Z" fill="#000000" fill-rule="evenodd" fill-opacity="1" /><path clip-path="url(#clip990)" d="M 0 0 M2064.2 392.133 Q2061.1 397.457 2059.59 402.665 Q2058.09 407.873 2058.09 413.22 Q2058.09 418.568 2059.59 423.822 Q2061.12 429.054 2064.2 434.355 L2060.5 434.355 Q2057.03 428.915 2055.29 423.66 Q2053.58 418.406 2053.58 413.22 Q2053.58 408.058 2055.29 402.827 Q2057 397.596 2060.5 392.133 L2064.2 392.133 Z" fill="#000000" fill-rule="evenodd" fill-opacity="1" /><path clip-path="url(#clip990)" d="M 0 0 M2079.27 396.623 Q2075.66 396.623 2073.83 400.188 Q2072.03 403.73 2072.03 410.859 Q2072.03 417.966 2073.83 421.531 Q2075.66 425.072 2079.27 425.072 Q2082.9 425.072 2084.71 421.531 Q2086.54 417.966 2086.54 410.859 Q2086.54 403.73 2084.71 400.188 Q2082.9 396.623 2079.27 396.623 M2079.27 392.92 Q2085.08 392.92 2088.14 397.526 Q2091.21 402.109 2091.21 410.859 Q2091.21 419.586 2088.14 424.193 Q2085.08 428.776 2079.27 428.776 Q2073.46 428.776 2070.38 424.193 Q2067.33 419.586 2067.33 410.859 Q2067.33 402.109 2070.38 397.526 Q2073.46 392.92 2079.27 392.92 Z" fill="#000000" fill-rule="evenodd" fill-opacity="1" /><path clip-path="url(#clip990)" d="M 0 0 M2096.28 422.225 L2101.17 422.225 L2101.17 428.105 L2096.28 428.105 L2096.28 422.225 Z" fill="#000000" fill-rule="evenodd" fill-opacity="1" /><path clip-path="url(#clip990)" d="M 0 0 M2105.06 393.545 L2127.28 393.545 L2127.28 395.535 L2114.73 428.105 L2109.85 428.105 L2121.65 397.48 L2105.06 397.48 L2105.06 393.545 Z" fill="#000000" fill-rule="evenodd" fill-opacity="1" /><path clip-path="url(#clip990)" d="M 0 0 M2132.83 422.225 L2137.72 422.225 L2137.72 426.207 L2133.92 433.614 L2130.94 433.614 L2132.83 426.207 L2132.83 422.225 Z" fill="#000000" fill-rule="evenodd" fill-opacity="1" /><path clip-path="url(#clip990)" d="M 0 0 M2167.86 396.623 Q2164.25 396.623 2162.42 400.188 Q2160.61 403.73 2160.61 410.859 Q2160.61 417.966 2162.42 421.531 Q2164.25 425.072 2167.86 425.072 Q2171.49 425.072 2173.3 421.531 Q2175.13 417.966 2175.13 410.859 Q2175.13 403.73 2173.3 400.188 Q2171.49 396.623 2167.86 396.623 M2167.86 392.92 Q2173.67 392.92 2176.72 397.526 Q2179.8 402.109 2179.8 410.859 Q2179.8 419.586 2176.72 424.193 Q2173.67 428.776 2167.86 428.776 Q2162.05 428.776 2158.97 424.193 Q2155.91 419.586 2155.91 410.859 Q2155.91 402.109 2158.97 397.526 Q2162.05 392.92 2167.86 392.92 Z" fill="#000000" fill-rule="evenodd" fill-opacity="1" /><path clip-path="url(#clip990)" d="M 0 0 M2184.87 422.225 L2189.76 422.225 L2189.76 428.105 L2184.87 428.105 L2184.87 422.225 Z" fill="#000000" fill-rule="evenodd" fill-opacity="1" /><path clip-path="url(#clip990)" d="M 0 0 M2193.64 393.545 L2215.87 393.545 L2215.87 395.535 L2203.32 428.105 L2198.44 428.105 L2210.24 397.48 L2193.64 397.48 L2193.64 393.545 Z" fill="#000000" fill-rule="evenodd" fill-opacity="1" /><path clip-path="url(#clip990)" d="M 0 0 M2219.66 392.133 L2223.37 392.133 Q2226.84 397.596 2228.55 402.827 Q2230.29 408.058 2230.29 413.22 Q2230.29 418.406 2228.55 423.66 Q2226.84 428.915 2223.37 434.355 L2219.66 434.355 Q2222.74 429.054 2224.25 423.822 Q2225.77 418.568 2225.77 413.22 Q2225.77 407.873 2224.25 402.665 Q2222.74 397.457 2219.66 392.133 Z" fill="#000000" fill-rule="evenodd" fill-opacity="1" /></svg>
