<?xml version="1.0" encoding="utf-8"?>
<svg xmlns="http://www.w3.org/2000/svg" xmlns:xlink="http://www.w3.org/1999/xlink" width="600" height="400" viewBox="0 0 2400 1600">
<defs>
  <clipPath id="clip950">
    <rect x="0" y="0" width="2400" height="1600"/>
  </clipPath>
</defs>
<path clip-path="url(#clip950)" d="
M0 1600 L2400 1600 L2400 0 L0 0  Z
  " fill="#ffffff" fill-rule="evenodd" fill-opacity="1"/>
<defs>
  <clipPath id="clip951">
    <rect x="480" y="0" width="1681" height="1600"/>
  </clipPath>
</defs>
<path clip-path="url(#clip950)" d="
M211.602 1423.18 L2352.76 1423.18 L2352.76 47.2441 L211.602 47.2441  Z
  " fill="#ffffff" fill-rule="evenodd" fill-opacity="1"/>
<defs>
  <clipPath id="clip952">
    <rect x="211" y="47" width="2142" height="1377"/>
  </clipPath>
</defs>
<polyline clip-path="url(#clip952)" style="stroke:#000000; stroke-width:2; stroke-opacity:0.1; fill:none" points="
  329.37,1423.18 329.37,47.2441 
  "/>
<polyline clip-path="url(#clip952)" style="stroke:#000000; stroke-width:2; stroke-opacity:0.1; fill:none" points="
  964.576,1423.18 964.576,47.2441 
  "/>
<polyline clip-path="url(#clip952)" style="stroke:#000000; stroke-width:2; stroke-opacity:0.1; fill:none" points="
  1599.78,1423.18 1599.78,47.2441 
  "/>
<polyline clip-path="url(#clip952)" style="stroke:#000000; stroke-width:2; stroke-opacity:0.1; fill:none" points="
  2234.99,1423.18 2234.99,47.2441 
  "/>
<polyline clip-path="url(#clip952)" style="stroke:#000000; stroke-width:2; stroke-opacity:0.1; fill:none" points="
  211.602,1384.24 2352.76,1384.24 
  "/>
<polyline clip-path="url(#clip952)" style="stroke:#000000; stroke-width:2; stroke-opacity:0.1; fill:none" points="
  211.602,1098.37 2352.76,1098.37 
  "/>
<polyline clip-path="url(#clip952)" style="stroke:#000000; stroke-width:2; stroke-opacity:0.1; fill:none" points="
  211.602,812.51 2352.76,812.51 
  "/>
<polyline clip-path="url(#clip952)" style="stroke:#000000; stroke-width:2; stroke-opacity:0.1; fill:none" points="
  211.602,526.645 2352.76,526.645 
  "/>
<polyline clip-path="url(#clip952)" style="stroke:#000000; stroke-width:2; stroke-opacity:0.1; fill:none" points="
  211.602,240.781 2352.76,240.781 
  "/>
<polyline clip-path="url(#clip950)" style="stroke:#000000; stroke-width:4; stroke-opacity:1; fill:none" points="
  211.602,1423.18 2352.76,1423.18 
  "/>
<polyline clip-path="url(#clip950)" style="stroke:#000000; stroke-width:4; stroke-opacity:1; fill:none" points="
  211.602,1423.18 211.602,47.2441 
  "/>
<polyline clip-path="url(#clip950)" style="stroke:#000000; stroke-width:4; stroke-opacity:1; fill:none" points="
  329.37,1423.18 329.37,1406.67 
  "/>
<polyline clip-path="url(#clip950)" style="stroke:#000000; stroke-width:4; stroke-opacity:1; fill:none" points="
  964.576,1423.18 964.576,1406.67 
  "/>
<polyline clip-path="url(#clip950)" style="stroke:#000000; stroke-width:4; stroke-opacity:1; fill:none" points="
  1599.78,1423.18 1599.78,1406.67 
  "/>
<polyline clip-path="url(#clip950)" style="stroke:#000000; stroke-width:4; stroke-opacity:1; fill:none" points="
  2234.99,1423.18 2234.99,1406.67 
  "/>
<polyline clip-path="url(#clip950)" style="stroke:#000000; stroke-width:4; stroke-opacity:1; fill:none" points="
  211.602,1384.24 237.296,1384.24 
  "/>
<polyline clip-path="url(#clip950)" style="stroke:#000000; stroke-width:4; stroke-opacity:1; fill:none" points="
  211.602,1098.37 237.296,1098.37 
  "/>
<polyline clip-path="url(#clip950)" style="stroke:#000000; stroke-width:4; stroke-opacity:1; fill:none" points="
  211.602,812.51 237.296,812.51 
  "/>
<polyline clip-path="url(#clip950)" style="stroke:#000000; stroke-width:4; stroke-opacity:1; fill:none" points="
  211.602,526.645 237.296,526.645 
  "/>
<polyline clip-path="url(#clip950)" style="stroke:#000000; stroke-width:4; stroke-opacity:1; fill:none" points="
  211.602,240.781 237.296,240.781 
  "/>
<path clip-path="url(#clip950)" d="M 0 0 M329.37 1445.17 Q325.759 1445.17 323.93 1448.74 Q322.124 1452.28 322.124 1459.41 Q322.124 1466.51 323.93 1470.08 Q325.759 1473.62 329.37 1473.62 Q333.004 1473.62 334.809 1470.08 Q336.638 1466.51 336.638 1459.41 Q336.638 1452.28 334.809 1448.74 Q333.004 1445.17 329.37 1445.17 M329.37 1441.47 Q335.18 1441.47 338.235 1446.07 Q341.314 1450.66 341.314 1459.41 Q341.314 1468.13 338.235 1472.74 Q335.18 1477.32 329.37 1477.32 Q323.56 1477.32 320.481 1472.74 Q317.425 1468.13 317.425 1459.41 Q317.425 1450.66 320.481 1446.07 Q323.56 1441.47 329.37 1441.47 Z" fill="#000000" fill-rule="evenodd" fill-opacity="1" /><path clip-path="url(#clip950)" d="M 0 0 M954.958 1472.72 L962.597 1472.72 L962.597 1446.35 L954.287 1448.02 L954.287 1443.76 L962.551 1442.09 L967.226 1442.09 L967.226 1472.72 L974.865 1472.72 L974.865 1476.65 L954.958 1476.65 L954.958 1472.72 Z" fill="#000000" fill-rule="evenodd" fill-opacity="1" /><path clip-path="url(#clip950)" d="M 0 0 M1594.44 1472.72 L1610.75 1472.72 L1610.75 1476.65 L1588.81 1476.65 L1588.81 1472.72 Q1591.47 1469.96 1596.06 1465.33 Q1600.66 1460.68 1601.84 1459.34 Q1604.09 1456.81 1604.97 1455.08 Q1605.87 1453.32 1605.87 1451.63 Q1605.87 1448.87 1603.93 1447.14 Q1602 1445.4 1598.9 1445.4 Q1596.7 1445.4 1594.25 1446.17 Q1591.82 1446.93 1589.04 1448.48 L1589.04 1443.76 Q1591.87 1442.62 1594.32 1442.05 Q1596.77 1441.47 1598.81 1441.47 Q1604.18 1441.47 1607.37 1444.15 Q1610.57 1446.84 1610.57 1451.33 Q1610.57 1453.46 1609.76 1455.38 Q1608.97 1457.28 1606.87 1459.87 Q1606.29 1460.54 1603.19 1463.76 Q1600.08 1466.95 1594.44 1472.72 Z" fill="#000000" fill-rule="evenodd" fill-opacity="1" /><path clip-path="url(#clip950)" d="M 0 0 M2239.24 1458.02 Q2242.59 1458.74 2244.47 1461 Q2246.37 1463.27 2246.37 1466.61 Q2246.37 1471.72 2242.85 1474.52 Q2239.33 1477.32 2232.85 1477.32 Q2230.67 1477.32 2228.36 1476.88 Q2226.07 1476.47 2223.61 1475.61 L2223.61 1471.1 Q2225.56 1472.23 2227.87 1472.81 Q2230.19 1473.39 2232.71 1473.39 Q2237.11 1473.39 2239.4 1471.65 Q2241.71 1469.92 2241.71 1466.61 Q2241.71 1463.55 2239.56 1461.84 Q2237.43 1460.1 2233.61 1460.1 L2229.58 1460.1 L2229.58 1456.26 L2233.8 1456.26 Q2237.25 1456.26 2239.07 1454.89 Q2240.9 1453.5 2240.9 1450.91 Q2240.9 1448.25 2239 1446.84 Q2237.13 1445.4 2233.61 1445.4 Q2231.69 1445.4 2229.49 1445.82 Q2227.29 1446.24 2224.65 1447.11 L2224.65 1442.95 Q2227.32 1442.21 2229.63 1441.84 Q2231.97 1441.47 2234.03 1441.47 Q2239.35 1441.47 2242.45 1443.9 Q2245.56 1446.3 2245.56 1450.43 Q2245.56 1453.3 2243.91 1455.29 Q2242.27 1457.25 2239.24 1458.02 Z" fill="#000000" fill-rule="evenodd" fill-opacity="1" /><path clip-path="url(#clip950)" d="M 0 0 M138.691 1370.04 Q135.08 1370.04 133.251 1373.6 Q131.445 1377.14 131.445 1384.27 Q131.445 1391.38 133.251 1394.94 Q135.08 1398.49 138.691 1398.49 Q142.325 1398.49 144.13 1394.94 Q145.959 1391.38 145.959 1384.27 Q145.959 1377.14 144.13 1373.6 Q142.325 1370.04 138.691 1370.04 M138.691 1366.33 Q144.501 1366.33 147.556 1370.94 Q150.635 1375.52 150.635 1384.27 Q150.635 1393 147.556 1397.61 Q144.501 1402.19 138.691 1402.19 Q132.88 1402.19 129.802 1397.61 Q126.746 1393 126.746 1384.27 Q126.746 1375.52 129.802 1370.94 Q132.88 1366.33 138.691 1366.33 Z" fill="#000000" fill-rule="evenodd" fill-opacity="1" /><path clip-path="url(#clip950)" d="M 0 0 M155.704 1395.64 L160.589 1395.64 L160.589 1401.52 L155.704 1401.52 L155.704 1395.64 Z" fill="#000000" fill-rule="evenodd" fill-opacity="1" /><path clip-path="url(#clip950)" d="M 0 0 M175.658 1370.04 Q172.047 1370.04 170.218 1373.6 Q168.413 1377.14 168.413 1384.27 Q168.413 1391.38 170.218 1394.94 Q172.047 1398.49 175.658 1398.49 Q179.292 1398.49 181.098 1394.94 Q182.927 1391.38 182.927 1384.27 Q182.927 1377.14 181.098 1373.6 Q179.292 1370.04 175.658 1370.04 M175.658 1366.33 Q181.468 1366.33 184.524 1370.94 Q187.602 1375.52 187.602 1384.27 Q187.602 1393 184.524 1397.61 Q181.468 1402.19 175.658 1402.19 Q169.848 1402.19 166.769 1397.61 Q163.714 1393 163.714 1384.27 Q163.714 1375.52 166.769 1370.94 Q169.848 1366.33 175.658 1366.33 Z" fill="#000000" fill-rule="evenodd" fill-opacity="1" /><path clip-path="url(#clip950)" d="M 0 0 M139.917 1084.17 Q136.306 1084.17 134.478 1087.74 Q132.672 1091.28 132.672 1098.41 Q132.672 1105.52 134.478 1109.08 Q136.306 1112.62 139.917 1112.62 Q143.552 1112.62 145.357 1109.08 Q147.186 1105.52 147.186 1098.41 Q147.186 1091.28 145.357 1087.74 Q143.552 1084.17 139.917 1084.17 M139.917 1080.47 Q145.728 1080.47 148.783 1085.08 Q151.862 1089.66 151.862 1098.41 Q151.862 1107.14 148.783 1111.74 Q145.728 1116.33 139.917 1116.33 Q134.107 1116.33 131.029 1111.74 Q127.973 1107.14 127.973 1098.41 Q127.973 1089.66 131.029 1085.08 Q134.107 1080.47 139.917 1080.47 Z" fill="#000000" fill-rule="evenodd" fill-opacity="1" /><path clip-path="url(#clip950)" d="M 0 0 M156.931 1109.77 L161.816 1109.77 L161.816 1115.65 L156.931 1115.65 L156.931 1109.77 Z" fill="#000000" fill-rule="evenodd" fill-opacity="1" /><path clip-path="url(#clip950)" d="M 0 0 M167.695 1111.72 L175.334 1111.72 L175.334 1085.35 L167.024 1087.02 L167.024 1082.76 L175.288 1081.09 L179.964 1081.09 L179.964 1111.72 L187.602 1111.72 L187.602 1115.65 L167.695 1115.65 L167.695 1111.72 Z" fill="#000000" fill-rule="evenodd" fill-opacity="1" /><path clip-path="url(#clip950)" d="M 0 0 M140.288 798.308 Q136.677 798.308 134.848 801.873 Q133.043 805.415 133.043 812.544 Q133.043 819.651 134.848 823.216 Q136.677 826.757 140.288 826.757 Q143.922 826.757 145.728 823.216 Q147.556 819.651 147.556 812.544 Q147.556 805.415 145.728 801.873 Q143.922 798.308 140.288 798.308 M140.288 794.605 Q146.098 794.605 149.154 799.211 Q152.232 803.794 152.232 812.544 Q152.232 821.271 149.154 825.878 Q146.098 830.461 140.288 830.461 Q134.478 830.461 131.399 825.878 Q128.343 821.271 128.343 812.544 Q128.343 803.794 131.399 799.211 Q134.478 794.605 140.288 794.605 Z" fill="#000000" fill-rule="evenodd" fill-opacity="1" /><path clip-path="url(#clip950)" d="M 0 0 M157.302 823.91 L162.186 823.91 L162.186 829.79 L157.302 829.79 L157.302 823.91 Z" fill="#000000" fill-rule="evenodd" fill-opacity="1" /><path clip-path="url(#clip950)" d="M 0 0 M171.283 825.855 L187.602 825.855 L187.602 829.79 L165.658 829.79 L165.658 825.855 Q168.32 823.1 172.903 818.47 Q177.51 813.818 178.69 812.475 Q180.936 809.952 181.815 808.216 Q182.718 806.456 182.718 804.767 Q182.718 802.012 180.774 800.276 Q178.852 798.54 175.751 798.54 Q173.552 798.54 171.098 799.304 Q168.667 800.068 165.89 801.619 L165.89 796.896 Q168.714 795.762 171.167 795.183 Q173.621 794.605 175.658 794.605 Q181.028 794.605 184.223 797.29 Q187.417 799.975 187.417 804.466 Q187.417 806.595 186.607 808.517 Q185.82 810.415 183.714 813.007 Q183.135 813.679 180.033 816.896 Q176.931 820.091 171.283 825.855 Z" fill="#000000" fill-rule="evenodd" fill-opacity="1" /><path clip-path="url(#clip950)" d="M 0 0 M139.339 512.444 Q135.728 512.444 133.899 516.009 Q132.093 519.551 132.093 526.68 Q132.093 533.787 133.899 537.351 Q135.728 540.893 139.339 540.893 Q142.973 540.893 144.779 537.351 Q146.607 533.787 146.607 526.68 Q146.607 519.551 144.779 516.009 Q142.973 512.444 139.339 512.444 M139.339 508.74 Q145.149 508.74 148.204 513.347 Q151.283 517.93 151.283 526.68 Q151.283 535.407 148.204 540.013 Q145.149 544.597 139.339 544.597 Q133.529 544.597 130.45 540.013 Q127.394 535.407 127.394 526.68 Q127.394 517.93 130.45 513.347 Q133.529 508.74 139.339 508.74 Z" fill="#000000" fill-rule="evenodd" fill-opacity="1" /><path clip-path="url(#clip950)" d="M 0 0 M156.353 538.046 L161.237 538.046 L161.237 543.925 L156.353 543.925 L156.353 538.046 Z" fill="#000000" fill-rule="evenodd" fill-opacity="1" /><path clip-path="url(#clip950)" d="M 0 0 M180.473 525.291 Q183.829 526.009 185.704 528.277 Q187.602 530.546 187.602 533.879 Q187.602 538.995 184.084 541.796 Q180.565 544.597 174.084 544.597 Q171.908 544.597 169.593 544.157 Q167.302 543.74 164.848 542.884 L164.848 538.37 Q166.792 539.504 169.107 540.083 Q171.422 540.662 173.945 540.662 Q178.343 540.662 180.635 538.925 Q182.95 537.189 182.95 533.879 Q182.95 530.824 180.797 529.111 Q178.667 527.375 174.848 527.375 L170.82 527.375 L170.82 523.532 L175.033 523.532 Q178.482 523.532 180.311 522.166 Q182.139 520.777 182.139 518.185 Q182.139 515.523 180.241 514.111 Q178.366 512.676 174.848 512.676 Q172.927 512.676 170.728 513.092 Q168.528 513.509 165.89 514.388 L165.89 510.222 Q168.552 509.481 170.866 509.111 Q173.204 508.74 175.265 508.74 Q180.589 508.74 183.69 511.171 Q186.792 513.578 186.792 517.699 Q186.792 520.569 185.149 522.56 Q183.505 524.527 180.473 525.291 Z" fill="#000000" fill-rule="evenodd" fill-opacity="1" /><path clip-path="url(#clip950)" d="M 0 0 M138.205 226.58 Q134.593 226.58 132.765 230.145 Q130.959 233.686 130.959 240.816 Q130.959 247.922 132.765 251.487 Q134.593 255.029 138.205 255.029 Q141.839 255.029 143.644 251.487 Q145.473 247.922 145.473 240.816 Q145.473 233.686 143.644 230.145 Q141.839 226.58 138.205 226.58 M138.205 222.876 Q144.015 222.876 147.07 227.483 Q150.149 232.066 150.149 240.816 Q150.149 249.543 147.07 254.149 Q144.015 258.732 138.205 258.732 Q132.394 258.732 129.316 254.149 Q126.26 249.543 126.26 240.816 Q126.26 232.066 129.316 227.483 Q132.394 222.876 138.205 222.876 Z" fill="#000000" fill-rule="evenodd" fill-opacity="1" /><path clip-path="url(#clip950)" d="M 0 0 M155.218 252.181 L160.103 252.181 L160.103 258.061 L155.218 258.061 L155.218 252.181 Z" fill="#000000" fill-rule="evenodd" fill-opacity="1" /><path clip-path="url(#clip950)" d="M 0 0 M178.019 227.575 L166.214 246.024 L178.019 246.024 L178.019 227.575 M176.792 223.501 L182.672 223.501 L182.672 246.024 L187.602 246.024 L187.602 249.913 L182.672 249.913 L182.672 258.061 L178.019 258.061 L178.019 249.913 L162.417 249.913 L162.417 245.399 L176.792 223.501 Z" fill="#000000" fill-rule="evenodd" fill-opacity="1" /><path clip-path="url(#clip950)" d="M 0 0 M1017.03 1508.52 L1025.69 1508.52 L1046.76 1548.28 L1046.76 1508.52 L1053 1508.52 L1053 1556.04 L1044.34 1556.04 L1023.27 1516.29 L1023.27 1556.04 L1017.03 1556.04 L1017.03 1508.52 Z" fill="#000000" fill-rule="evenodd" fill-opacity="1" /><path clip-path="url(#clip950)" d="M 0 0 M1058.54 1541.98 L1058.54 1520.4 L1064.39 1520.4 L1064.39 1541.75 Q1064.39 1546.81 1066.37 1549.36 Q1068.34 1551.87 1072.29 1551.87 Q1077.03 1551.87 1079.77 1548.85 Q1082.53 1545.83 1082.53 1540.61 L1082.53 1520.4 L1088.39 1520.4 L1088.39 1556.04 L1082.53 1556.04 L1082.53 1550.57 Q1080.4 1553.82 1077.57 1555.41 Q1074.77 1556.97 1071.04 1556.97 Q1064.9 1556.97 1061.72 1553.15 Q1058.54 1549.33 1058.54 1541.98 M1073.27 1519.54 L1073.27 1519.54 Z" fill="#000000" fill-rule="evenodd" fill-opacity="1" /><path clip-path="url(#clip950)" d="M 0 0 M1122.29 1527.24 Q1124.48 1523.29 1127.54 1521.41 Q1130.6 1519.54 1134.73 1519.54 Q1140.3 1519.54 1143.33 1523.45 Q1146.35 1527.33 1146.35 1534.53 L1146.35 1556.04 L1140.46 1556.04 L1140.46 1534.72 Q1140.46 1529.59 1138.65 1527.11 Q1136.83 1524.63 1133.11 1524.63 Q1128.56 1524.63 1125.92 1527.65 Q1123.28 1530.68 1123.28 1535.9 L1123.28 1556.04 L1117.39 1556.04 L1117.39 1534.72 Q1117.39 1529.56 1115.57 1527.11 Q1113.76 1524.63 1109.97 1524.63 Q1105.48 1524.63 1102.84 1527.68 Q1100.2 1530.71 1100.2 1535.9 L1100.2 1556.04 L1094.31 1556.04 L1094.31 1520.4 L1100.2 1520.4 L1100.2 1525.93 Q1102.2 1522.66 1105.01 1521.1 Q1107.81 1519.54 1111.66 1519.54 Q1115.54 1519.54 1118.25 1521.51 Q1120.98 1523.48 1122.29 1527.24 Z" fill="#000000" fill-rule="evenodd" fill-opacity="1" /><path clip-path="url(#clip950)" d="M 0 0 M1178.08 1538.25 Q1178.08 1531.79 1175.41 1528.13 Q1172.77 1524.44 1168.12 1524.44 Q1163.47 1524.44 1160.8 1528.13 Q1158.16 1531.79 1158.16 1538.25 Q1158.16 1544.71 1160.8 1548.4 Q1163.47 1552.07 1168.12 1552.07 Q1172.77 1552.07 1175.41 1548.4 Q1178.08 1544.71 1178.08 1538.25 M1158.16 1525.81 Q1160.01 1522.62 1162.81 1521.1 Q1165.64 1519.54 1169.55 1519.54 Q1176.05 1519.54 1180.09 1524.69 Q1184.16 1529.85 1184.16 1538.25 Q1184.16 1546.65 1180.09 1551.81 Q1176.05 1556.97 1169.55 1556.97 Q1165.64 1556.97 1162.81 1555.44 Q1160.01 1553.88 1158.16 1550.7 L1158.16 1556.04 L1152.27 1556.04 L1152.27 1506.52 L1158.16 1506.52 L1158.16 1525.81 Z" fill="#000000" fill-rule="evenodd" fill-opacity="1" /><path clip-path="url(#clip950)" d="M 0 0 M1220.8 1536.76 L1220.8 1539.62 L1193.87 1539.62 Q1194.25 1545.67 1197.5 1548.85 Q1200.78 1552 1206.6 1552 Q1209.98 1552 1213.13 1551.17 Q1216.31 1550.35 1219.43 1548.69 L1219.43 1554.23 Q1216.28 1555.57 1212.97 1556.27 Q1209.66 1556.97 1206.25 1556.97 Q1197.72 1556.97 1192.73 1552 Q1187.76 1547.04 1187.76 1538.57 Q1187.76 1529.82 1192.47 1524.69 Q1197.21 1519.54 1205.23 1519.54 Q1212.43 1519.54 1216.6 1524.18 Q1220.8 1528.8 1220.8 1536.76 M1214.94 1535.04 Q1214.88 1530.23 1212.24 1527.37 Q1209.63 1524.5 1205.3 1524.5 Q1200.4 1524.5 1197.44 1527.27 Q1194.51 1530.04 1194.06 1535.07 L1214.94 1535.04 Z" fill="#000000" fill-rule="evenodd" fill-opacity="1" /><path clip-path="url(#clip950)" d="M 0 0 M1247.6 1525.87 Q1246.61 1525.3 1245.43 1525.04 Q1244.29 1524.76 1242.89 1524.76 Q1237.92 1524.76 1235.25 1528 Q1232.61 1531.22 1232.61 1537.27 L1232.61 1556.04 L1226.72 1556.04 L1226.72 1520.4 L1232.61 1520.4 L1232.61 1525.93 Q1234.45 1522.69 1237.41 1521.13 Q1240.37 1519.54 1244.61 1519.54 Q1245.21 1519.54 1245.94 1519.63 Q1246.67 1519.7 1247.57 1519.85 L1247.6 1525.87 Z" fill="#000000" fill-rule="evenodd" fill-opacity="1" /><path clip-path="url(#clip950)" d="M 0 0 M1288.27 1524.5 Q1283.56 1524.5 1280.83 1528.19 Q1278.09 1531.85 1278.09 1538.25 Q1278.09 1544.65 1280.79 1548.34 Q1283.53 1552 1288.27 1552 Q1292.95 1552 1295.69 1548.31 Q1298.43 1544.62 1298.43 1538.25 Q1298.43 1531.92 1295.69 1528.23 Q1292.95 1524.5 1288.27 1524.5 M1288.27 1519.54 Q1295.91 1519.54 1300.27 1524.5 Q1304.63 1529.47 1304.63 1538.25 Q1304.63 1547 1300.27 1552 Q1295.91 1556.97 1288.27 1556.97 Q1280.6 1556.97 1276.24 1552 Q1271.91 1547 1271.91 1538.25 Q1271.91 1529.47 1276.24 1524.5 Q1280.6 1519.54 1288.27 1519.54 Z" fill="#000000" fill-rule="evenodd" fill-opacity="1" /><path clip-path="url(#clip950)" d="M 0 0 M1328.82 1506.52 L1328.82 1511.39 L1323.22 1511.39 Q1320.07 1511.39 1318.83 1512.66 Q1317.62 1513.93 1317.62 1517.24 L1317.62 1520.4 L1327.26 1520.4 L1327.26 1524.95 L1317.62 1524.95 L1317.62 1556.04 L1311.73 1556.04 L1311.73 1524.95 L1306.13 1524.95 L1306.13 1520.4 L1311.73 1520.4 L1311.73 1517.91 Q1311.73 1511.96 1314.5 1509.26 Q1317.27 1506.52 1323.29 1506.52 L1328.82 1506.52 Z" fill="#000000" fill-rule="evenodd" fill-opacity="1" /><path clip-path="url(#clip950)" d="M 0 0 M1384.43 1510.08 L1384.43 1516.35 Q1380.77 1514.6 1377.52 1513.74 Q1374.28 1512.88 1371.25 1512.88 Q1366 1512.88 1363.14 1514.92 Q1360.3 1516.96 1360.3 1520.71 Q1360.3 1523.87 1362.18 1525.49 Q1364.09 1527.08 1369.37 1528.07 L1373.26 1528.86 Q1380.45 1530.23 1383.86 1533.7 Q1387.29 1537.14 1387.29 1542.93 Q1387.29 1549.84 1382.65 1553.4 Q1378.03 1556.97 1369.09 1556.97 Q1365.71 1556.97 1361.89 1556.2 Q1358.11 1555.44 1354.03 1553.94 L1354.03 1547.32 Q1357.95 1549.52 1361.7 1550.63 Q1365.46 1551.75 1369.09 1551.75 Q1374.59 1551.75 1377.59 1549.58 Q1380.58 1547.42 1380.58 1543.41 Q1380.58 1539.91 1378.41 1537.93 Q1376.28 1535.96 1371.38 1534.97 L1367.46 1534.21 Q1360.27 1532.78 1357.06 1529.72 Q1353.84 1526.67 1353.84 1521.22 Q1353.84 1514.92 1358.27 1511.29 Q1362.72 1507.66 1370.52 1507.66 Q1373.86 1507.66 1377.33 1508.27 Q1380.8 1508.87 1384.43 1510.08 Z" fill="#000000" fill-rule="evenodd" fill-opacity="1" /><path clip-path="url(#clip950)" d="M 0 0 M1393.44 1520.4 L1399.29 1520.4 L1399.29 1556.04 L1393.44 1556.04 L1393.44 1520.4 M1393.44 1506.52 L1399.29 1506.52 L1399.29 1513.93 L1393.44 1513.93 L1393.44 1506.52 Z" fill="#000000" fill-rule="evenodd" fill-opacity="1" /><path clip-path="url(#clip950)" d="M 0 0 M1428.89 1537.81 Q1428.89 1531.44 1426.25 1527.94 Q1423.64 1524.44 1418.9 1524.44 Q1414.19 1524.44 1411.55 1527.94 Q1408.94 1531.44 1408.94 1537.81 Q1408.94 1544.14 1411.55 1547.64 Q1414.19 1551.14 1418.9 1551.14 Q1423.64 1551.14 1426.25 1547.64 Q1428.89 1544.14 1428.89 1537.81 M1434.75 1551.62 Q1434.75 1560.72 1430.71 1565.15 Q1426.66 1569.6 1418.33 1569.6 Q1415.24 1569.6 1412.5 1569.13 Q1409.76 1568.68 1407.19 1567.72 L1407.19 1562.03 Q1409.76 1563.43 1412.28 1564.1 Q1414.79 1564.76 1417.4 1564.76 Q1423.16 1564.76 1426.03 1561.74 Q1428.89 1558.75 1428.89 1552.67 L1428.89 1549.77 Q1427.08 1552.92 1424.25 1554.48 Q1421.41 1556.04 1417.47 1556.04 Q1410.91 1556.04 1406.9 1551.05 Q1402.89 1546.05 1402.89 1537.81 Q1402.89 1529.53 1406.9 1524.53 Q1410.91 1519.54 1417.47 1519.54 Q1421.41 1519.54 1424.25 1521.1 Q1427.08 1522.66 1428.89 1525.81 L1428.89 1520.4 L1434.75 1520.4 L1434.75 1551.62 Z" fill="#000000" fill-rule="evenodd" fill-opacity="1" /><path clip-path="url(#clip950)" d="M 0 0 M1470.52 1534.53 L1470.52 1556.04 L1464.67 1556.04 L1464.67 1534.72 Q1464.67 1529.66 1462.69 1527.14 Q1460.72 1524.63 1456.77 1524.63 Q1452.03 1524.63 1449.29 1527.65 Q1446.56 1530.68 1446.56 1535.9 L1446.56 1556.04 L1440.67 1556.04 L1440.67 1520.4 L1446.56 1520.4 L1446.56 1525.93 Q1448.66 1522.72 1451.49 1521.13 Q1454.36 1519.54 1458.08 1519.54 Q1464.22 1519.54 1467.37 1523.36 Q1470.52 1527.14 1470.52 1534.53 Z" fill="#000000" fill-rule="evenodd" fill-opacity="1" /><path clip-path="url(#clip950)" d="M 0 0 M1492.87 1538.12 Q1485.77 1538.12 1483.03 1539.75 Q1480.3 1541.37 1480.3 1545.29 Q1480.3 1548.4 1482.33 1550.25 Q1484.4 1552.07 1487.93 1552.07 Q1492.8 1552.07 1495.73 1548.63 Q1498.69 1545.16 1498.69 1539.43 L1498.69 1538.12 L1492.87 1538.12 M1504.55 1535.71 L1504.55 1556.04 L1498.69 1556.04 L1498.69 1550.63 Q1496.69 1553.88 1493.7 1555.44 Q1490.7 1556.97 1486.38 1556.97 Q1480.9 1556.97 1477.65 1553.91 Q1474.44 1550.82 1474.44 1545.67 Q1474.44 1539.65 1478.45 1536.6 Q1482.49 1533.54 1490.48 1533.54 L1498.69 1533.54 L1498.69 1532.97 Q1498.69 1528.93 1496.02 1526.73 Q1493.38 1524.5 1488.57 1524.5 Q1485.52 1524.5 1482.62 1525.23 Q1479.72 1525.97 1477.05 1527.43 L1477.05 1522.02 Q1480.26 1520.78 1483.29 1520.17 Q1486.31 1519.54 1489.18 1519.54 Q1496.91 1519.54 1500.73 1523.55 Q1504.55 1527.56 1504.55 1535.71 Z" fill="#000000" fill-rule="evenodd" fill-opacity="1" /><path clip-path="url(#clip950)" d="M 0 0 M1510.69 1506.52 L1516.55 1506.52 L1516.55 1556.04 L1510.69 1556.04 L1510.69 1506.52 Z" fill="#000000" fill-rule="evenodd" fill-opacity="1" /><path clip-path="url(#clip950)" d="M 0 0 M1545.42 1521.45 L1545.42 1526.98 Q1542.93 1525.71 1540.26 1525.07 Q1537.59 1524.44 1534.72 1524.44 Q1530.36 1524.44 1528.17 1525.77 Q1526 1527.11 1526 1529.79 Q1526 1531.82 1527.56 1533 Q1529.12 1534.15 1533.83 1535.2 L1535.84 1535.64 Q1542.08 1536.98 1544.68 1539.43 Q1547.33 1541.85 1547.33 1546.21 Q1547.33 1551.17 1543.38 1554.07 Q1539.47 1556.97 1532.59 1556.97 Q1529.73 1556.97 1526.61 1556.39 Q1523.52 1555.85 1520.08 1554.74 L1520.08 1548.69 Q1523.33 1550.38 1526.48 1551.24 Q1529.63 1552.07 1532.72 1552.07 Q1536.86 1552.07 1539.08 1550.66 Q1541.31 1549.23 1541.31 1546.65 Q1541.31 1544.27 1539.69 1542.99 Q1538.1 1541.72 1532.65 1540.54 L1530.62 1540.07 Q1525.17 1538.92 1522.76 1536.56 Q1520.34 1534.18 1520.34 1530.04 Q1520.34 1525.01 1523.9 1522.27 Q1527.47 1519.54 1534.02 1519.54 Q1537.27 1519.54 1540.13 1520.01 Q1543 1520.49 1545.42 1521.45 Z" fill="#000000" fill-rule="evenodd" fill-opacity="1" /><path clip-path="url(#clip950)" d="M 0 0 M44.1444 1042.69 L50.9239 1042.69 Q47.9002 1045.94 46.4043 1049.63 Q44.9083 1053.29 44.9083 1057.43 Q44.9083 1065.58 49.9054 1069.9 Q54.8707 1074.23 64.2919 1074.23 Q73.6813 1074.23 78.6784 1069.9 Q83.6436 1065.58 83.6436 1057.43 Q83.6436 1053.29 82.1477 1049.63 Q80.6518 1045.94 77.6281 1042.69 L84.3439 1042.69 Q86.6355 1046.07 87.7814 1049.85 Q88.9272 1053.61 88.9272 1057.81 Q88.9272 1068.6 82.3387 1074.81 Q75.7183 1081.01 64.2919 1081.01 Q52.8336 1081.01 46.2451 1074.81 Q39.6248 1068.6 39.6248 1057.81 Q39.6248 1053.55 40.7706 1049.79 Q41.8846 1046 44.1444 1042.69 Z" fill="#000000" fill-rule="evenodd" fill-opacity="1" /><path clip-path="url(#clip950)" d="M 0 0 M56.4621 1022.74 Q56.4621 1027.45 60.1542 1030.18 Q63.8145 1032.92 70.212 1032.92 Q76.6095 1032.92 80.3017 1030.21 Q83.9619 1027.48 83.9619 1022.74 Q83.9619 1018.06 80.2698 1015.32 Q76.5777 1012.58 70.212 1012.58 Q63.8781 1012.58 60.186 1015.32 Q56.4621 1018.06 56.4621 1022.74 M51.4968 1022.74 Q51.4968 1015.1 56.4621 1010.74 Q61.4273 1006.38 70.212 1006.38 Q78.9649 1006.38 83.9619 1010.74 Q88.9272 1015.1 88.9272 1022.74 Q88.9272 1030.41 83.9619 1034.77 Q78.9649 1039.09 70.212 1039.09 Q61.4273 1039.09 56.4621 1034.77 Q51.4968 1030.41 51.4968 1022.74 Z" fill="#000000" fill-rule="evenodd" fill-opacity="1" /><path clip-path="url(#clip950)" d="M 0 0 M73.9359 1000.84 L52.3562 1000.84 L52.3562 994.981 L73.7131 994.981 Q78.7739 994.981 81.3202 993.007 Q83.8346 991.034 83.8346 987.087 Q83.8346 982.345 80.8109 979.607 Q77.7872 976.838 72.5673 976.838 L52.3562 976.838 L52.3562 970.982 L88.0042 970.982 L88.0042 976.838 L82.5296 976.838 Q85.7762 978.971 87.3676 981.804 Q88.9272 984.604 88.9272 988.328 Q88.9272 994.471 85.1078 997.654 Q81.2883 1000.84 73.9359 1000.84 M51.4968 986.1 L51.4968 986.1 Z" fill="#000000" fill-rule="evenodd" fill-opacity="1" /><path clip-path="url(#clip950)" d="M 0 0 M66.4881 935.207 L88.0042 935.207 L88.0042 941.063 L66.679 941.063 Q61.6183 941.063 59.1038 943.036 Q56.5894 945.01 56.5894 948.956 Q56.5894 953.699 59.6131 956.436 Q62.6368 959.173 67.8567 959.173 L88.0042 959.173 L88.0042 965.062 L52.3562 965.062 L52.3562 959.173 L57.8944 959.173 Q54.6797 957.073 53.0883 954.24 Q51.4968 951.375 51.4968 947.652 Q51.4968 941.509 55.3163 938.358 Q59.1038 935.207 66.4881 935.207 Z" fill="#000000" fill-rule="evenodd" fill-opacity="1" /><path clip-path="url(#clip950)" d="M 0 0 M42.2347 923.271 L52.3562 923.271 L52.3562 911.208 L56.9077 911.208 L56.9077 923.271 L76.2594 923.271 Q80.6199 923.271 81.8613 922.093 Q83.1026 920.884 83.1026 917.223 L83.1026 911.208 L88.0042 911.208 L88.0042 917.223 Q88.0042 924.003 85.4897 926.581 Q82.9434 929.159 76.2594 929.159 L56.9077 929.159 L56.9077 933.456 L52.3562 933.456 L52.3562 929.159 L42.2347 929.159 L42.2347 923.271 Z" fill="#000000" fill-rule="evenodd" fill-opacity="1" /><path clip-path="url(#clip950)" d="M 0 0 M38.5426 870.276 Q45.8632 874.541 53.0246 876.61 Q60.186 878.679 67.5384 878.679 Q74.8908 878.679 82.1159 876.61 Q89.3091 874.51 96.5979 870.276 L96.5979 875.369 Q89.1182 880.143 81.8931 882.53 Q74.668 884.886 67.5384 884.886 Q60.4406 884.886 53.2474 882.53 Q46.0542 880.175 38.5426 875.369 L38.5426 870.276 Z" fill="#000000" fill-rule="evenodd" fill-opacity="1" /><path clip-path="url(#clip950)" d="M 0 0 M40.4842 863.879 L40.4842 855.221 L80.238 834.151 L40.4842 834.151 L40.4842 827.913 L88.0042 827.913 L88.0042 836.57 L48.2503 857.64 L88.0042 857.64 L88.0042 863.879 L40.4842 863.879 Z" fill="#000000" fill-rule="evenodd" fill-opacity="1" /><path clip-path="url(#clip950)" d="M 0 0 M56.4621 807.956 Q56.4621 812.667 60.1542 815.404 Q63.8145 818.141 70.212 818.141 Q76.6095 818.141 80.3017 815.436 Q83.9619 812.699 83.9619 807.956 Q83.9619 803.277 80.2698 800.54 Q76.5777 797.803 70.212 797.803 Q63.8781 797.803 60.186 800.54 Q56.4621 803.277 56.4621 807.956 M51.4968 807.956 Q51.4968 800.317 56.4621 795.957 Q61.4273 791.596 70.212 791.596 Q78.9649 791.596 83.9619 795.957 Q88.9272 800.317 88.9272 807.956 Q88.9272 815.627 83.9619 819.987 Q78.9649 824.316 70.212 824.316 Q61.4273 824.316 56.4621 819.987 Q51.4968 815.627 51.4968 807.956 Z" fill="#000000" fill-rule="evenodd" fill-opacity="1" /><path clip-path="url(#clip950)" d="M 0 0 M57.8307 764.797 Q57.2578 765.783 57.0032 766.961 Q56.7167 768.107 56.7167 769.507 Q56.7167 774.472 59.9632 777.146 Q63.1779 779.788 69.2253 779.788 L88.0042 779.788 L88.0042 785.676 L52.3562 785.676 L52.3562 779.788 L57.8944 779.788 Q54.6479 777.942 53.0883 774.982 Q51.4968 772.022 51.4968 767.788 Q51.4968 767.184 51.5923 766.452 Q51.656 765.72 51.8151 764.828 L57.8307 764.797 Z" fill="#000000" fill-rule="evenodd" fill-opacity="1" /><path clip-path="url(#clip950)" d="M 0 0 M59.1993 732.045 Q55.2526 729.849 53.3747 726.793 Q51.4968 723.738 51.4968 719.6 Q51.4968 714.03 55.4117 711.006 Q59.2948 707.983 66.4881 707.983 L88.0042 707.983 L88.0042 713.871 L66.679 713.871 Q61.5546 713.871 59.072 715.685 Q56.5894 717.499 56.5894 721.223 Q56.5894 725.775 59.6131 728.417 Q62.6368 731.058 67.8567 731.058 L88.0042 731.058 L88.0042 736.947 L66.679 736.947 Q61.5228 736.947 59.072 738.761 Q56.5894 740.575 56.5894 744.363 Q56.5894 748.85 59.6449 751.492 Q62.6686 754.134 67.8567 754.134 L88.0042 754.134 L88.0042 760.022 L52.3562 760.022 L52.3562 754.134 L57.8944 754.134 Q54.616 752.129 53.0564 749.328 Q51.4968 746.527 51.4968 742.676 Q51.4968 738.793 53.4702 736.087 Q55.4436 733.35 59.1993 732.045 Z" fill="#000000" fill-rule="evenodd" fill-opacity="1" /><path clip-path="url(#clip950)" d="M 0 0 M70.0847 685.639 Q70.0847 692.737 71.7079 695.474 Q73.3312 698.211 77.2461 698.211 Q80.3653 698.211 82.2114 696.174 Q84.0256 694.105 84.0256 690.572 Q84.0256 685.703 80.5881 682.774 Q77.1188 679.814 71.3897 679.814 L70.0847 679.814 L70.0847 685.639 M67.6657 673.958 L88.0042 673.958 L88.0042 679.814 L82.5933 679.814 Q85.8398 681.82 87.3994 684.811 Q88.9272 687.803 88.9272 692.132 Q88.9272 697.607 85.8716 700.853 Q82.7843 704.068 77.6281 704.068 Q71.6125 704.068 68.5569 700.057 Q65.5014 696.015 65.5014 688.026 L65.5014 679.814 L64.9285 679.814 Q60.8862 679.814 58.6901 682.488 Q56.4621 685.13 56.4621 689.936 Q56.4621 692.991 57.1941 695.888 Q57.9262 698.784 59.3903 701.458 L53.9795 701.458 Q52.7381 698.243 52.1334 695.219 Q51.4968 692.196 51.4968 689.331 Q51.4968 681.597 55.5072 677.777 Q59.5176 673.958 67.6657 673.958 Z" fill="#000000" fill-rule="evenodd" fill-opacity="1" /><path clip-path="url(#clip950)" d="M 0 0 M38.479 667.815 L38.479 661.959 L88.0042 661.959 L88.0042 667.815 L38.479 667.815 Z" fill="#000000" fill-rule="evenodd" fill-opacity="1" /><path clip-path="url(#clip950)" d="M 0 0 M52.3562 655.816 L52.3562 649.959 L88.0042 649.959 L88.0042 655.816 L52.3562 655.816 M38.479 655.816 L38.479 649.959 L45.895 649.959 L45.895 655.816 L38.479 655.816 Z" fill="#000000" fill-rule="evenodd" fill-opacity="1" /><path clip-path="url(#clip950)" d="M 0 0 M52.3562 646.363 L52.3562 618.544 L57.7034 618.544 L83.3254 640.57 L83.3254 618.544 L88.0042 618.544 L88.0042 647.158 L82.657 647.158 L57.035 625.133 L57.035 646.363 L52.3562 646.363 Z" fill="#000000" fill-rule="evenodd" fill-opacity="1" /><path clip-path="url(#clip950)" d="M 0 0 M68.7161 581.91 L71.5806 581.91 L71.5806 608.837 Q77.6281 608.455 80.8109 605.208 Q83.9619 601.93 83.9619 596.105 Q83.9619 592.732 83.1344 589.581 Q82.3069 586.398 80.6518 583.278 L86.1899 583.278 Q87.5267 586.429 88.227 589.74 Q88.9272 593.05 88.9272 596.455 Q88.9272 604.986 83.9619 609.983 Q78.9967 614.948 70.5303 614.948 Q61.7774 614.948 56.6531 610.237 Q51.4968 605.495 51.4968 597.474 Q51.4968 590.281 56.1438 586.111 Q60.7589 581.91 68.7161 581.91 M66.9973 587.766 Q62.1912 587.83 59.3266 590.472 Q56.4621 593.082 56.4621 597.41 Q56.4621 602.312 59.2312 605.272 Q62.0002 608.2 67.0292 608.646 L66.9973 587.766 Z" fill="#000000" fill-rule="evenodd" fill-opacity="1" /><path clip-path="url(#clip950)" d="M 0 0 M57.7671 552.309 L38.479 552.309 L38.479 546.453 L88.0042 546.453 L88.0042 552.309 L82.657 552.309 Q85.8398 554.155 87.3994 556.988 Q88.9272 559.789 88.9272 563.736 Q88.9272 570.197 83.771 574.271 Q78.6147 578.313 70.212 578.313 Q61.8093 578.313 56.6531 574.271 Q51.4968 570.197 51.4968 563.736 Q51.4968 559.789 53.0564 556.988 Q54.5842 554.155 57.7671 552.309 M70.212 572.266 Q76.6732 572.266 80.3653 569.624 Q84.0256 566.95 84.0256 562.303 Q84.0256 557.656 80.3653 554.983 Q76.6732 552.309 70.212 552.309 Q63.7508 552.309 60.0905 554.983 Q56.3984 557.656 56.3984 562.303 Q56.3984 566.95 60.0905 569.624 Q63.7508 572.266 70.212 572.266 Z" fill="#000000" fill-rule="evenodd" fill-opacity="1" /><path clip-path="url(#clip950)" d="M 0 0 M42.2347 513.797 L52.3562 513.797 L52.3562 501.734 L56.9077 501.734 L56.9077 513.797 L76.2594 513.797 Q80.6199 513.797 81.8613 512.619 Q83.1026 511.41 83.1026 507.749 L83.1026 501.734 L88.0042 501.734 L88.0042 507.749 Q88.0042 514.529 85.4897 517.107 Q82.9434 519.685 76.2594 519.685 L56.9077 519.685 L56.9077 523.982 L52.3562 523.982 L52.3562 519.685 L42.2347 519.685 L42.2347 513.797 Z" fill="#000000" fill-rule="evenodd" fill-opacity="1" /><path clip-path="url(#clip950)" d="M 0 0 M56.4621 481.777 Q56.4621 486.488 60.1542 489.225 Q63.8145 491.962 70.212 491.962 Q76.6095 491.962 80.3017 489.257 Q83.9619 486.52 83.9619 481.777 Q83.9619 477.098 80.2698 474.361 Q76.5777 471.624 70.212 471.624 Q63.8781 471.624 60.186 474.361 Q56.4621 477.098 56.4621 481.777 M51.4968 481.777 Q51.4968 474.138 56.4621 469.778 Q61.4273 465.417 70.212 465.417 Q78.9649 465.417 83.9619 469.778 Q88.9272 474.138 88.9272 481.777 Q88.9272 489.448 83.9619 493.808 Q78.9649 498.137 70.212 498.137 Q61.4273 498.137 56.4621 493.808 Q51.4968 489.448 51.4968 481.777 Z" fill="#000000" fill-rule="evenodd" fill-opacity="1" /><path clip-path="url(#clip950)" d="M 0 0 M82.5933 436.613 L82.5933 426.109 L46.3406 426.109 L48.6323 437.536 L42.7758 437.536 L40.4842 426.173 L40.4842 419.743 L82.5933 419.743 L82.5933 409.24 L88.0042 409.24 L88.0042 436.613 L82.5933 436.613 Z" fill="#000000" fill-rule="evenodd" fill-opacity="1" /><path clip-path="url(#clip950)" d="M 0 0 M38.5426 404.02 L38.5426 398.928 Q46.0542 394.153 53.2474 391.798 Q60.4406 389.411 67.5384 389.411 Q74.668 389.411 81.8931 391.798 Q89.1182 394.153 96.5979 398.928 L96.5979 404.02 Q89.3091 399.787 82.1159 397.718 Q74.8908 395.617 67.5384 395.617 Q60.186 395.617 53.0246 397.718 Q45.8632 399.787 38.5426 404.02 Z" fill="#000000" fill-rule="evenodd" fill-opacity="1" /><path clip-path="url(#clip952)" d="
M329.37 86.1857 L329.37 1384.24 L964.576 1384.24 L964.576 86.1857 L329.37 86.1857 L329.37 86.1857  Z
  " fill="#009af9" fill-rule="evenodd" fill-opacity="1"/>
<polyline clip-path="url(#clip952)" style="stroke:#000000; stroke-width:4; stroke-opacity:1; fill:none" points="
  329.37,86.1857 329.37,1384.24 964.576,1384.24 964.576,86.1857 329.37,86.1857 
  "/>
<path clip-path="url(#clip952)" d="
M964.576 306.987 L964.576 1384.24 L1599.78 1384.24 L1599.78 306.987 L964.576 306.987 L964.576 306.987  Z
  " fill="#009af9" fill-rule="evenodd" fill-opacity="1"/>
<polyline clip-path="url(#clip952)" style="stroke:#000000; stroke-width:4; stroke-opacity:1; fill:none" points="
  964.576,306.987 964.576,1384.24 1599.78,1384.24 1599.78,306.987 964.576,306.987 
  "/>
<path clip-path="url(#clip952)" d="
M1599.78 900.899 L1599.78 1384.24 L2234.99 1384.24 L2234.99 900.899 L1599.78 900.899 L1599.78 900.899  Z
  " fill="#009af9" fill-rule="evenodd" fill-opacity="1"/>
<polyline clip-path="url(#clip952)" style="stroke:#000000; stroke-width:4; stroke-opacity:1; fill:none" points="
  1599.78,900.899 1599.78,1384.24 2234.99,1384.24 2234.99,900.899 1599.78,900.899 
  "/>
</svg>
